<svg width="193" height="61" viewBox="0 0 193 61" fill="none" xmlns="http://www.w3.org/2000/svg">
<path opacity="0.8" d="M21.8237 58.84L16.1763 9.15998L14.9923 9.29457C13.7234 9.43882 12.4822 9.80846 11.4649 10.5804C8.08714 13.145 0.702706 20.5996 2.43998 35.8825C2.95507 40.4137 1.69684 46.5912 0.259367 51.7637C-1.00575 56.3128 2.65962 61.0185 7.35231 60.4851L21.8237 58.84ZM168.166 4.95223L181.834 53.0478L182.98 52.722C184.209 52.3729 185.373 51.8059 186.251 50.8786C189.166 47.7978 195.237 39.2393 191.032 24.4439C189.785 20.0572 190.02 13.7573 190.595 8.41963C191.102 3.72518 186.719 -0.320269 182.176 0.970804L168.166 4.95223ZM21.8237 58.84C54.7921 55.0923 87.896 57 124.955 57V7C91.6364 7 52.8975 4.98569 16.1763 9.15998L21.8237 58.84ZM124.955 57C138.564 57 161.412 58.8514 181.834 53.0478L168.166 4.95223C156.57 8.24761 145.085 7 124.955 7V57Z" fill="black"/>
</svg>
