<svg width="276" height="1158" viewBox="0 0 276 1158" fill="none" xmlns="http://www.w3.org/2000/svg">
<g filter="url(#filter0_d_983_222)">
<g filter="url(#filter1_d_983_222)">
<path d="M119 292.5C124 293.5 135 289.5 141.738 286.57C142.627 285.977 150 283 151.5 278C152.666 267.774 151.5 259.649 151.5 248C151.5 237.167 149.074 231.146 159.893 231.146C167.081 231.146 174.195 231.072 181.383 231.146C190.201 231.22 196.574 237.008 196.796 245.837C197.092 259.415 196.5 278.922 196.5 292.5C197.204 297.368 170.5 322.5 167 328C165.5 320.5 163.737 312.254 159.893 306C155.636 299.073 142.648 308.627 134 312.957C125.352 317.286 115.989 319.272 104 319.5C90.8642 319.75 80.6333 315.999 71 312.957C65.2942 311.176 56.1505 304.155 52.4454 299.332C51.482 298.219 50.9633 296.883 50 295.029C53.4828 295.029 56.2246 295.029 59.2627 295.029C59.2627 240.792 59.2627 186.926 59.2627 132.911C65.265 130.834 70.378 127.792 73.9349 122.672C76.4544 119.037 78.381 115.253 76.2321 110.578C75.8616 109.762 76.6767 108.056 77.3436 107.017C86.3841 91.9552 95.2763 76.8935 104.613 62.0544C109.207 54.7832 108.837 47.3637 107.059 39.6473C106.392 36.7537 105.428 34.0085 104.761 31.1148C104.02 27.4792 105.725 26.0695 109.059 27.6276C112.616 29.2599 116.025 31.189 119.285 33.4149C130.178 40.9086 141.886 45.2862 155.225 44.0991C164.117 43.2829 173.009 42.0958 181.901 41.5022C197.685 40.3893 213.172 41.5764 226.289 51.8896C235.625 59.235 239.33 69.6965 239.923 81.1227C240.294 87.7261 239.256 94.4037 238.219 100.933C237.552 105.162 236.144 105.088 231.92 104.272C220.583 101.972 212.283 94.2553 202.724 88.7648C196.425 85.1292 194.647 76.8193 197.611 70.4385C201.094 62.7963 196.796 55.1542 188.422 53.7445C178.789 52.1122 169.749 55.08 160.56 57.1575C158.411 57.6768 156.336 58.3446 154.261 59.1608C151.742 60.1253 151.149 61.9802 152.557 64.2061C155.595 68.8804 155.225 73.9257 153.076 78.3774C149.815 84.9808 146.481 91.8068 141.812 97.4457C134.847 105.904 126.844 113.472 118.915 121.114C116.766 123.192 115.803 125.046 115.803 128.088C115.877 181.658 115.877 235.153 115.803 288.722C115.803 290.874 116.633 292.027 119 292.5Z" fill="white"/>
</g>
<g filter="url(#filter2_d_983_222)">
<path d="M90.0729 517.744C105.455 513.074 120.4 516.066 135.637 521.465C135.637 519.641 135.637 518.255 135.637 516.795C135.637 477.76 135.637 438.725 135.71 399.69C135.71 397.574 136.512 395.166 137.605 393.342C145.26 381.084 150.15 373.986 156 360.5C162.735 344.972 164.992 338.434 166 323.5C166.487 316.289 166.976 313.429 166.5 307C166.016 300.469 165.63 301 163.5 296C162.404 293.428 159 290.989 159 289C159 287.011 165.264 288.535 168 289.5C172.484 291.081 175.895 291.77 181 292C188.228 292.326 198.26 292.12 205.5 291.5C217.881 290.44 220.349 288.494 231.284 288.494C240.543 288.494 246.667 294.331 246.958 303.524C247.104 310.821 247.177 318.117 246.958 325.413C246.667 335.19 240.689 340.809 230.92 340.881C226.91 340.881 222.9 340.809 218.891 340.881C215.1 341.027 211.528 340.517 208.028 338.62C204.748 336.869 202.196 338.036 201.54 341.757C200.738 345.916 200.592 350.148 200.155 354.38C199.134 364.594 195.198 373.788 190.605 382.762C185.575 392.612 191.115 405.527 203.946 405.746C209.049 405.819 214.152 405.746 219.255 405.746C228.076 405.819 234.2 411.291 234.492 419.973C234.783 428.072 234.783 436.244 234.492 444.416C234.127 453.901 228.222 459.228 218.672 459.228C213.788 459.228 208.976 459.155 204.092 459.228C195.052 459.301 189.001 465.356 188.928 474.404C188.855 488.778 188.855 503.078 188.928 517.452C188.928 526.427 195.052 532.555 204.019 532.628C214.371 532.701 224.65 532.628 235.002 532.701C241.49 532.774 246.739 536.276 248.708 542.186C249.291 544.011 248.926 546.418 248.27 548.315C247.614 550.212 246.229 551.964 244.844 553.423C233.18 565.681 218.891 573.852 202.05 574.874C185.793 575.822 170.192 571.445 157.143 560.865C148.103 553.496 139.719 545.397 130.825 537.809C120.765 529.272 109.684 522.559 96.4883 519.933C94.3012 519.495 92.1142 519.13 90 518.692C90 518.474 90 518.109 90.0729 517.744Z" fill="white"/>
</g>
<g filter="url(#filter3_d_983_222)">
<path d="M81.0682 744.635C72.3296 741.867 70.3403 734.77 69.7719 727.035C69.1325 718.164 71.9033 710.074 75.1004 701.913C78.0843 694.248 80.9972 686.442 83.2706 678.565C85.0468 672.32 83.9811 665.933 82.3471 659.617C81.6366 656.92 81.2103 654.082 81.1393 651.314C80.9972 634.779 81.0682 618.173 81.0682 601.637C81.0682 591.702 75.3846 586.096 65.4381 585.954C61.8858 585.954 58.2625 586.025 54.8523 585.315C48.316 583.967 44.1243 578.502 44.0533 571.761C43.9822 564.309 43.9822 556.858 44.0533 549.406C44.1243 540.89 50.0922 535 58.6888 535C90.8015 535 122.843 535 154.956 535C163.908 535 182.858 540.89 183 549.903C183.071 556.858 183.071 563.883 183 570.838C182.858 580.277 163.979 585.954 154.459 586.025C151.972 586.025 149.485 585.954 146.999 586.025C139.326 586.167 133.571 591.631 132.932 599.296C132.79 600.715 132.861 602.134 132.861 603.553C132.861 671.539 132.861 739.525 132.861 807.511C132.861 819.788 127.745 824.897 115.383 824.968C108.989 824.968 102.595 825.039 96.201 824.968C86.8229 824.897 80.9972 819.007 80.9972 809.64C80.9972 789.272 80.9972 768.976 80.9972 748.609C81.0682 747.331 81.0682 745.983 81.0682 744.635Z" fill="white"/>
</g>
<path d="M83.6732 511.535C79.1496 512.848 76.0082 514.121 72.12 515C67.2741 516.179 62.2533 516.529 57.4632 514.726C55.1945 513.858 53.001 512.357 51.1919 510.673C49.2582 508.86 48.9813 506.697 50.9323 504.194C52.2321 502.568 52.9728 500.297 53.5196 498.213C53.997 496.445 54.6493 495.505 56.4845 495.793C58.3198 496.081 60.4807 495.931 61.9868 496.848C69.271 501.046 83.8475 506.223 91 510.673C91.054 511.182 88.1962 510.222 83.6732 511.535Z" fill="white"/>
<path d="M80.9144 13.1489C70.0407 14.5371 57.5475 8.59895 54 0.732859C58.55 -2.04341 65.1051 3.27777 80.9144 13.1489Z" fill="white"/>
<g filter="url(#filter4_d_983_222)">
<path d="M249.466 812.519C248.849 815.327 248.439 818.204 247.685 821.012C243.509 837.038 239.333 853.065 235.156 869.091C234.814 870.529 234.54 871.968 234.266 873.406C233.855 875.666 234.266 877.31 236.525 878.748C245.358 884.433 253.231 891.145 258.024 900.733C263.912 912.513 262.885 924.499 257.408 935.731C251.451 947.991 244.399 959.839 237.21 971.414C232.897 978.4 225.16 979.495 218.039 975.181C214.616 973.126 211.124 971.14 207.838 968.948C207.153 968.469 206.537 966.962 206.742 966.14C209.55 954.223 212.768 942.443 215.232 930.526C217.081 921.759 217.766 912.719 219.272 903.884C221.052 893.131 222.901 882.446 225.023 871.831C226.666 863.749 228.857 855.736 230.706 847.654C230.843 846.901 230.706 846.147 230.706 845.736C222.011 845.736 213.452 845.942 204.962 845.668C197.568 845.462 192.159 839.504 192.022 831.902C191.954 825.053 192.022 818.204 192.022 811.355C192.022 809.78 191.954 808.136 191.817 806.561C191.132 797.726 183.601 793.411 175.59 797.246C172.304 798.753 171.14 801.835 170.729 805.054C168.744 821.902 170.866 837.518 183.053 850.668C193.46 861.9 203.388 873.543 213.589 884.844C215.849 887.309 216.67 889.501 215.917 893.062C214.137 901.76 213.384 910.664 211.604 919.362C209.07 931.69 206.195 943.95 203.114 956.141C199.964 968.674 197.363 981.276 197.91 994.289C198.321 1005.11 201.676 1014.9 207.769 1023.74C211.124 1028.6 214.479 1033.46 217.834 1038.4C220.025 1041.55 219.683 1043.26 216.259 1044.9C212.768 1046.55 209.139 1047.92 205.579 1049.42C198.595 1052.44 195.172 1057.64 195.651 1065.31C195.788 1067.5 195.788 1069.63 195.651 1071.82C195.309 1075.72 193.802 1077.64 190.037 1077.23C180.794 1076.27 175.659 1080.45 171.619 1088.46C166.758 1098.12 160.048 1106.75 152.038 1114.21C141.083 1124.42 128.485 1130.51 113.217 1129.97C110.273 1129.9 107.398 1129.28 104.317 1128.94C102.81 1113.8 106.713 1100.45 115.271 1088.39C124.103 1076 136.427 1067.57 148.82 1059.29C154.64 1055.38 160.528 1051.48 166.073 1047.16C168.264 1045.45 169.634 1042.64 171.14 1040.66C163.266 1039.01 155.735 1038.12 148.683 1035.73C131.566 1029.9 122.049 1017.16 118.695 999.768C117.531 993.741 117.188 987.577 117.051 981.413C116.778 969.907 116.914 958.332 116.983 946.826C117.051 936.964 122.392 931.553 132.182 931.553C138.55 931.553 144.986 931.553 151.353 931.553C160.254 931.622 166.005 937.101 166.073 946.004C166.21 955.593 165.936 965.181 166.21 974.77C166.279 978.468 166.758 982.304 167.785 985.865C168.949 990.043 172.167 992.645 176.549 992.919C179.493 993.125 180.109 994.563 180.246 997.029C180.314 998.33 180.725 999.631 180.931 1000.93C181.273 1000.93 181.547 1001 181.889 1001C182.437 997.988 182.985 994.974 183.601 991.96C185.86 980.317 188.462 968.743 190.174 957.031C190.79 952.853 189.763 948.196 188.462 944.087C186.066 936.005 180.314 929.909 174.837 923.814C163.403 910.938 151.627 898.336 140.398 885.255C128.006 870.803 121.433 853.681 120.064 834.71C119.105 821.08 118.421 807.314 121.159 793.753C125.404 772.795 138.276 759.851 159.021 755.399C175.043 751.906 191.338 752.386 207.29 755.81C224.886 759.577 235.225 771.083 238.237 788.685C239.538 796.15 239.606 803.89 240.154 811.492C240.36 813.957 240.154 816.423 240.154 819.3C243.03 816.492 245.495 814.094 247.959 811.697C248.507 811.903 248.986 812.177 249.466 812.519Z" fill="white"/>
</g>
</g>
<defs>
<filter id="filter0_d_983_222" x="44" y="0" width="231.085" height="1143.08" filterUnits="userSpaceOnUse" color-interpolation-filters="sRGB">
<feFlood flood-opacity="0" result="BackgroundImageFix"/>
<feColorMatrix in="SourceAlpha" type="matrix" values="0 0 0 0 0 0 0 0 0 0 0 0 0 0 0 0 0 0 127 0" result="hardAlpha"/>
<feOffset dx="13.0848" dy="13.0848"/>
<feComposite in2="hardAlpha" operator="out"/>
<feColorMatrix type="matrix" values="0 0 0 0 0 0 0 0 0 0 0 0 0 0 0 0 0 0 0.25 0"/>
<feBlend mode="normal" in2="BackgroundImageFix" result="effect1_dropShadow_983_222"/>
<feBlend mode="normal" in="SourceGraphic" in2="effect1_dropShadow_983_222" result="shape"/>
</filter>
<filter id="filter1_d_983_222" x="0.932053" y="5.73722" width="239.068" height="350.068" filterUnits="userSpaceOnUse" color-interpolation-filters="sRGB">
<feFlood flood-opacity="0" result="BackgroundImageFix"/>
<feColorMatrix in="SourceAlpha" type="matrix" values="0 0 0 0 0 0 0 0 0 0 0 0 0 0 0 0 0 0 127 0" result="hardAlpha"/>
<feOffset dx="-24.534" dy="3.2712"/>
<feGaussianBlur stdDeviation="12.267"/>
<feComposite in2="hardAlpha" operator="out"/>
<feColorMatrix type="matrix" values="0 0 0 0 0 0 0 0 0 0 0 0 0 0 0 0 0 0 0.6 0"/>
<feBlend mode="normal" in2="BackgroundImageFix" result="effect1_dropShadow_983_222"/>
<feBlend mode="normal" in="SourceGraphic" in2="effect1_dropShadow_983_222" result="shape"/>
</filter>
<filter id="filter2_d_983_222" x="40.9321" y="266.765" width="208.068" height="336.04" filterUnits="userSpaceOnUse" color-interpolation-filters="sRGB">
<feFlood flood-opacity="0" result="BackgroundImageFix"/>
<feColorMatrix in="SourceAlpha" type="matrix" values="0 0 0 0 0 0 0 0 0 0 0 0 0 0 0 0 0 0 127 0" result="hardAlpha"/>
<feOffset dx="-24.534" dy="3.2712"/>
<feGaussianBlur stdDeviation="12.267"/>
<feComposite in2="hardAlpha" operator="out"/>
<feColorMatrix type="matrix" values="0 0 0 0 0 0 0 0 0 0 0 0 0 0 0 0 0 0 0.6 0"/>
<feBlend mode="normal" in2="BackgroundImageFix" result="effect1_dropShadow_983_222"/>
<feBlend mode="normal" in="SourceGraphic" in2="effect1_dropShadow_983_222" result="shape"/>
</filter>
<filter id="filter3_d_983_222" x="44" y="513.737" width="189.587" height="339.068" filterUnits="userSpaceOnUse" color-interpolation-filters="sRGB">
<feFlood flood-opacity="0" result="BackgroundImageFix"/>
<feColorMatrix in="SourceAlpha" type="matrix" values="0 0 0 0 0 0 0 0 0 0 0 0 0 0 0 0 0 0 127 0" result="hardAlpha"/>
<feOffset dx="26" dy="3.2712"/>
<feGaussianBlur stdDeviation="12.267"/>
<feComposite in2="hardAlpha" operator="out"/>
<feColorMatrix type="matrix" values="0 0 0 0 0 0 0 0 0 0 0 0 0 0 0 0 0 0 0.6 0"/>
<feBlend mode="normal" in2="BackgroundImageFix" result="effect1_dropShadow_983_222"/>
<feBlend mode="normal" in="SourceGraphic" in2="effect1_dropShadow_983_222" result="shape"/>
</filter>
<filter id="filter4_d_983_222" x="54.9321" y="731.737" width="207.068" height="426.068" filterUnits="userSpaceOnUse" color-interpolation-filters="sRGB">
<feFlood flood-opacity="0" result="BackgroundImageFix"/>
<feColorMatrix in="SourceAlpha" type="matrix" values="0 0 0 0 0 0 0 0 0 0 0 0 0 0 0 0 0 0 127 0" result="hardAlpha"/>
<feOffset dx="-24.534" dy="3.2712"/>
<feGaussianBlur stdDeviation="12.267"/>
<feComposite in2="hardAlpha" operator="out"/>
<feColorMatrix type="matrix" values="0 0 0 0 0 0 0 0 0 0 0 0 0 0 0 0 0 0 0.6 0"/>
<feBlend mode="normal" in2="BackgroundImageFix" result="effect1_dropShadow_983_222"/>
<feBlend mode="normal" in="SourceGraphic" in2="effect1_dropShadow_983_222" result="shape"/>
</filter>
</defs>
</svg>
