<svg width="847" height="406" viewBox="0 0 847 406" fill="none" xmlns="http://www.w3.org/2000/svg">
<path d="M129.795 60.3621C119.664 60.6231 117.639 65.0834 114.633 69.595C108.191 79.2649 117.588 84.6123 128.022 92.6602C130.769 94.7789 152.599 107.222 142.527 110.044C125.889 114.705 107.695 117.404 91.2021 122.388C75.4749 127.141 45.6399 135.871 48.9341 147.685C52.1016 159.045 70.0479 169.672 81.8821 178.867C83.3451 180.004 90.1602 184.667 89.8894 187.052C89.6753 188.938 82.2429 194.473 81.357 195.169C60.3527 211.674 29.627 231.746 50.1155 251.919C56.5857 258.289 53.7062 263.554 50.1155 270.418C42.9796 284.061 32.5074 297.27 28.1283 311.273C27.0201 314.817 26.8736 316.614 27.0782 319.829C27.112 320.361 26.6996 321.183 27.9971 321.419C30.4009 321.856 33.0753 321.653 35.6105 321.791C45.7741 322.342 62.2664 323.409 71.3808 323.955C84.851 324.763 98.3588 325.406 111.811 326.289C118.003 326.696 122.814 326.123 125.331 329.536C131.908 338.45 127.357 349.165 130.648 358.452C131.708 361.444 133.55 360.726 137.802 360.143C158.8 357.263 180.939 355.462 202.516 354.393C223.08 353.375 254.81 350.986 271.563 359.466C276.079 361.753 275.619 365.569 283.508 364.945C291.822 364.288 299.906 362.415 307.399 360.549C321.627 357.005 326.64 359.067 339.493 363.863C359.334 371.266 376.785 379.868 401.123 373.096C412.88 369.825 424.21 368.995 437.747 370.154C476.001 373.429 506.529 385.634 542.104 392.407C571.168 397.941 593.215 394.396 615.613 383.885C624.823 379.562 643.74 368.342 652.105 363.66C653.774 362.726 672.128 352.448 676.915 350.741C691.003 345.717 717.809 353.553 731.653 355.408C749.651 357.82 772.547 361.521 778.647 348.644C785.797 333.55 774.864 318.605 772.608 303.731C771.553 296.772 782.681 294.506 793.611 292.638C794.146 292.547 801.404 292.126 801.75 291.116C802.481 288.98 800.707 286.07 799.846 284.352C797.845 280.358 787.638 262.776 786.588 260.813C777.731 244.25 764.333 223.515 783.504 207.445C792.496 199.908 807.032 198.011 818.421 192.26C823.815 189.536 813.855 183.928 811.463 182.249C801.78 175.451 795.354 172.097 784.685 165.61C782.091 164.033 770.171 157.378 768.933 154.179C767.54 150.578 774.036 144.548 776.546 142.071C813.362 105.743 759.947 160.235 795.974 124.282C798.625 121.637 809.696 112.884 802.012 109.536C795.598 106.742 785.449 106.077 778.253 103.99C755.152 97.2893 759.987 80.557 759.679 69.02C759.319 55.5998 759.596 55.1532 759.416 42.8771C759.373 39.9435 762.64 34.99 757.185 34.1516C751.39 33.2611 746.314 36.8842 740.973 38.3453C729.124 41.587 722.298 43.2107 708.944 44.7711C691.546 46.8041 670.893 47.4467 653.221 45.6842C649.056 45.2688 647.407 43.3725 643.967 42.9786C641.509 42.6971 636.607 44.2336 635.763 44.4329C622.25 47.6202 618.511 48.797 602.88 51.7042C574.896 56.909 546.488 60.8286 523.529 48.5251C519.771 46.511 510.416 36.0813 502.067 36.4852C496.971 36.7317 475.148 43.2411 474.633 43.3844C464.278 46.2627 435.135 54.6136 424.226 56.5742C408.553 59.3912 395.494 60.5905 380.645 55.8302C369.476 52.2492 354.213 41.2617 347.172 36.0117C336.747 28.2378 336.799 27.164 328.139 20.0486C327.717 19.7021 323.63 15.4588 320 16.0579C309.918 17.7217 296.715 27.0303 289.874 30.4652C278.057 36.3994 270.649 42.5438 255.679 36.5866C252.272 35.2306 245.304 30.6858 240.518 32.4944C228.365 37.0868 217.876 42.7388 205.404 47.1385C193.063 51.492 180.309 50.663 166.024 50.6219C161.751 50.6096 160.235 50.6072 156.179 50.4866C155.086 50.4542 152.825 49.8561 152.897 50.419C153.017 51.3407 157.102 53.7161 157.886 54.8156C161.264 59.5576 156.916 61.4258 147.647 62.1884C141.729 62.6752 137.252 63.1547 132.157 61.5796" stroke="url(#paint0_linear_2_4)" stroke-width="1.30473" stroke-linecap="round" stroke-dasharray="2.61 2.61"/>
<path d="M110.535 48.2884C99.7402 48.5666 97.5823 53.3211 94.3796 58.1302C87.5151 68.4381 97.5279 74.1381 108.647 82.717C111.574 84.9754 134.835 98.2395 124.103 101.247C106.373 106.216 86.987 109.093 69.412 114.406C52.6535 119.472 20.8622 128.778 24.3724 141.372C27.7476 153.481 46.8707 164.808 59.4809 174.611C61.0399 175.823 68.3019 180.793 68.0133 183.335C67.7851 185.345 59.8654 191.245 58.9214 191.987C36.5397 209.582 3.7993 230.978 25.6313 252.481C32.5257 259.271 29.4575 264.883 25.6313 272.201C18.0274 286.743 6.86853 300.823 2.20232 315.75C1.02145 319.528 0.865313 321.443 1.08332 324.871C1.11936 325.438 0.679885 326.314 2.06244 326.565C4.62395 327.031 7.47372 326.815 10.1752 326.962C21.0052 327.549 38.5789 328.687 48.291 329.269C62.6445 330.129 77.038 330.815 91.3723 331.757C97.9702 332.19 103.096 331.58 105.779 335.217C112.787 344.72 107.937 356.142 111.444 366.041C112.574 369.231 114.537 368.465 119.067 367.844C141.442 364.773 165.033 362.854 188.026 361.715C209.938 360.629 243.748 358.083 261.6 367.123C266.413 369.56 265.922 373.627 274.328 372.963C283.187 372.262 291.801 370.265 299.785 368.276C314.947 364.499 320.289 366.697 333.985 371.809C355.127 379.701 373.722 388.87 399.656 381.651C412.184 378.164 424.256 377.279 438.681 378.515C479.444 382.006 511.974 395.017 549.881 402.236C580.851 408.135 604.343 404.356 628.211 393.151C638.025 388.544 658.182 376.584 667.096 371.593C668.874 370.597 688.432 359.641 693.532 357.821C708.545 352.466 737.108 360.819 751.86 362.796C771.038 365.367 795.435 369.312 801.935 355.586C809.555 339.496 797.904 323.566 795.501 307.711C794.376 300.293 806.234 297.877 817.881 295.886C818.45 295.789 826.184 295.34 826.553 294.264C827.333 291.986 825.442 288.885 824.525 287.053C822.392 282.795 811.516 264.054 810.397 261.962C800.959 244.306 786.683 222.203 807.11 205.074C816.692 197.039 832.181 195.017 844.317 188.887C850.065 185.983 839.452 180.005 836.904 178.216C826.585 170.969 819.738 167.393 808.369 160.479C805.605 158.797 792.903 151.704 791.584 148.294C790.1 144.455 797.022 138.028 799.697 135.387C838.927 96.6624 782.009 154.75 820.398 116.425C823.223 113.605 835.021 104.275 826.833 100.706C819.998 97.7279 809.183 97.0189 801.515 94.794C776.9 87.6514 782.052 69.8154 781.723 57.5174C781.34 43.2119 781.635 42.7358 781.443 29.65C781.398 26.5229 784.879 21.2427 779.065 20.3489C772.891 19.3997 767.482 23.2618 761.791 24.8192C749.164 28.2748 741.891 30.0056 727.662 31.6689C709.122 33.836 687.115 34.521 668.285 32.6423C663.847 32.1995 662.09 30.1781 658.424 29.7582C655.805 29.4582 650.582 31.096 649.682 31.3084C635.282 34.706 631.299 35.9604 614.643 39.0593C584.824 44.6074 554.553 48.7857 530.089 35.6705C526.084 33.5236 516.115 22.4059 507.219 22.8364C501.789 23.0992 478.535 30.038 477.986 30.1908C466.952 33.2589 435.898 42.1607 424.274 44.2506C407.573 47.2534 393.657 48.5319 377.835 43.4575C365.933 39.6403 349.67 27.928 342.167 22.3317C331.059 14.0451 331.114 12.9004 321.886 5.31567C321.436 4.94626 317.082 0.423074 313.213 1.06167C302.47 2.83525 288.401 12.7579 281.112 16.4194C268.519 22.7451 260.626 29.2947 244.675 22.9446C241.044 21.4991 233.619 16.6546 228.519 18.5824C215.569 23.4778 204.392 29.5025 191.103 34.1924C177.953 38.8332 164.362 37.9495 149.141 37.9057C144.587 37.8926 142.971 37.89 138.65 37.7615C137.485 37.7269 135.075 37.0894 135.153 37.6894C135.28 38.6718 139.634 41.204 140.468 42.376C144.068 47.4308 139.435 49.4222 129.558 50.2351C123.253 50.7541 118.482 51.2652 113.053 49.5862" stroke="url(#paint1_linear_2_4)" stroke-width="1.30473" stroke-linecap="round" stroke-dasharray="2.61 2.61"/>
<defs>
<linearGradient id="paint0_linear_2_4" x1="684" y1="230" x2="193" y2="171" gradientUnits="userSpaceOnUse">
<stop offset="0.0424746" stop-color="#FCFF00" stop-opacity="0"/>
<stop offset="0.536458" stop-color="#FCFF00"/>
<stop offset="0.971634" stop-color="#FCFF00" stop-opacity="0"/>
</linearGradient>
<linearGradient id="paint1_linear_2_4" x1="701.082" y1="229.116" x2="177.88" y2="166.27" gradientUnits="userSpaceOnUse">
<stop offset="0.0424746" stop-color="#FCFF00" stop-opacity="0"/>
<stop offset="0.536458" stop-color="#FCFF00"/>
<stop offset="0.971634" stop-color="#FCFF00" stop-opacity="0"/>
</linearGradient>
</defs>
</svg>
