<svg width="143" height="175" viewBox="0 0 143 175" fill="none" xmlns="http://www.w3.org/2000/svg">
<path fill-rule="evenodd" clip-rule="evenodd" d="M-165.122 30.857C-165.887 30.5804 -166.643 30.3064 -167.399 30.0324C-169.666 29.2105 -171.934 28.3885 -174.459 27.4942C-174.237 26.122 -173.973 24.7416 -173.708 23.3612C-173.443 21.9808 -173.179 20.6004 -172.957 19.2283C-172.24 14.9219 -173.99 12.9546 -176.344 11.9649C-178.982 10.8135 -181.345 12.198 -182.383 15.5947C-183.996 21.0423 -185.284 26.4996 -186.572 31.957L-186.572 31.957C-188.372 39.2373 -190.172 46.5177 -191.896 53.8194L-191.912 53.8936C-192.173 55.1086 -192.449 56.3949 -192.485 57.67C-192.601 60.4241 -190.415 62.596 -186.756 63.6248C-183.63 64.5036 -180.742 63.5943 -180.157 61.2182C-179.315 57.5878 -178.703 53.8495 -178.08 50.0401L-178.08 50.04C-177.844 48.6013 -177.607 47.1523 -177.355 45.6952C-178.129 45.4394 -178.915 45.1622 -179.717 44.8793C-180.631 44.5569 -181.567 44.2269 -182.53 43.9125C-182.318 42.8912 -182.108 41.9005 -181.899 40.9189L-181.899 40.9186L-181.899 40.9184C-181.427 38.6989 -180.965 36.5255 -180.525 34.1488C-177.242 35.3451 -174.027 36.5223 -170.811 37.6996L-170.81 37.6999C-169.203 38.2884 -167.596 38.8769 -165.98 39.4677C-165.979 39.6591 -165.972 39.8612 -165.965 40.0633L-165.965 40.0635L-165.965 40.0636L-165.965 40.0637L-165.965 40.0638L-165.965 40.0639C-165.951 40.4686 -165.936 40.8733 -165.971 41.1915C-166.251 43.6088 -166.499 46.0352 -166.747 48.4669C-167.266 53.5413 -167.787 58.6392 -168.606 63.7282C-169.726 70.0523 -174.892 74.0912 -182.875 73.8137C-190.051 74.1732 -199.336 70.3333 -203.314 64.2968C-205.473 61.1491 -206.329 57.4659 -205.432 54.2756C-201.478 40.7979 -197.372 27.363 -193.135 14.047C-192.439 11.8417 -191.233 9.78012 -190.058 7.77249C-189.95 7.5868 -189.841 7.40158 -189.733 7.21675C-187.059 2.96909 -183.274 0.918579 -178.913 0.915181C-175.205 0.892231 -171.644 1.97557 -168.674 4.28589C-163.618 8.24812 -163.15 14.773 -163.886 21.7789C-164.028 23.3348 -164.265 24.8427 -164.505 26.3722L-164.505 26.3723L-164.505 26.3726L-164.505 26.3729C-164.734 27.828 -164.966 29.3027 -165.122 30.857ZM-93.2678 121.639L-93.0214 121.698C-91.7192 121.163 -90.786 120.769 -89.9077 120.278C-83.0857 116.787 -78.9288 113.12 -76.5894 109.188C-72.9018 103.094 -73.773 96.5377 -76.3213 89.5101C-77.7669 85.8775 -79.3959 82.3193 -81.0208 78.7702L-81.0209 78.7698C-82.8636 74.7449 -84.7009 70.7317 -86.2593 66.635C-86.6637 65.5617 -87.0287 64.437 -87.3934 63.3134C-87.9631 61.5578 -88.5321 59.8047 -89.2496 58.2536C-93.0541 50.1351 -96.209 41.4616 -97.702 32.4357C-97.7385 31.6878 -98.2965 31.0391 -98.8636 30.7157C-100.813 29.5255 -102.862 28.3905 -104.932 27.244C-105.769 26.7805 -106.609 26.3152 -107.447 25.8435C-108.686 25.1372 -109.921 24.4189 -111.165 23.6954L-111.165 23.6954L-111.166 23.6954C-113.054 22.5971 -114.964 21.487 -116.936 20.3889C-118.199 22.2468 -118.943 23.431 -119.611 24.6365C-120.398 25.9726 -121.087 27.2541 -121.679 28.4811C-123.714 32.499 -122.933 36.1608 -120.201 38.732C-119.472 39.4289 -118.707 39.9976 -117.941 40.5663L-117.941 40.5663L-117.941 40.5665C-117.686 40.756 -117.431 40.9455 -117.177 41.1398C-114.241 43.2767 -111.64 45.7292 -109.423 49.5489C-108.359 51.3234 -107.24 53.1953 -107.186 55.3417C-107.107 59.4221 -106.787 63.5894 -106.464 67.7854L-106.464 67.7857C-106.116 72.3182 -105.765 76.8841 -105.714 81.4101C-103.339 96.1853 -122.551 105.341 -133.466 110.543L-133.469 110.544C-133.967 110.781 -134.449 111.011 -134.91 111.232C-133.011 111.685 -131.118 112.157 -129.234 112.626L-129.233 112.626C-127.292 113.109 -125.361 113.59 -123.444 114.046C-123.066 113.879 -122.688 113.713 -122.309 113.547C-115.626 110.611 -108.818 107.621 -103.277 102.586C-101.507 103.023 -99.777 103.437 -98.0771 103.844C-95.1956 104.534 -92.4021 105.203 -89.6557 105.924C-89.1983 106.052 -89.0307 106.919 -89.4089 107.387C-91.9892 111.005 -96.4845 114.413 -102.992 117.665C-103.773 118.101 -104.313 118.851 -103.856 118.98C-100.574 119.902 -96.9606 120.761 -93.2682 121.639L-93.2678 121.639ZM-98.6199 54.7174C-98.4888 54.8363 -98.4126 54.8577 -98.2601 54.9006C-96.7044 60.547 -94.7677 66.022 -92.8336 71.4899L-92.8335 71.4901C-89.9592 79.6159 -87.0905 87.7259 -85.4858 96.3591C-87.3599 95.9169 -89.208 95.4601 -91.078 94.998L-91.0796 94.9975L-91.0801 94.9975L-91.0806 94.9973L-91.0811 94.9972L-91.0817 94.9971L-91.0821 94.997L-91.0826 94.9969L-91.0831 94.9967L-91.0837 94.9966C-92.8295 94.5651 -94.5944 94.1288 -96.4176 93.6953C-95.2853 84.681 -96.3149 76.0113 -97.3615 67.1984C-97.8499 63.0858 -98.3421 58.942 -98.6199 54.7174ZM80.6839 124.792C80.1593 120.836 79.634 116.874 79.1514 112.898C73.9252 109.543 68.5189 107.122 63.1918 105.296C59.4229 104.072 55.6448 103.174 52.1076 102.589C47.0792 101.749 42.1392 101.18 37.5377 100.87C31.9573 100.53 26.6178 100.504 21.757 100.531C20.4305 100.568 19.7536 100.05 19.333 98.62C17.4737 92.3598 17.2094 85.4006 22.4949 79.1822C23.7825 77.7321 25.1741 76.0612 26.4937 74.4767L26.494 74.4764L26.4972 74.4726C27.0267 73.8367 27.5447 73.2149 28.0396 72.6268C31.3793 68.648 30.4648 66.3418 26.1287 64.7948C21.564 63.1835 14.7639 62.5011 6.27391 65.1957C0.574295 67.0357 -3.25007 69.8127 -5.20214 72.9522C-9.08942 86.1933 -6.87258 91.1643 -1.28069 103.704L-1.26961 103.728C-0.73004 105.028 0.0168594 106.467 0.785115 107.831C4.5075 114.778 8.66945 118.408 14.1093 121.003C15.2649 121.573 16.6371 121.959 17.8446 122.053C21.6411 122.301 24.4469 120.221 26.7098 118.316C30.2506 115.377 33.4467 113.079 38.1734 112.359C38.3515 112.336 38.5301 112.311 38.7098 112.287C40.3392 112.061 42.0652 111.822 44.4491 112.567C45.4977 115.566 46.4913 118.468 47.3783 121.75C48.7315 126.885 49.5998 132.866 49.358 138.7C49.0247 145.737 48.7951 151.819 53.6432 155.641C57.2899 158.47 62.2877 159.711 68.0268 159.194C72.9943 158.787 77.5626 156.875 79.9235 152.867C81.7993 149.706 82.989 146.352 82.9163 142.807C82.2756 136.797 81.4808 130.803 80.6843 124.796L80.6842 124.795L80.6842 124.795L80.6841 124.794L80.6841 124.794L80.684 124.793L80.6839 124.792ZM14.4962 105.579C14.6543 105.962 14.8265 106.379 15.0474 106.841C17.8635 107.859 19.7896 107.586 21.6111 107.328C21.7698 107.306 21.9277 107.284 22.0854 107.262C27.1903 106.075 32.655 105.07 38.8942 104.53C46.3074 103.909 54.9522 105.93 61.8374 108.358C62.9195 108.662 63.9966 109.148 65.1447 109.666C65.5334 109.841 65.9302 110.02 66.3381 110.197C66.3883 110.456 66.4195 110.711 66.4507 110.965L66.4508 110.966L66.451 110.967C66.4822 111.222 66.5134 111.476 66.5635 111.735C67.0453 114.384 67.5555 117.047 68.0685 119.725L68.0697 119.731C69.38 126.57 70.7085 133.504 71.6277 140.535C71.6336 141.684 71.4871 142.79 71.1119 143.832C70.0503 146.73 67.4765 147.4 63.8479 145.97C61.7012 145.121 60.2623 142.339 60.3237 139.488C60.474 132.809 58.7642 126.017 57.225 120.667C56.8402 119.283 56.4413 117.95 56.0486 116.637L56.0473 116.632L56.0459 116.628L56.0446 116.623L56.0435 116.62L56.0426 116.617L56.0425 116.616C55.3516 114.307 54.6794 112.06 54.1344 109.716C50.1368 108.428 46.7093 108.038 43.3916 107.843C36.0273 107.412 30.9467 109.098 26.3814 111.585C24.6646 112.492 22.7628 113.294 20.8141 114.116L20.8138 114.116L20.8119 114.117L20.8062 114.119C20.3449 114.314 19.8809 114.51 19.4161 114.708C18.8519 114.959 17.806 114.583 16.9339 114.174C14.9824 113.216 13.0523 112.181 11.1436 111.071C9.00607 109.896 7.77743 107.829 6.98484 105.967L6.86548 105.695C1.3426 93.0931 -0.72864 88.367 3.82384 75.0801C6.50175 71.407 11.6066 70.2195 14.3905 72.3136C15.8205 73.3714 14.9817 75.1846 13.2096 77.3912C8.36554 89.0613 9.41085 93.5353 14.1999 104.881C14.2989 105.101 14.3946 105.333 14.4962 105.579ZM24.1112 96.8462C23.1483 91.4938 23.8809 85.9623 28.4558 81.1014C29.5049 80.003 30.9566 78.9358 32.6918 78.0303C40.6757 74.2098 50.5316 72.8008 58.9934 75.1799C66.9216 77.409 64.8536 81.2535 60.0255 87.6006C59.2691 88.5354 58.4151 89.5248 57.5825 90.4381C56.6523 91.406 56.9815 91.9904 58.0823 92.4638C59.4514 93.0763 60.822 93.7187 62.2043 94.3667C64.8059 95.5862 67.4491 96.8253 70.203 97.9207C82.4305 102.998 93.6331 109.672 103.488 118.508C111.177 125.096 118.284 132.586 123.083 141.558C123.214 141.864 123.386 142.147 123.568 142.444C123.662 142.598 123.758 142.755 123.851 142.921C126.482 151.119 128.646 159.514 121.494 166.519C119.646 168.704 116.791 169.787 113.705 170.231C108 170.921 102.48 169.779 97.8211 166.748C91.482 162.671 90.0833 155.065 90.0661 147.52C89.7168 143.59 89.3172 139.66 88.9173 135.727L88.9172 135.726L88.9172 135.725L88.9171 135.724L88.9171 135.723L88.917 135.723L88.917 135.722L88.917 135.721L88.9167 135.718C88.2989 129.641 87.6806 123.558 87.2465 117.466C87.207 116.144 86.6034 115.072 84.902 114.102C83.4511 113.322 82.015 112.515 80.5854 111.712C77.2983 109.866 74.0456 108.039 70.7263 106.592C66.7427 104.801 62.7716 103.692 58.8177 102.587L58.8173 102.587C58.4223 102.476 58.0274 102.366 57.6327 102.255C50.3357 100.121 42.2397 99.0745 34.6467 98.5789C33.9724 98.5121 33.3066 98.4563 32.6462 98.4009L32.6456 98.4009L32.6451 98.4009L32.6445 98.4008L32.644 98.4008L32.6434 98.4007C29.7777 98.1605 27.0149 97.929 24.1112 96.8462ZM33.2691 92.946C33.6296 93.0736 33.9935 93.2192 34.3625 93.3668C35.1425 93.6788 35.9456 94 36.788 94.1812C38.6504 94.6642 40.566 95.1018 42.4914 95.5415C44.4498 95.9888 46.4182 96.4384 48.351 96.9405C56.8555 99.1677 65.1984 101.677 73.5442 104.761C82.2193 108.43 89.9244 113.793 97.0653 119.407C99.4132 121.297 100.706 123.135 100.641 125.412C100.413 131.792 100.841 138.243 101.264 144.628L101.265 144.629C101.353 145.959 101.441 147.286 101.523 148.61C101.507 149.835 101.623 151.179 101.934 152.414C102.479 154.862 103.199 157.277 108.065 158.4C110.624 158.955 112.664 158.135 113.423 155.726C113.841 154.532 114.052 153.198 114.089 151.897C114.2 149.732 114.183 147.531 114.166 145.403L114.166 145.403C114.144 142.607 114.124 139.937 114.396 137.64C114.643 135.004 114.479 132.663 111.713 129.919C111.079 129.249 110.445 128.578 109.887 127.93C103.432 120.46 95.5718 114.479 87.388 109.064C76.5146 102.974 65.4336 98.7928 53.6359 94.82C52.1159 94.2978 50.65 93.6808 49.1946 93.0682C48.1362 92.6228 47.0832 92.1796 46.0189 91.7768C44.8968 91.3794 44.97 90.8262 45.4123 90.131C46.0542 89.1219 46.9192 88.0893 47.779 87.0629C48.1041 86.6748 48.4285 86.2876 48.7398 85.9028C50.7284 83.5113 50.1674 82.2881 47.6396 81.3314C45.3191 80.5151 41.1901 81.1574 39.22 82.8984C35.6913 86.0864 34.0228 89.3876 33.2691 92.946ZM-86.0627 122.547C-86.4528 122.704 -86.8696 122.872 -87.3177 123.057C-79.9353 124.887 -72.5316 126.641 -65.2498 127.951C-61.8101 128.59 -56.8304 128.433 -51.3992 127.255C-48.2491 126.583 -44.9037 125.803 -42.6195 123.822C-40.2376 121.787 -38.5632 119.635 -37.7914 117.475C-35.1526 110.43 -39.454 100.861 -44.3842 95.8682C-47.1648 92.2997 -50.4241 88.6785 -53.8451 85.3397L-54.0134 85.1735C-55.6833 83.5236 -57.1783 82.0466 -58.4734 79.8583C-64.9822 68.1928 -69.6799 57.6921 -68.9616 45.1898C-68.6591 40.603 -68.8323 36.5381 -73.9034 35.85C-77.462 35.3412 -80.9444 34.8539 -84.6005 34.3996C-84.9087 35.7883 -85.1528 36.9491 -85.2994 38.0554C-86.4262 49.3773 -81.9999 59.9656 -75.8841 69.2257C-73.5822 72.7416 -71.7165 76.053 -70.36 79.7129C-63.1875 99.8433 -64.7168 111.134 -83.1946 121.266C-83.9961 121.714 -84.9132 122.083 -86.0627 122.547ZM-60.1099 116.691C-54.3824 111.827 -52.0421 101.747 -55.0571 94.9165C-54.5789 94.9018 -54.1198 94.8742 -53.6721 94.8472L-53.6718 94.8472C-52.6436 94.7854 -51.6756 94.7271 -50.675 94.8372C-50.0438 94.9327 -48.9644 95.482 -48.4064 96.1307C-42.9245 102.672 -40.0193 109.308 -45.6738 115.669C-47.7386 118.039 -50.1386 118.675 -52.8922 118.229C-54.5563 117.93 -56.1645 117.569 -57.8111 117.2L-57.8115 117.2L-57.8119 117.2L-57.8122 117.2L-57.8126 117.199L-57.8129 117.199L-57.8133 117.199C-58.5677 117.03 -59.3302 116.859 -60.1099 116.691ZM-64.1935 75.6273C-62.605 77.8771 -62.401 79.4917 -63.6361 80.3739C-70.4807 71.0728 -76.9991 61.7815 -79.2663 50.2429C-75.433 49.1897 -75.1921 49.5033 -74.3022 53.3599C-72.6749 61.0301 -68.7393 69.2675 -64.1935 75.6273ZM-16.3287 75.9692C-15.0278 76.3149 -13.6979 76.6684 -12.272 77.0292C-11.7914 74.3345 -10.4459 71.8829 -9.10035 69.4313C-8.84806 68.9717 -8.59577 68.512 -8.34918 68.0507L-8.28316 67.9441C-3.65445 60.4716 -1.04087 56.2522 -8.69483 53.7739C-18.2696 50.6721 -31.2302 55.2244 -36.0129 64.0431C-38.4725 76.3017 -36.857 81.6737 -31.9582 93.2144C-31.9011 93.3368 -31.8448 93.4619 -31.7878 93.5883C-31.5374 94.144 -31.2745 94.7273 -30.8821 95.2382C-26.9277 100.776 -23.1259 106.271 -20.0985 111.302C-17.312 116.02 -14.8118 117.952 -10.411 115.173C-10.0969 114.934 -9.72792 114.792 -9.38029 114.726C-5.0042 113.497 -3.68632 109.688 -5.32014 104.966C-6.21571 102.413 -7.3183 99.9478 -8.41804 97.4888L-8.4181 97.4886L-8.41819 97.4885L-8.4183 97.4882C-10.1782 93.553 -11.9307 89.6341 -12.8159 85.4004C-12.8662 85.1404 -12.9112 84.8614 -12.9561 84.5824L-12.9561 84.5822C-13.0011 84.3032 -13.046 84.0243 -13.0963 83.7643C-15.0765 83.2871 -17.0159 82.802 -18.9366 82.3216L-18.9371 82.3215C-20.9765 81.8114 -22.995 81.3066 -25.0191 80.8219C-24.7643 83.574 -23.7054 86.1731 -22.586 88.9205L-22.586 88.9207L-22.4526 89.248C-21.7564 89.4028 -21.0792 89.5523 -20.402 89.7017L-20.4005 89.7021C-19.7227 89.8516 -19.045 90.0012 -18.3483 90.1561C-17.6225 91.9443 -16.8173 93.6757 -16.0247 95.3801C-15.0129 97.5559 -14.0216 99.6876 -13.2421 101.837C-11.9405 105.4 -13.0751 106.802 -15.917 106.085C-18.4541 105.453 -20.1828 103.41 -21.6033 99.9781C-22.4914 97.8706 -23.4473 95.7441 -24.4031 93.6176C-24.8811 92.5542 -25.359 91.4909 -25.8285 90.4299C-29.865 83.7215 -30.8241 72.7967 -26.9229 65.9431C-24.9616 62.4784 -20.2928 61.0863 -17.8261 62.8454C-16.0576 64.1622 -16.6891 66.1157 -18.2935 69.189C-19.2299 71.0568 -20.0139 72.9674 -20.3953 74.9092C-19.0201 75.254 -17.6902 75.6074 -16.3287 75.9692ZM-124.653 101.658C-128.258 104.824 -132.582 107.625 -138.505 110.549C-139.609 110.266 -140.758 110.008 -141.904 109.749L-141.904 109.749L-141.904 109.749L-141.904 109.749L-141.904 109.749C-144.179 109.237 -146.442 108.727 -148.326 108.034C-149.111 107.752 -148.907 106.918 -148.703 106.084C-148.636 105.806 -148.568 105.528 -148.536 105.27C-148.002 101.322 -147.492 96.8755 -147.473 92.1269C-147.519 89.6553 -147.967 87.1524 -148.86 84.7703C-149.18 83.8607 -150.424 83.0191 -151.644 82.6762C-155.559 81.4956 -159.586 80.4389 -163.828 79.3259L-164.167 79.237C-160.094 67.3942 -159.212 54.9088 -158.328 42.3834L-158.328 42.3833C-157.55 31.3539 -156.769 20.2934 -153.805 9.61328C-152.41 10.0442 -151.003 10.4968 -149.571 10.9574C-147.973 11.4716 -146.344 11.9957 -144.666 12.5106C-149.126 27.7142 -149.343 42.7761 -149.566 58.1571L-149.566 58.1572L-149.566 58.1573L-149.566 58.1574C-149.64 63.3057 -149.715 68.4896 -149.95 73.7266C-149.845 73.7665 -149.745 73.8053 -149.647 73.8429L-149.644 73.844C-148.981 74.0994 -148.473 74.2953 -147.989 74.3598C-143.409 74.746 -140.912 78.1528 -140.352 81.4251C-139.632 85.8893 -139.273 90.1704 -139.524 94.2801C-139.674 96.8608 -138.979 98.7774 -134.865 99.3602C-132.092 99.635 -129.581 100.322 -126.996 101.029L-126.996 101.029L-126.996 101.03L-126.995 101.03C-126.224 101.241 -125.446 101.454 -124.653 101.658ZM-29.1521 105.476C-26.0242 111.028 -25.0613 116.38 -26.044 121.923C-25.7624 121.766 -25.4901 121.616 -25.226 121.471C-24.2085 120.913 -23.3137 120.422 -22.4881 119.808C-21.9574 119.384 -21.4511 118.461 -21.4754 117.962C-21.9687 112.987 -24.0173 107.985 -27.4898 103.075C-28.8892 101.238 -30.3603 99.4084 -31.8415 97.5665L-31.8417 97.5663L-31.8419 97.566C-37.9283 89.9977 -44.1875 82.2146 -46.3615 72.7702C-48.5222 62.9009 -43.9593 55.7416 -38.5943 48.0702C-37.9233 47.4392 -37.4078 46.1908 -37.7889 46.0836C-40.2836 45.1627 -42.885 44.3587 -45.5087 43.5479C-46.8039 43.1476 -48.1046 42.7456 -49.4006 42.3271C-54.0484 45.6922 -57.1745 48.9114 -59.3431 52.2359C-60.6699 54.3218 -62.0607 56.6355 -61.9848 58.7059C-61.6229 65.6106 -58.3398 73.8284 -54.2116 79.3331C-52.4227 81.8724 -50.5263 84.3716 -48.6237 86.879C-43.7108 93.3539 -38.7566 99.883 -35.5043 107.297C-33.6266 112.906 -33.7494 118.609 -39.0928 124.156C-40.8556 126.037 -42.9996 127.811 -45.9364 129.772C-43.2102 129.145 -41.0054 128.618 -38.9103 127.895C-37.9009 127.523 -36.5347 126.76 -36.0375 126.162C-32.1794 121.509 -30.779 116.821 -31.1839 112.118C-31.4275 109.18 -30.982 107.011 -29.1521 105.476ZM-39.3373 95.7686C-39.4761 95.7501 -39.6148 95.7316 -39.7292 95.6994C-46.4214 86.4412 -52.0098 78.2309 -56.6526 67.8277C-56.9326 66.9702 -56.7767 66.0298 -56.6269 65.1262L-56.6268 65.1255C-56.5874 64.8881 -56.5485 64.6532 -56.518 64.4231C-56.1609 61.9826 -55.325 59.5948 -54.0866 57.2382C-53.9886 57.0671 -53.8145 56.9475 -53.5962 56.7975L-53.5961 56.7974L-53.596 56.7973C-53.454 56.6998 -53.2934 56.5894 -53.1229 56.4437C-54.8373 61.3712 -54.9112 66.0223 -53.7561 70.6911C-53.1557 73.2369 -51.6313 75.7145 -50.0094 78.1377C-46.7655 82.9839 -43.0336 87.5576 -39.3566 92.0339C-38.075 93.5877 -38.3893 94.1343 -38.7052 94.6835C-38.8883 95.0019 -39.0719 95.3211 -38.9455 95.8378C-39.0599 95.8056 -39.1986 95.7871 -39.3373 95.7686ZM130.933 151.207L130.933 151.206C131.454 151.01 132.034 150.792 132.644 150.557C134.201 155.257 135.475 159.795 136.576 164.367C139.224 163.533 138.913 161.661 138.644 160.036C138.619 159.888 138.595 159.743 138.574 159.601C137.882 154.161 135.331 148.608 131.51 143.763C123.495 133.275 113.014 124.608 102.854 116.206L102.691 116.071C95.0655 109.255 86.4029 103.787 77.1699 99.47C73.7424 97.8409 70.5042 96.1758 67.3071 94.5317C66.1724 93.9482 65.0429 93.3674 63.9119 92.7918C62.549 92.0807 62.5887 91.3542 64.0952 90.3844C65.5042 89.4692 66.9131 88.5539 68.627 87.7244C76.1565 84.3498 84.9603 83.4646 92.922 85.8671C100.176 88.1526 99.3309 92.9146 95.247 98.0775C94.8475 98.6209 95.3627 99.4215 95.7895 99.9513C98.1738 102.589 101.037 105.279 104.205 108.055C101.607 108.226 99.9509 107.678 98.4112 106.426C97.0079 105.334 95.6134 104.269 94.2429 103.223C91.2628 100.947 88.3962 98.7586 85.8001 96.5689C85.7488 96.5224 85.6949 96.4752 85.6403 96.4274L85.6387 96.426C85.2756 96.1079 84.8851 95.7659 85.044 95.4548C86.197 93.402 84.9408 92.3111 82.5776 91.6467C79.9094 90.8965 77.5308 91.4572 73.9963 93.496C77.8809 96.0636 81.9942 98.6954 86.51 101.358C96.3452 107.296 105.128 114.713 113.894 122.116L113.894 122.117L113.903 122.124C115.1 123.135 116.296 124.145 117.495 125.151C125.675 132.041 133.426 139.876 138.38 149.465C141.654 155.959 143.025 162.492 141.241 168.547C140.566 170.653 139.761 172.639 137.593 173.915C135.501 175.212 134.205 174.847 133.659 172.399C133.229 170.42 132.952 168.412 132.676 166.403C132.538 165.399 132.4 164.395 132.243 163.394C132.051 162.45 131.862 161.495 131.67 160.529L131.67 160.527C131.105 157.673 130.52 154.723 129.789 151.64C130.121 151.512 130.507 151.367 130.933 151.207ZM42.927 131.728C42.9095 126.232 41.3032 120.534 39.581 115.542C32.676 116.699 27.5068 122.08 22.8378 126.94C22.1952 127.609 21.562 128.268 20.935 128.905C18.8367 131.102 16.8603 133.743 15.3229 137.163C13.8069 140.507 12.8002 143.502 13.367 145.875C13.6248 146.862 15.1764 147.291 16.4959 147.657C16.5959 147.685 16.6946 147.712 16.7913 147.739C18.0659 148.18 19.6759 148.304 21.3836 148.375C27.333 148.572 33.7949 146.947 38.2965 142.639C41.6726 139.408 42.8929 135.653 42.927 131.728ZM26.9114 132.225C28.528 129.401 30.6322 128.353 33.2395 127.857C32.8916 129.972 32.3699 132.12 31.348 134.292C30.8631 135.139 29.7682 135.815 28.8015 136.035C28.0087 136.222 26.4199 136.021 26.3529 135.674C26.2494 134.58 26.4264 133.072 26.9114 132.225Z" fill="white"/>
<path fill-rule="evenodd" clip-rule="evenodd" d="M-165.122 30.857C-165.887 30.5804 -166.643 30.3064 -167.399 30.0324C-169.666 29.2105 -171.934 28.3885 -174.459 27.4942C-174.237 26.122 -173.973 24.7416 -173.708 23.3612C-173.443 21.9808 -173.179 20.6004 -172.957 19.2283C-172.24 14.9219 -173.99 12.9546 -176.344 11.9649C-178.982 10.8135 -181.345 12.198 -182.383 15.5947C-183.996 21.0423 -185.284 26.4996 -186.572 31.957L-186.572 31.957C-188.372 39.2373 -190.172 46.5177 -191.896 53.8194L-191.912 53.8936C-192.173 55.1086 -192.449 56.3949 -192.485 57.67C-192.601 60.4241 -190.415 62.596 -186.756 63.6248C-183.63 64.5036 -180.742 63.5943 -180.157 61.2182C-179.315 57.5878 -178.703 53.8495 -178.08 50.0401L-178.08 50.04C-177.844 48.6013 -177.607 47.1523 -177.355 45.6952C-178.129 45.4394 -178.915 45.1622 -179.717 44.8793C-180.631 44.5569 -181.567 44.2269 -182.53 43.9125C-182.318 42.8912 -182.108 41.9005 -181.899 40.9189L-181.899 40.9186L-181.899 40.9184C-181.427 38.6989 -180.965 36.5255 -180.525 34.1488C-177.242 35.3451 -174.027 36.5223 -170.811 37.6996L-170.81 37.6999C-169.203 38.2884 -167.596 38.8769 -165.98 39.4677C-165.979 39.6591 -165.972 39.8612 -165.965 40.0633L-165.965 40.0635L-165.965 40.0636L-165.965 40.0637L-165.965 40.0638L-165.965 40.0639C-165.951 40.4686 -165.936 40.8733 -165.971 41.1915C-166.251 43.6088 -166.499 46.0352 -166.747 48.4669C-167.266 53.5413 -167.787 58.6392 -168.606 63.7282C-169.726 70.0523 -174.892 74.0912 -182.875 73.8137C-190.051 74.1732 -199.336 70.3333 -203.314 64.2968C-205.473 61.1491 -206.329 57.4659 -205.432 54.2756C-201.478 40.7979 -197.372 27.363 -193.135 14.047C-192.439 11.8417 -191.233 9.78012 -190.058 7.77249C-189.95 7.5868 -189.841 7.40158 -189.733 7.21675C-187.059 2.96909 -183.274 0.918579 -178.913 0.915181C-175.205 0.892231 -171.644 1.97557 -168.674 4.28589C-163.618 8.24812 -163.15 14.773 -163.886 21.7789C-164.028 23.3348 -164.265 24.8427 -164.505 26.3722L-164.505 26.3723L-164.505 26.3726L-164.505 26.3729C-164.734 27.828 -164.966 29.3027 -165.122 30.857ZM-93.2678 121.639L-93.0214 121.698C-91.7192 121.163 -90.786 120.769 -89.9077 120.278C-83.0857 116.787 -78.9288 113.12 -76.5894 109.188C-72.9018 103.094 -73.773 96.5377 -76.3213 89.5101C-77.7669 85.8775 -79.3959 82.3193 -81.0208 78.7702L-81.0209 78.7698C-82.8636 74.7449 -84.7009 70.7317 -86.2593 66.635C-86.6637 65.5617 -87.0287 64.437 -87.3934 63.3134C-87.9631 61.5578 -88.5321 59.8047 -89.2496 58.2536C-93.0541 50.1351 -96.209 41.4616 -97.702 32.4357C-97.7385 31.6878 -98.2965 31.0391 -98.8636 30.7157C-100.813 29.5255 -102.862 28.3905 -104.932 27.244C-105.769 26.7805 -106.609 26.3152 -107.447 25.8435C-108.686 25.1372 -109.921 24.4189 -111.165 23.6954L-111.165 23.6954L-111.166 23.6954C-113.054 22.5971 -114.964 21.487 -116.936 20.3889C-118.199 22.2468 -118.943 23.431 -119.611 24.6365C-120.398 25.9726 -121.087 27.2541 -121.679 28.4811C-123.714 32.499 -122.933 36.1608 -120.201 38.732C-119.472 39.4289 -118.707 39.9976 -117.941 40.5663L-117.941 40.5663L-117.941 40.5665C-117.686 40.756 -117.431 40.9455 -117.177 41.1398C-114.241 43.2767 -111.64 45.7292 -109.423 49.5489C-108.359 51.3234 -107.24 53.1953 -107.186 55.3417C-107.107 59.4221 -106.787 63.5894 -106.464 67.7854L-106.464 67.7857C-106.116 72.3182 -105.765 76.8841 -105.714 81.4101C-103.339 96.1853 -122.551 105.341 -133.466 110.543L-133.469 110.544C-133.967 110.781 -134.449 111.011 -134.91 111.232C-133.011 111.685 -131.118 112.157 -129.234 112.626L-129.233 112.626C-127.292 113.109 -125.361 113.59 -123.444 114.046C-123.066 113.879 -122.688 113.713 -122.309 113.547C-115.626 110.611 -108.818 107.621 -103.277 102.586C-101.507 103.023 -99.777 103.437 -98.0771 103.844C-95.1956 104.534 -92.4021 105.203 -89.6557 105.924C-89.1983 106.052 -89.0307 106.919 -89.4089 107.387C-91.9892 111.005 -96.4845 114.413 -102.992 117.665C-103.773 118.101 -104.313 118.851 -103.856 118.98C-100.574 119.902 -96.9606 120.761 -93.2682 121.639L-93.2678 121.639ZM-98.6199 54.7174C-98.4888 54.8363 -98.4126 54.8577 -98.2601 54.9006C-96.7044 60.547 -94.7677 66.022 -92.8336 71.4899L-92.8335 71.4901C-89.9592 79.6159 -87.0905 87.7259 -85.4858 96.3591C-87.3599 95.9169 -89.208 95.4601 -91.078 94.998L-91.0796 94.9975L-91.0801 94.9975L-91.0806 94.9973L-91.0811 94.9972L-91.0817 94.9971L-91.0821 94.997L-91.0826 94.9969L-91.0831 94.9967L-91.0837 94.9966C-92.8295 94.5651 -94.5944 94.1288 -96.4176 93.6953C-95.2853 84.681 -96.3149 76.0113 -97.3615 67.1984C-97.8499 63.0858 -98.3421 58.942 -98.6199 54.7174ZM80.6839 124.792C80.1593 120.836 79.634 116.874 79.1514 112.898C73.9252 109.543 68.5189 107.122 63.1918 105.296C59.4229 104.072 55.6448 103.174 52.1076 102.589C47.0792 101.749 42.1392 101.18 37.5377 100.87C31.9573 100.53 26.6178 100.504 21.757 100.531C20.4305 100.568 19.7536 100.05 19.333 98.62C17.4737 92.3598 17.2094 85.4006 22.4949 79.1822C23.7825 77.7321 25.1741 76.0612 26.4937 74.4767L26.494 74.4764L26.4972 74.4726C27.0267 73.8367 27.5447 73.2149 28.0396 72.6268C31.3793 68.648 30.4648 66.3418 26.1287 64.7948C21.564 63.1835 14.7639 62.5011 6.27391 65.1957C0.574295 67.0357 -3.25007 69.8127 -5.20214 72.9522C-9.08942 86.1933 -6.87258 91.1643 -1.28069 103.704L-1.26961 103.728C-0.73004 105.028 0.0168594 106.467 0.785115 107.831C4.5075 114.778 8.66945 118.408 14.1093 121.003C15.2649 121.573 16.6371 121.959 17.8446 122.053C21.6411 122.301 24.4469 120.221 26.7098 118.316C30.2506 115.377 33.4467 113.079 38.1734 112.359C38.3515 112.336 38.5301 112.311 38.7098 112.287C40.3392 112.061 42.0652 111.822 44.4491 112.567C45.4977 115.566 46.4913 118.468 47.3783 121.75C48.7315 126.885 49.5998 132.866 49.358 138.7C49.0247 145.737 48.7951 151.819 53.6432 155.641C57.2899 158.47 62.2877 159.711 68.0268 159.194C72.9943 158.787 77.5626 156.875 79.9235 152.867C81.7993 149.706 82.989 146.352 82.9163 142.807C82.2756 136.797 81.4808 130.803 80.6843 124.796L80.6842 124.795L80.6842 124.795L80.6841 124.794L80.6841 124.794L80.684 124.793L80.6839 124.792ZM14.4962 105.579C14.6543 105.962 14.8265 106.379 15.0474 106.841C17.8635 107.859 19.7896 107.586 21.6111 107.328C21.7698 107.306 21.9277 107.284 22.0854 107.262C27.1903 106.075 32.655 105.07 38.8942 104.53C46.3074 103.909 54.9522 105.93 61.8374 108.358C62.9195 108.662 63.9966 109.148 65.1447 109.666C65.5334 109.841 65.9302 110.02 66.3381 110.197C66.3883 110.456 66.4195 110.711 66.4507 110.965L66.4508 110.966L66.451 110.967C66.4822 111.222 66.5134 111.476 66.5635 111.735C67.0453 114.384 67.5555 117.047 68.0685 119.725L68.0697 119.731C69.38 126.57 70.7085 133.504 71.6277 140.535C71.6336 141.684 71.4871 142.79 71.1119 143.832C70.0503 146.73 67.4765 147.4 63.8479 145.97C61.7012 145.121 60.2623 142.339 60.3237 139.488C60.474 132.809 58.7642 126.017 57.225 120.667C56.8402 119.283 56.4413 117.95 56.0486 116.637L56.0473 116.632L56.0459 116.628L56.0446 116.623L56.0435 116.62L56.0426 116.617L56.0425 116.616C55.3516 114.307 54.6794 112.06 54.1344 109.716C50.1368 108.428 46.7093 108.038 43.3916 107.843C36.0273 107.412 30.9467 109.098 26.3814 111.585C24.6646 112.492 22.7628 113.294 20.8141 114.116L20.8138 114.116L20.8119 114.117L20.8062 114.119C20.3449 114.314 19.8809 114.51 19.4161 114.708C18.8519 114.959 17.806 114.583 16.9339 114.174C14.9824 113.216 13.0523 112.181 11.1436 111.071C9.00607 109.896 7.77743 107.829 6.98484 105.967L6.86548 105.695C1.3426 93.0931 -0.72864 88.367 3.82384 75.0801C6.50175 71.407 11.6066 70.2195 14.3905 72.3136C15.8205 73.3714 14.9817 75.1846 13.2096 77.3912C8.36554 89.0613 9.41085 93.5353 14.1999 104.881C14.2989 105.101 14.3946 105.333 14.4962 105.579ZM24.1112 96.8462C23.1483 91.4938 23.8809 85.9623 28.4558 81.1014C29.5049 80.003 30.9566 78.9358 32.6918 78.0303C40.6757 74.2098 50.5316 72.8008 58.9934 75.1799C66.9216 77.409 64.8536 81.2535 60.0255 87.6006C59.2691 88.5354 58.4151 89.5248 57.5825 90.4381C56.6523 91.406 56.9815 91.9904 58.0823 92.4638C59.4514 93.0763 60.822 93.7187 62.2043 94.3667C64.8059 95.5862 67.4491 96.8253 70.203 97.9207C82.4305 102.998 93.6331 109.672 103.488 118.508C111.177 125.096 118.284 132.586 123.083 141.558C123.214 141.864 123.386 142.147 123.568 142.444C123.662 142.598 123.758 142.755 123.851 142.921C126.482 151.119 128.646 159.514 121.494 166.519C119.646 168.704 116.791 169.787 113.705 170.231C108 170.921 102.48 169.779 97.8211 166.748C91.482 162.671 90.0833 155.065 90.0661 147.52C89.7168 143.59 89.3172 139.66 88.9173 135.727L88.9172 135.726L88.9172 135.725L88.9171 135.724L88.9171 135.723L88.917 135.723L88.917 135.722L88.917 135.721L88.9167 135.718C88.2989 129.641 87.6806 123.558 87.2465 117.466C87.207 116.144 86.6034 115.072 84.902 114.102C83.4511 113.322 82.015 112.515 80.5854 111.712C77.2983 109.866 74.0456 108.039 70.7263 106.592C66.7427 104.801 62.7716 103.692 58.8177 102.587L58.8173 102.587C58.4223 102.476 58.0274 102.366 57.6327 102.255C50.3357 100.121 42.2397 99.0745 34.6467 98.5789C33.9724 98.5121 33.3066 98.4563 32.6462 98.4009L32.6456 98.4009L32.6451 98.4009L32.6445 98.4008L32.644 98.4008L32.6434 98.4007C29.7777 98.1605 27.0149 97.929 24.1112 96.8462ZM33.2691 92.946C33.6296 93.0736 33.9935 93.2192 34.3625 93.3668C35.1425 93.6788 35.9456 94 36.788 94.1812C38.6504 94.6642 40.566 95.1018 42.4914 95.5415C44.4498 95.9888 46.4182 96.4384 48.351 96.9405C56.8555 99.1677 65.1984 101.677 73.5442 104.761C82.2193 108.43 89.9244 113.793 97.0653 119.407C99.4132 121.297 100.706 123.135 100.641 125.412C100.413 131.792 100.841 138.243 101.264 144.628L101.265 144.629C101.353 145.959 101.441 147.286 101.523 148.61C101.507 149.835 101.623 151.179 101.934 152.414C102.479 154.862 103.199 157.277 108.065 158.4C110.624 158.955 112.664 158.135 113.423 155.726C113.841 154.532 114.052 153.198 114.089 151.897C114.2 149.732 114.183 147.531 114.166 145.403L114.166 145.403C114.144 142.607 114.124 139.937 114.396 137.64C114.643 135.004 114.479 132.663 111.713 129.919C111.079 129.249 110.445 128.578 109.887 127.93C103.432 120.46 95.5718 114.479 87.388 109.064C76.5146 102.974 65.4336 98.7928 53.6359 94.82C52.1159 94.2978 50.65 93.6808 49.1946 93.0682C48.1362 92.6228 47.0832 92.1796 46.0189 91.7768C44.8968 91.3794 44.97 90.8262 45.4123 90.131C46.0542 89.1219 46.9192 88.0893 47.779 87.0629C48.1041 86.6748 48.4285 86.2876 48.7398 85.9028C50.7284 83.5113 50.1674 82.2881 47.6396 81.3314C45.3191 80.5151 41.1901 81.1574 39.22 82.8984C35.6913 86.0864 34.0228 89.3876 33.2691 92.946ZM-86.0627 122.547C-86.4528 122.704 -86.8696 122.872 -87.3177 123.057C-79.9353 124.887 -72.5316 126.641 -65.2498 127.951C-61.8101 128.59 -56.8304 128.433 -51.3992 127.255C-48.2491 126.583 -44.9037 125.803 -42.6195 123.822C-40.2376 121.787 -38.5632 119.635 -37.7914 117.475C-35.1526 110.43 -39.454 100.861 -44.3842 95.8682C-47.1648 92.2997 -50.4241 88.6785 -53.8451 85.3397L-54.0134 85.1735C-55.6833 83.5236 -57.1783 82.0466 -58.4734 79.8583C-64.9822 68.1928 -69.6799 57.6921 -68.9616 45.1898C-68.6591 40.603 -68.8323 36.5381 -73.9034 35.85C-77.462 35.3412 -80.9444 34.8539 -84.6005 34.3996C-84.9087 35.7883 -85.1528 36.9491 -85.2994 38.0554C-86.4262 49.3773 -81.9999 59.9656 -75.8841 69.2257C-73.5822 72.7416 -71.7165 76.053 -70.36 79.7129C-63.1875 99.8433 -64.7168 111.134 -83.1946 121.266C-83.9961 121.714 -84.9132 122.083 -86.0627 122.547ZM-60.1099 116.691C-54.3824 111.827 -52.0421 101.747 -55.0571 94.9165C-54.5789 94.9018 -54.1198 94.8742 -53.6721 94.8472L-53.6718 94.8472C-52.6436 94.7854 -51.6756 94.7271 -50.675 94.8372C-50.0438 94.9327 -48.9644 95.482 -48.4064 96.1307C-42.9245 102.672 -40.0193 109.308 -45.6738 115.669C-47.7386 118.039 -50.1386 118.675 -52.8922 118.229C-54.5563 117.93 -56.1645 117.569 -57.8111 117.2L-57.8115 117.2L-57.8119 117.2L-57.8122 117.2L-57.8126 117.199L-57.8129 117.199L-57.8133 117.199C-58.5677 117.03 -59.3302 116.859 -60.1099 116.691ZM-64.1935 75.6273C-62.605 77.8771 -62.401 79.4917 -63.6361 80.3739C-70.4807 71.0728 -76.9991 61.7815 -79.2663 50.2429C-75.433 49.1897 -75.1921 49.5033 -74.3022 53.3599C-72.6749 61.0301 -68.7393 69.2675 -64.1935 75.6273ZM-16.3287 75.9692C-15.0278 76.3149 -13.6979 76.6684 -12.272 77.0292C-11.7914 74.3345 -10.4459 71.8829 -9.10035 69.4313C-8.84806 68.9717 -8.59577 68.512 -8.34918 68.0507L-8.28316 67.9441C-3.65445 60.4716 -1.04087 56.2522 -8.69483 53.7739C-18.2696 50.6721 -31.2302 55.2244 -36.0129 64.0431C-38.4725 76.3017 -36.857 81.6737 -31.9582 93.2144C-31.9011 93.3368 -31.8448 93.4619 -31.7878 93.5883C-31.5374 94.144 -31.2745 94.7273 -30.8821 95.2382C-26.9277 100.776 -23.1259 106.271 -20.0985 111.302C-17.312 116.02 -14.8118 117.952 -10.411 115.173C-10.0969 114.934 -9.72792 114.792 -9.38029 114.726C-5.0042 113.497 -3.68632 109.688 -5.32014 104.966C-6.21571 102.413 -7.3183 99.9478 -8.41804 97.4888L-8.4181 97.4886L-8.41819 97.4885L-8.4183 97.4882C-10.1782 93.553 -11.9307 89.6341 -12.8159 85.4004C-12.8662 85.1404 -12.9112 84.8614 -12.9561 84.5824L-12.9561 84.5822C-13.0011 84.3032 -13.046 84.0243 -13.0963 83.7643C-15.0765 83.2871 -17.0159 82.802 -18.9366 82.3216L-18.9371 82.3215C-20.9765 81.8114 -22.995 81.3066 -25.0191 80.8219C-24.7643 83.574 -23.7054 86.1731 -22.586 88.9205L-22.586 88.9207L-22.4526 89.248C-21.7564 89.4028 -21.0792 89.5523 -20.402 89.7017L-20.4005 89.7021C-19.7227 89.8516 -19.045 90.0012 -18.3483 90.1561C-17.6225 91.9443 -16.8173 93.6757 -16.0247 95.3801C-15.0129 97.5559 -14.0216 99.6876 -13.2421 101.837C-11.9405 105.4 -13.0751 106.802 -15.917 106.085C-18.4541 105.453 -20.1828 103.41 -21.6033 99.9781C-22.4914 97.8706 -23.4473 95.7441 -24.4031 93.6176C-24.8811 92.5542 -25.359 91.4909 -25.8285 90.4299C-29.865 83.7215 -30.8241 72.7967 -26.9229 65.9431C-24.9616 62.4784 -20.2928 61.0863 -17.8261 62.8454C-16.0576 64.1622 -16.6891 66.1157 -18.2935 69.189C-19.2299 71.0568 -20.0139 72.9674 -20.3953 74.9092C-19.0201 75.254 -17.6902 75.6074 -16.3287 75.9692ZM-124.653 101.658C-128.258 104.824 -132.582 107.625 -138.505 110.549C-139.609 110.266 -140.758 110.008 -141.904 109.749L-141.904 109.749L-141.904 109.749L-141.904 109.749L-141.904 109.749C-144.179 109.237 -146.442 108.727 -148.326 108.034C-149.111 107.752 -148.907 106.918 -148.703 106.084C-148.636 105.806 -148.568 105.528 -148.536 105.27C-148.002 101.322 -147.492 96.8755 -147.473 92.1269C-147.519 89.6553 -147.967 87.1524 -148.86 84.7703C-149.18 83.8607 -150.424 83.0191 -151.644 82.6762C-155.559 81.4956 -159.586 80.4389 -163.828 79.3259L-164.167 79.237C-160.094 67.3942 -159.212 54.9088 -158.328 42.3834L-158.328 42.3833C-157.55 31.3539 -156.769 20.2934 -153.805 9.61328C-152.41 10.0442 -151.003 10.4968 -149.571 10.9574C-147.973 11.4716 -146.344 11.9957 -144.666 12.5106C-149.126 27.7142 -149.343 42.7761 -149.566 58.1571L-149.566 58.1572L-149.566 58.1573L-149.566 58.1574C-149.64 63.3057 -149.715 68.4896 -149.95 73.7266C-149.845 73.7665 -149.745 73.8053 -149.647 73.8429L-149.644 73.844C-148.981 74.0994 -148.473 74.2953 -147.989 74.3598C-143.409 74.746 -140.912 78.1528 -140.352 81.4251C-139.632 85.8893 -139.273 90.1704 -139.524 94.2801C-139.674 96.8608 -138.979 98.7774 -134.865 99.3602C-132.092 99.635 -129.581 100.322 -126.996 101.029L-126.996 101.029L-126.996 101.03L-126.995 101.03C-126.224 101.241 -125.446 101.454 -124.653 101.658ZM-29.1521 105.476C-26.0242 111.028 -25.0613 116.38 -26.044 121.923C-25.7624 121.766 -25.4901 121.616 -25.226 121.471C-24.2085 120.913 -23.3137 120.422 -22.4881 119.808C-21.9574 119.384 -21.4511 118.461 -21.4754 117.962C-21.9687 112.987 -24.0173 107.985 -27.4898 103.075C-28.8892 101.238 -30.3603 99.4084 -31.8415 97.5665L-31.8417 97.5663L-31.8419 97.566C-37.9283 89.9977 -44.1875 82.2146 -46.3615 72.7702C-48.5222 62.9009 -43.9593 55.7416 -38.5943 48.0702C-37.9233 47.4392 -37.4078 46.1908 -37.7889 46.0836C-40.2836 45.1627 -42.885 44.3587 -45.5087 43.5479C-46.8039 43.1476 -48.1046 42.7456 -49.4006 42.3271C-54.0484 45.6922 -57.1745 48.9114 -59.3431 52.2359C-60.6699 54.3218 -62.0607 56.6355 -61.9848 58.7059C-61.6229 65.6106 -58.3398 73.8284 -54.2116 79.3331C-52.4227 81.8724 -50.5263 84.3716 -48.6237 86.879C-43.7108 93.3539 -38.7566 99.883 -35.5043 107.297C-33.6266 112.906 -33.7494 118.609 -39.0928 124.156C-40.8556 126.037 -42.9996 127.811 -45.9364 129.772C-43.2102 129.145 -41.0054 128.618 -38.9103 127.895C-37.9009 127.523 -36.5347 126.76 -36.0375 126.162C-32.1794 121.509 -30.779 116.821 -31.1839 112.118C-31.4275 109.18 -30.982 107.011 -29.1521 105.476ZM-39.3373 95.7686C-39.4761 95.7501 -39.6148 95.7316 -39.7292 95.6994C-46.4214 86.4412 -52.0098 78.2309 -56.6526 67.8277C-56.9326 66.9702 -56.7767 66.0298 -56.6269 65.1262L-56.6268 65.1255C-56.5874 64.8881 -56.5485 64.6532 -56.518 64.4231C-56.1609 61.9826 -55.325 59.5948 -54.0866 57.2382C-53.9886 57.0671 -53.8145 56.9475 -53.5962 56.7975L-53.5961 56.7974L-53.596 56.7973C-53.454 56.6998 -53.2934 56.5894 -53.1229 56.4437C-54.8373 61.3712 -54.9112 66.0223 -53.7561 70.6911C-53.1557 73.2369 -51.6313 75.7145 -50.0094 78.1377C-46.7655 82.9839 -43.0336 87.5576 -39.3566 92.0339C-38.075 93.5877 -38.3893 94.1343 -38.7052 94.6835C-38.8883 95.0019 -39.0719 95.3211 -38.9455 95.8378C-39.0599 95.8056 -39.1986 95.7871 -39.3373 95.7686ZM130.933 151.207L130.933 151.206C131.454 151.01 132.034 150.792 132.644 150.557C134.201 155.257 135.475 159.795 136.576 164.367C139.224 163.533 138.913 161.661 138.644 160.036C138.619 159.888 138.595 159.743 138.574 159.601C137.882 154.161 135.331 148.608 131.51 143.763C123.495 133.275 113.014 124.608 102.854 116.206L102.691 116.071C95.0655 109.255 86.4029 103.787 77.1699 99.47C73.7424 97.8409 70.5042 96.1758 67.3071 94.5317C66.1724 93.9482 65.0429 93.3674 63.9119 92.7918C62.549 92.0807 62.5887 91.3542 64.0952 90.3844C65.5042 89.4692 66.9131 88.5539 68.627 87.7244C76.1565 84.3498 84.9603 83.4646 92.922 85.8671C100.176 88.1526 99.3309 92.9146 95.247 98.0775C94.8475 98.6209 95.3627 99.4215 95.7895 99.9513C98.1738 102.589 101.037 105.279 104.205 108.055C101.607 108.226 99.9509 107.678 98.4112 106.426C97.0079 105.334 95.6134 104.269 94.2429 103.223C91.2628 100.947 88.3962 98.7586 85.8001 96.5689C85.7488 96.5224 85.6949 96.4752 85.6403 96.4274L85.6387 96.426C85.2756 96.1079 84.8851 95.7659 85.044 95.4548C86.197 93.402 84.9408 92.3111 82.5776 91.6467C79.9094 90.8965 77.5308 91.4572 73.9963 93.496C77.8809 96.0636 81.9942 98.6954 86.51 101.358C96.3452 107.296 105.128 114.713 113.894 122.116L113.894 122.117L113.903 122.124C115.1 123.135 116.296 124.145 117.495 125.151C125.675 132.041 133.426 139.876 138.38 149.465C141.654 155.959 143.025 162.492 141.241 168.547C140.566 170.653 139.761 172.639 137.593 173.915C135.501 175.212 134.205 174.847 133.659 172.399C133.229 170.42 132.952 168.412 132.676 166.403C132.538 165.399 132.4 164.395 132.243 163.394C132.051 162.45 131.862 161.495 131.67 160.529L131.67 160.527C131.105 157.673 130.52 154.723 129.789 151.64C130.121 151.512 130.507 151.367 130.933 151.207ZM42.927 131.728C42.9095 126.232 41.3032 120.534 39.581 115.542C32.676 116.699 27.5068 122.08 22.8378 126.94C22.1952 127.609 21.562 128.268 20.935 128.905C18.8367 131.102 16.8603 133.743 15.3229 137.163C13.8069 140.507 12.8002 143.502 13.367 145.875C13.6248 146.862 15.1764 147.291 16.4959 147.657C16.5959 147.685 16.6946 147.712 16.7913 147.739C18.0659 148.18 19.6759 148.304 21.3836 148.375C27.333 148.572 33.7949 146.947 38.2965 142.639C41.6726 139.408 42.8929 135.653 42.927 131.728ZM26.9114 132.225C28.528 129.401 30.6322 128.353 33.2395 127.857C32.8916 129.972 32.3699 132.12 31.348 134.292C30.8631 135.139 29.7682 135.815 28.8015 136.035C28.0087 136.222 26.4199 136.021 26.3529 135.674C26.2494 134.58 26.4264 133.072 26.9114 132.225Z" fill="url(#paint0_linear_790_3408)" fill-opacity="0.7"/>
<defs>
<linearGradient id="paint0_linear_790_3408" x1="162.511" y1="144.875" x2="-202.5" y2="34.141" gradientUnits="userSpaceOnUse">
<stop offset="0.0526782"/>
<stop offset="1" stop-opacity="0"/>
</linearGradient>
</defs>
</svg>
