<svg width="129" height="107" viewBox="0 0 129 107" fill="none" xmlns="http://www.w3.org/2000/svg">
<path fill-rule="evenodd" clip-rule="evenodd" d="M0.26133 37.1467C7.30185 60.4582 14.4315 83.7277 21.6714 107C24.5303 104.975 27.4056 102.956 30.2809 100.938C33.1563 98.9189 36.0316 96.9001 38.8905 94.8754C39.4242 91.0314 39.6168 87.6199 39.5681 84.1586C35.3166 86.8108 31.0441 89.4184 26.706 92.0025C24.0672 78.5243 18.9959 65.9637 13.9058 53.3565C11.5028 47.4047 9.09558 41.4425 6.93815 35.3685C5.72431 35.7056 4.53009 36.0179 3.34133 36.3287C2.31364 36.5974 1.29002 36.865 0.26133 37.1467ZM53.4803 64.7695C54.038 67.2294 54.3308 69.7048 54.2643 72.4582C55.5892 70.5287 56.7777 68.7722 57.9006 66.9921C58.0843 66.6879 58.2733 66.1636 58.2366 65.8541C58.0286 60.78 54.3146 55.7755 51.3214 51.9565C50.1448 50.366 48.9276 48.7608 47.6915 47.1307L47.691 47.13C47.3577 46.6905 47.023 46.2491 46.6874 45.8058C45.2353 43.8753 43.592 41.6537 41.9486 39.4321C39.7076 36.4027 37.4091 33.0192 35.9001 28.8834C35.5281 27.8606 35.1584 27.6533 34.5815 27.8157C32.1399 28.5281 29.6774 29.1959 27.2385 29.7982C26.5069 29.9789 26.4044 30.5715 26.7082 31.6808C27.2765 33.7001 27.8711 35.5437 28.5103 37.3664C30.8003 42.9316 33.4076 48.1298 36.2116 53.3988C38.7613 58.2429 40.8888 63.2312 42.8354 68.4134C43.2834 77.24 42.2737 85.282 40.5216 93.9453C41.5315 93.1983 42.4731 92.5378 43.4147 91.8773C44.5137 91.0884 46.4211 87.8506 46.9358 85.7032C47.5436 83.1359 47.8873 80.7422 48.2161 78.452L48.2162 78.4517L48.2653 78.1096C48.3281 77.6188 48.3767 77.113 48.4254 76.6069L48.4254 76.6068L48.4254 76.6066C48.5662 75.142 48.7073 73.6745 49.1929 72.5561C50.032 70.6905 51.0121 69.0291 51.9608 67.4209L51.9608 67.4208L51.9608 67.4208C52.4868 66.5292 53.003 65.654 53.4803 64.7695ZM35.7492 40.6048L35.8384 40.5628C36.6248 41.6037 37.4843 42.5849 38.3389 43.5604L38.3389 43.5605L38.339 43.5606C38.7376 44.0156 39.1352 44.4694 39.5237 44.9275C40.6609 46.1958 41.8152 47.3708 42.9315 48.5071L42.9316 48.5072L42.9316 48.5073C44.1748 49.7727 45.3709 50.9903 46.4439 52.2354C48.3731 54.486 49.8355 56.9016 51.1851 59.4246C51.3737 59.8259 51.4023 60.4657 51.2396 60.8144C50.7805 61.8549 50.1951 62.8923 49.6576 63.8448C49.4854 64.1499 49.3181 64.4463 49.1615 64.7313C46.886 58.8597 43.5531 53.4596 40.2247 48.0669L40.2245 48.0667C38.6976 45.5927 37.1717 43.1204 35.7492 40.6048ZM96.49 32.1544C98.0583 31.57 99.6197 30.9882 100.534 30.0691C96.4775 28.2741 91.0846 25.2566 88.9621 20.9738C88.8758 20.7903 88.79 20.6059 88.704 20.4214L88.7038 20.421C87.3913 17.6025 86.062 14.7483 82.9097 14.2378C81.3286 14.0013 79.5165 14.1999 77.7384 14.8182C74.893 15.8294 71.9211 18.4244 71.0125 22.2813C70.5686 24.2321 69.842 25.1182 68.722 25.8625C66.3247 27.4796 63.8356 29.2488 63.3888 32.2353L63.378 32.3078C63.144 33.8686 62.8918 35.5518 64.3967 37.0422C66.4506 38.9126 68.6694 40.5245 70.8895 42.1374L70.8896 42.1375C72.8886 43.5897 74.8887 45.0427 76.7703 46.6858C78.3432 48.1784 79.9449 49.3852 81.8092 49.7608C85.0343 50.3677 87.6309 48.7113 89.9683 45.9247C92.6467 42.7055 91.9057 39.6241 89.1347 37.5516C88.0966 36.7331 88.2619 36.2743 88.8495 35.6714C89.8747 34.6316 91.491 34.0428 93.1394 33.4424C93.7434 33.2224 94.3516 33.0008 94.9367 32.7549C95.4392 32.546 95.965 32.3501 96.49 32.1544ZM80.0783 42.9529C78.6705 41.9271 77.2836 40.9459 75.8313 39.9411C74.9679 39.362 74.1856 38.7732 73.376 38.1639L73.3742 38.1625L73.3714 38.1604C73.0639 37.929 72.7524 37.6946 72.4311 37.4567C70.6483 36.4439 70.5858 35.3845 70.9218 34.2466C71.3287 32.912 72.5851 31.9946 73.9043 31.2111C74.529 30.84 75.1489 30.459 75.7733 30.0753L75.7736 30.0751C76.4679 29.6484 77.1677 29.2183 77.8857 28.7947C78.5335 28.4357 78.434 27.9925 77.9885 27.2765C77.1813 26.0228 76.8435 24.4939 77.9978 23.2435C79.855 21.1726 82.4743 22.2276 83.8737 24.5094C85.1684 26.5683 86.8933 28.1528 88.9775 29.4594C89.4993 29.7585 89.5595 30.0024 89.0245 30.2539C88.0108 30.7033 87.0024 31.1638 85.994 31.6243C84.9856 32.0848 83.9772 32.5453 82.9635 32.9947C81.2037 33.7676 79.6406 34.6114 79.4723 36.1061C79.4433 36.3919 79.7421 36.7958 80.1327 37.0477C80.7264 37.4534 81.3326 37.8384 81.9353 38.2211C82.9615 38.8728 83.9776 39.5179 84.9041 40.2484C86.8938 41.8172 86.1615 43.8492 83.7489 44.2758C82.2883 44.527 81.161 43.7505 80.0783 42.9529ZM102.476 27.3346L102.476 27.3347C104.073 28.1377 105.689 28.9505 107.195 29.9878C107.047 30.0968 106.908 30.2086 106.77 30.3189C106.341 30.6622 105.93 30.9913 105.359 31.1777C104.348 31.6528 103.3 32.0487 102.253 32.4446C101.729 32.6426 101.205 32.8405 100.685 33.0484C100.364 33.1814 100.042 33.3138 99.7188 33.4464L99.7187 33.4464L99.7186 33.4464L99.7185 33.4465L99.7184 33.4465C98.0692 34.1233 96.409 34.8046 94.9156 35.5978C93.6199 36.3158 93.6223 37.1314 95.5205 37.9266C97.3086 38.7191 98.9316 39.0448 100.746 38.736C101.81 38.5647 102.873 38.3907 103.933 38.2172C107.259 37.6728 110.557 37.1329 113.777 36.6925C114.255 36.6238 114.73 36.5598 115.205 36.496L115.205 36.4959C118.375 36.0694 121.492 35.6499 124.909 33.8539C126.74 32.8843 128.426 31.4925 129.34 29.2665C130.56 26.1884 129.992 24.1691 128.309 22.6738C125.754 20.6787 122.929 19.1086 120.1 17.5366C118.736 16.779 117.372 16.0209 116.037 15.2146C114.87 14.4319 114.369 13.3725 113.825 12.2221L113.825 12.2217C113.701 11.9608 113.576 11.6953 113.439 11.4272C112.745 10.066 111.584 8.86988 109.885 8.03543C107.882 7.01731 105.632 7.0952 102.947 7.86783C97.935 9.13527 91.755 14.9807 93.6254 20.5798C95.2098 23.6061 98.446 25.2693 101.783 26.9845L101.888 27.0386C102.083 27.137 102.278 27.2352 102.474 27.3335L102.476 27.3346ZM107.071 15.0201C108.195 17.7581 111.001 19.3245 114.005 20.8517C114.226 20.9654 114.448 21.0791 114.671 21.1932C117.35 22.5653 120.156 24.0024 122.36 26.2328C123.309 27.0932 123.634 28.2471 122.587 29.6103C121.653 30.866 119.361 31.7804 118.024 31.4836C117.783 31.4337 117.521 31.3392 117.392 31.1818C115.149 29.006 112.407 27.3802 109.678 25.7629C106.2 23.7008 102.745 21.6523 100.376 18.4949C100.166 18.049 100.025 17.5166 100.038 16.966C100.031 15.4451 101.562 14.0716 103.668 13.5714C105.242 13.2127 106.592 13.8845 107.071 15.0201ZM135.724 6.71918C135.182 6.2917 134.84 5.83444 134.496 5.37505L134.496 5.37493L134.495 5.3748L134.495 5.37466C134.291 5.10118 134.085 4.82694 133.837 4.55781C133.064 3.72367 131.257 3.70207 128.789 4.59015C126.788 5.3132 125.545 6.60554 126.029 7.52086C128.384 10.8744 132.503 13.3366 136.283 15.5962L136.283 15.5963C137.532 16.3428 138.743 17.0672 139.842 17.7943C140.296 18.1799 140.802 18.2142 141.327 17.4775C141.356 17.438 141.385 17.3982 141.415 17.3582L141.46 17.2976C141.792 16.8525 142.136 16.3918 142.067 16.0408C141.935 15.2306 141.773 14.4742 141.617 13.7455L141.617 13.7454L141.617 13.7452L141.617 13.745C141.364 12.5635 141.127 11.4549 141.059 10.3082C140.714 10.4577 140.393 10.5952 140.092 10.7248L140.087 10.7269L140.085 10.7277C139.126 11.1398 138.352 11.472 137.54 11.8541C137.375 11.7502 137.213 11.6478 137.052 11.5463C136.149 10.9759 135.285 10.4301 134.328 9.77098L134.769 9.58814C137.548 8.43719 140.415 7.24963 143.52 6.04795C143.475 6.55532 143.466 7.07573 143.457 7.62656L143.457 7.62772L143.457 7.62845L143.457 7.62897C143.454 7.81753 143.451 8.00966 143.446 8.20603C143.427 9.65361 143.667 11.0625 143.93 12.6036L143.93 12.6041L143.93 12.6044C144.035 13.221 144.144 13.8587 144.241 14.5285C144.466 16.1649 144.263 18.1656 142.372 20.7426C141.118 22.4754 139.707 23.4111 138.346 23.1798C136.13 22.7517 134.056 21.9302 132.544 20.6815C131.433 19.9654 130.146 19.2524 128.801 18.5074C124.941 16.3697 120.604 13.9678 118.597 10.4709C117.395 5.48304 123.296 2.05519 127.264 1.11517C129.706 0.402771 132.05 0.0626815 134.738 0.105566C137.491 0.172072 139.552 0.618567 141.054 1.38215C141.99 1.86759 142.682 2.41325 143.374 2.95892C143.98 3.43637 143.778 3.58577 142.11 4.20666C140.085 4.99525 138.061 5.78385 135.724 6.71918ZM59.8201 40.3926C63.701 40.31 67.1381 42.1782 70.0375 44.4081C71.8988 45.8195 73.6027 47.3593 74.5723 49.19C76.3019 52.4055 74.1635 56.0785 71.3151 58.1255C69.0568 59.805 66.4609 61.3629 63.6646 63.041L63.6645 63.0411L63.664 63.0414C62.7644 63.5812 61.8442 64.1335 60.9078 64.7063C60.6259 60.8646 59.0457 57.8511 57.3291 55.0107C57.1343 54.7069 56.9405 54.405 56.7478 54.1047C51.2883 45.5993 46.6939 38.4418 44.6179 28.3224C44.2312 24.2578 44.5014 24.0219 46.9456 23.1994C47.686 22.9601 48.4224 22.6865 49.1587 22.4129C50.6314 21.8656 52.1042 21.3184 53.6094 21.0462C55.0701 20.795 56.5384 21.139 57.8913 21.7006C59.9416 22.5876 60.4836 24.7826 60.0448 27.4388C59.6376 29.699 59.435 31.6997 59.3897 33.572C59.3731 36.0841 59.4956 38.313 59.8201 40.3926ZM64.8102 55.522C64.9141 55.4598 65.01 55.4014 65.1001 55.3465C65.3787 55.1768 65.6025 55.0405 65.8383 54.9297C66.105 54.761 66.3853 54.6032 66.6644 54.446C67.0879 54.2075 67.5084 53.9707 67.8736 53.7006C69.1745 52.7622 69.5079 51.7344 68.5696 50.4335C67.3535 48.7732 65.7361 47.3016 63.8957 45.9347C62.7055 45.0244 61.0512 44.169 59.525 44.3966C58.4629 44.5693 57.5057 44.9649 56.614 45.3842C55.9898 45.6777 55.9974 46.2729 56.7524 46.9523L57.0054 47.1749L57.0054 47.1749C59.978 49.7896 62.8096 52.2802 64.8102 55.522ZM52.8943 41.5256C53.3427 41.2059 53.5447 41.0565 53.7466 40.9072L53.7468 40.907C54.7776 40.2046 55.6799 39.3449 55.2766 37.7924C55.2258 37.6058 55.1741 37.4177 55.122 37.2277C54.6346 35.4521 54.1051 33.5229 53.7789 31.3647C53.5879 30.148 52.9012 29.382 52.0357 29.6256L51.9027 29.6641C51.0279 29.9168 50.079 30.1909 49.5573 30.9542C49.2831 31.3288 49.495 32.2135 49.6916 33.0341L49.6916 33.0342L49.6916 33.0342C49.7564 33.3049 49.8196 33.5686 49.8631 33.8047C49.8604 33.9148 49.9024 34.004 49.9443 34.0932C50.5622 36.7969 51.6077 39.1363 52.8943 41.5256Z" fill="white"/>
<path fill-rule="evenodd" clip-rule="evenodd" d="M0.26133 37.1467C7.30185 60.4582 14.4315 83.7277 21.6714 107C24.5303 104.975 27.4056 102.956 30.2809 100.938C33.1563 98.9189 36.0316 96.9001 38.8905 94.8754C39.4242 91.0314 39.6168 87.6199 39.5681 84.1586C35.3166 86.8108 31.0441 89.4184 26.706 92.0025C24.0672 78.5243 18.9959 65.9637 13.9058 53.3565C11.5028 47.4047 9.09558 41.4425 6.93815 35.3685C5.72431 35.7056 4.53009 36.0179 3.34133 36.3287C2.31364 36.5974 1.29002 36.865 0.26133 37.1467ZM53.4803 64.7695C54.038 67.2294 54.3308 69.7048 54.2643 72.4582C55.5892 70.5287 56.7777 68.7722 57.9006 66.9921C58.0843 66.6879 58.2733 66.1636 58.2366 65.8541C58.0286 60.78 54.3146 55.7755 51.3214 51.9565C50.1448 50.366 48.9276 48.7608 47.6915 47.1307L47.691 47.13C47.3577 46.6905 47.023 46.2491 46.6874 45.8058C45.2353 43.8753 43.592 41.6537 41.9486 39.4321C39.7076 36.4027 37.4091 33.0192 35.9001 28.8834C35.5281 27.8606 35.1584 27.6533 34.5815 27.8157C32.1399 28.5281 29.6774 29.1959 27.2385 29.7982C26.5069 29.9789 26.4044 30.5715 26.7082 31.6808C27.2765 33.7001 27.8711 35.5437 28.5103 37.3664C30.8003 42.9316 33.4076 48.1298 36.2116 53.3988C38.7613 58.2429 40.8888 63.2312 42.8354 68.4134C43.2834 77.24 42.2737 85.282 40.5216 93.9453C41.5315 93.1983 42.4731 92.5378 43.4147 91.8773C44.5137 91.0884 46.4211 87.8506 46.9358 85.7032C47.5436 83.1359 47.8873 80.7422 48.2161 78.452L48.2162 78.4517L48.2653 78.1096C48.3281 77.6188 48.3767 77.113 48.4254 76.6069L48.4254 76.6068L48.4254 76.6066C48.5662 75.142 48.7073 73.6745 49.1929 72.5561C50.032 70.6905 51.0121 69.0291 51.9608 67.4209L51.9608 67.4208L51.9608 67.4208C52.4868 66.5292 53.003 65.654 53.4803 64.7695ZM35.7492 40.6048L35.8384 40.5628C36.6248 41.6037 37.4843 42.5849 38.3389 43.5604L38.3389 43.5605L38.339 43.5606C38.7376 44.0156 39.1352 44.4694 39.5237 44.9275C40.6609 46.1958 41.8152 47.3708 42.9315 48.5071L42.9316 48.5072L42.9316 48.5073C44.1748 49.7727 45.3709 50.9903 46.4439 52.2354C48.3731 54.486 49.8355 56.9016 51.1851 59.4246C51.3737 59.8259 51.4023 60.4657 51.2396 60.8144C50.7805 61.8549 50.1951 62.8923 49.6576 63.8448C49.4854 64.1499 49.3181 64.4463 49.1615 64.7313C46.886 58.8597 43.5531 53.4596 40.2247 48.0669L40.2245 48.0667C38.6976 45.5927 37.1717 43.1204 35.7492 40.6048ZM96.49 32.1544C98.0583 31.57 99.6197 30.9882 100.534 30.0691C96.4775 28.2741 91.0846 25.2566 88.9621 20.9738C88.8758 20.7903 88.79 20.6059 88.704 20.4214L88.7038 20.421C87.3913 17.6025 86.062 14.7483 82.9097 14.2378C81.3286 14.0013 79.5165 14.1999 77.7384 14.8182C74.893 15.8294 71.9211 18.4244 71.0125 22.2813C70.5686 24.2321 69.842 25.1182 68.722 25.8625C66.3247 27.4796 63.8356 29.2488 63.3888 32.2353L63.378 32.3078C63.144 33.8686 62.8918 35.5518 64.3967 37.0422C66.4506 38.9126 68.6694 40.5245 70.8895 42.1374L70.8896 42.1375C72.8886 43.5897 74.8887 45.0427 76.7703 46.6858C78.3432 48.1784 79.9449 49.3852 81.8092 49.7608C85.0343 50.3677 87.6309 48.7113 89.9683 45.9247C92.6467 42.7055 91.9057 39.6241 89.1347 37.5516C88.0966 36.7331 88.2619 36.2743 88.8495 35.6714C89.8747 34.6316 91.491 34.0428 93.1394 33.4424C93.7434 33.2224 94.3516 33.0008 94.9367 32.7549C95.4392 32.546 95.965 32.3501 96.49 32.1544ZM80.0783 42.9529C78.6705 41.9271 77.2836 40.9459 75.8313 39.9411C74.9679 39.362 74.1856 38.7732 73.376 38.1639L73.3742 38.1625L73.3714 38.1604C73.0639 37.929 72.7524 37.6946 72.4311 37.4567C70.6483 36.4439 70.5858 35.3845 70.9218 34.2466C71.3287 32.912 72.5851 31.9946 73.9043 31.2111C74.529 30.84 75.1489 30.459 75.7733 30.0753L75.7736 30.0751C76.4679 29.6484 77.1677 29.2183 77.8857 28.7947C78.5335 28.4357 78.434 27.9925 77.9885 27.2765C77.1813 26.0228 76.8435 24.4939 77.9978 23.2435C79.855 21.1726 82.4743 22.2276 83.8737 24.5094C85.1684 26.5683 86.8933 28.1528 88.9775 29.4594C89.4993 29.7585 89.5595 30.0024 89.0245 30.2539C88.0108 30.7033 87.0024 31.1638 85.994 31.6243C84.9856 32.0848 83.9772 32.5453 82.9635 32.9947C81.2037 33.7676 79.6406 34.6114 79.4723 36.1061C79.4433 36.3919 79.7421 36.7958 80.1327 37.0477C80.7264 37.4534 81.3326 37.8384 81.9353 38.2211C82.9615 38.8728 83.9776 39.5179 84.9041 40.2484C86.8938 41.8172 86.1615 43.8492 83.7489 44.2758C82.2883 44.527 81.161 43.7505 80.0783 42.9529ZM102.476 27.3346L102.476 27.3347C104.073 28.1377 105.689 28.9505 107.195 29.9878C107.047 30.0968 106.908 30.2086 106.77 30.3189C106.341 30.6622 105.93 30.9913 105.359 31.1777C104.348 31.6528 103.3 32.0487 102.253 32.4446C101.729 32.6426 101.205 32.8405 100.685 33.0484C100.364 33.1814 100.042 33.3138 99.7188 33.4464L99.7187 33.4464L99.7186 33.4464L99.7185 33.4465L99.7184 33.4465C98.0692 34.1233 96.409 34.8046 94.9156 35.5978C93.6199 36.3158 93.6223 37.1314 95.5205 37.9266C97.3086 38.7191 98.9316 39.0448 100.746 38.736C101.81 38.5647 102.873 38.3907 103.933 38.2172C107.259 37.6728 110.557 37.1329 113.777 36.6925C114.255 36.6238 114.73 36.5598 115.205 36.496L115.205 36.4959C118.375 36.0694 121.492 35.6499 124.909 33.8539C126.74 32.8843 128.426 31.4925 129.34 29.2665C130.56 26.1884 129.992 24.1691 128.309 22.6738C125.754 20.6787 122.929 19.1086 120.1 17.5366C118.736 16.779 117.372 16.0209 116.037 15.2146C114.87 14.4319 114.369 13.3725 113.825 12.2221L113.825 12.2217C113.701 11.9608 113.576 11.6953 113.439 11.4272C112.745 10.066 111.584 8.86988 109.885 8.03543C107.882 7.01731 105.632 7.0952 102.947 7.86783C97.935 9.13527 91.755 14.9807 93.6254 20.5798C95.2098 23.6061 98.446 25.2693 101.783 26.9845L101.888 27.0386C102.083 27.137 102.278 27.2352 102.474 27.3335L102.476 27.3346ZM107.071 15.0201C108.195 17.7581 111.001 19.3245 114.005 20.8517C114.226 20.9654 114.448 21.0791 114.671 21.1932C117.35 22.5653 120.156 24.0024 122.36 26.2328C123.309 27.0932 123.634 28.2471 122.587 29.6103C121.653 30.866 119.361 31.7804 118.024 31.4836C117.783 31.4337 117.521 31.3392 117.392 31.1818C115.149 29.006 112.407 27.3802 109.678 25.7629C106.2 23.7008 102.745 21.6523 100.376 18.4949C100.166 18.049 100.025 17.5166 100.038 16.966C100.031 15.4451 101.562 14.0716 103.668 13.5714C105.242 13.2127 106.592 13.8845 107.071 15.0201ZM135.724 6.71918C135.182 6.2917 134.84 5.83444 134.496 5.37505L134.496 5.37493L134.495 5.3748L134.495 5.37466C134.291 5.10118 134.085 4.82694 133.837 4.55781C133.064 3.72367 131.257 3.70207 128.789 4.59015C126.788 5.3132 125.545 6.60554 126.029 7.52086C128.384 10.8744 132.503 13.3366 136.283 15.5962L136.283 15.5963C137.532 16.3428 138.743 17.0672 139.842 17.7943C140.296 18.1799 140.802 18.2142 141.327 17.4775C141.356 17.438 141.385 17.3982 141.415 17.3582L141.46 17.2976C141.792 16.8525 142.136 16.3918 142.067 16.0408C141.935 15.2306 141.773 14.4742 141.617 13.7455L141.617 13.7454L141.617 13.7452L141.617 13.745C141.364 12.5635 141.127 11.4549 141.059 10.3082C140.714 10.4577 140.393 10.5952 140.092 10.7248L140.087 10.7269L140.085 10.7277C139.126 11.1398 138.352 11.472 137.54 11.8541C137.375 11.7502 137.213 11.6478 137.052 11.5463C136.149 10.9759 135.285 10.4301 134.328 9.77098L134.769 9.58814C137.548 8.43719 140.415 7.24963 143.52 6.04795C143.475 6.55532 143.466 7.07573 143.457 7.62656L143.457 7.62772L143.457 7.62845L143.457 7.62897C143.454 7.81753 143.451 8.00966 143.446 8.20603C143.427 9.65361 143.667 11.0625 143.93 12.6036L143.93 12.6041L143.93 12.6044C144.035 13.221 144.144 13.8587 144.241 14.5285C144.466 16.1649 144.263 18.1656 142.372 20.7426C141.118 22.4754 139.707 23.4111 138.346 23.1798C136.13 22.7517 134.056 21.9302 132.544 20.6815C131.433 19.9654 130.146 19.2524 128.801 18.5074C124.941 16.3697 120.604 13.9678 118.597 10.4709C117.395 5.48304 123.296 2.05519 127.264 1.11517C129.706 0.402771 132.05 0.0626815 134.738 0.105566C137.491 0.172072 139.552 0.618567 141.054 1.38215C141.99 1.86759 142.682 2.41325 143.374 2.95892C143.98 3.43637 143.778 3.58577 142.11 4.20666C140.085 4.99525 138.061 5.78385 135.724 6.71918ZM59.8201 40.3926C63.701 40.31 67.1381 42.1782 70.0375 44.4081C71.8988 45.8195 73.6027 47.3593 74.5723 49.19C76.3019 52.4055 74.1635 56.0785 71.3151 58.1255C69.0568 59.805 66.4609 61.3629 63.6646 63.041L63.6645 63.0411L63.664 63.0414C62.7644 63.5812 61.8442 64.1335 60.9078 64.7063C60.6259 60.8646 59.0457 57.8511 57.3291 55.0107C57.1343 54.7069 56.9405 54.405 56.7478 54.1047C51.2883 45.5993 46.6939 38.4418 44.6179 28.3224C44.2312 24.2578 44.5014 24.0219 46.9456 23.1994C47.686 22.9601 48.4224 22.6865 49.1587 22.4129C50.6314 21.8656 52.1042 21.3184 53.6094 21.0462C55.0701 20.795 56.5384 21.139 57.8913 21.7006C59.9416 22.5876 60.4836 24.7826 60.0448 27.4388C59.6376 29.699 59.435 31.6997 59.3897 33.572C59.3731 36.0841 59.4956 38.313 59.8201 40.3926ZM64.8102 55.522C64.9141 55.4598 65.01 55.4014 65.1001 55.3465C65.3787 55.1768 65.6025 55.0405 65.8383 54.9297C66.105 54.761 66.3853 54.6032 66.6644 54.446C67.0879 54.2075 67.5084 53.9707 67.8736 53.7006C69.1745 52.7622 69.5079 51.7344 68.5696 50.4335C67.3535 48.7732 65.7361 47.3016 63.8957 45.9347C62.7055 45.0244 61.0512 44.169 59.525 44.3966C58.4629 44.5693 57.5057 44.9649 56.614 45.3842C55.9898 45.6777 55.9974 46.2729 56.7524 46.9523L57.0054 47.1749L57.0054 47.1749C59.978 49.7896 62.8096 52.2802 64.8102 55.522ZM52.8943 41.5256C53.3427 41.2059 53.5447 41.0565 53.7466 40.9072L53.7468 40.907C54.7776 40.2046 55.6799 39.3449 55.2766 37.7924C55.2258 37.6058 55.1741 37.4177 55.122 37.2277C54.6346 35.4521 54.1051 33.5229 53.7789 31.3647C53.5879 30.148 52.9012 29.382 52.0357 29.6256L51.9027 29.6641C51.0279 29.9168 50.079 30.1909 49.5573 30.9542C49.2831 31.3288 49.495 32.2135 49.6916 33.0341L49.6916 33.0342L49.6916 33.0342C49.7564 33.3049 49.8196 33.5686 49.8631 33.8047C49.8604 33.9148 49.9024 34.004 49.9443 34.0932C50.5622 36.7969 51.6077 39.1363 52.8943 41.5256Z" fill="url(#paint0_linear_790_3420)" fill-opacity="0.6"/>
<defs>
<linearGradient id="paint0_linear_790_3420" x1="151.23" y1="5.34213" x2="4.14511" y2="72.4485" gradientUnits="userSpaceOnUse">
<stop offset="0.0526782"/>
<stop offset="1" stop-opacity="0"/>
</linearGradient>
</defs>
</svg>
