<svg width="21" height="24" viewBox="0 0 21 24" fill="none" xmlns="http://www.w3.org/2000/svg">
<path d="M9.24753 2.22696C9.24753 3.82239 8.59494 5.2812 8.20802 6.80854C7.97366 7.73364 7.86505 8.59173 7.42838 9.46508C7.10715 10.1075 6.56125 10.3924 6.03273 10.7548C5.46068 11.1471 4.84883 11.0301 4.23283 11.3997C3.92556 11.5841 1.74535 11.6004 1.87467 11.7944C2.48522 12.7102 3.97776 12.9249 4.95472 13.2766C5.77018 13.5702 6.65168 13.6122 7.43801 13.9697C7.88018 14.1706 8.4009 14.1917 8.82403 14.3932C9.05199 14.5017 9.21993 14.7552 9.48816 14.8744C10.3145 15.2417 10.7651 16.4057 11.0763 17.1171C11.3806 17.8125 11.4998 18.9572 11.4998 19.7255C11.4998 20.3265 11.3752 20.8894 11.7501 21.3714C11.846 21.4947 11.8138 21.8389 11.8656 21.5543C11.9675 20.9936 12.0839 20.4132 12.3276 19.8987C12.7455 19.0166 13.4621 18.1366 13.7521 17.1941C14.0634 16.1822 14.7482 14.9493 15.5809 14.268C16.3581 13.6321 17.0202 13.1419 18.0449 13.1419C18.2476 13.1419 19.3105 13.2469 19.0267 12.882C18.7484 12.5241 18.3163 12.3214 17.9102 12.1409C17.0232 11.7467 15.8534 11.5903 15.0515 10.9666C14.2381 10.3339 13.4997 9.93947 12.8088 9.0512C12.3436 8.45305 12.2273 7.5802 11.7693 6.99141C11.5279 6.68103 10.8297 5.4118 10.8068 4.99901C10.7472 3.92665 10.6924 3.06711 10.2871 2.05371" stroke="white" stroke-width="3" stroke-linecap="round"/>
</svg>
