<svg width="540" height="493" viewBox="0 0 540 493" fill="none" xmlns="http://www.w3.org/2000/svg">
<path d="M519.493 325.49L524.114 323.213L523.953 318.064C523.874 315.548 523.936 313.303 524.005 310.858C524.045 309.406 524.088 307.883 524.103 306.191C524.142 302.044 523.987 297.396 522.798 292.675C517.552 270.693 511.612 248.808 505.726 227.12C505.074 224.717 504.423 222.316 503.773 219.918C501.723 212.246 498.359 205.22 491.884 201.102C485.312 196.922 477.498 196.968 469.532 198.761L469.52 198.764L469.508 198.767C441.52 205.154 413.693 212.09 385.984 219.389L385.976 219.391L385.968 219.393C378.691 221.326 370.944 224.173 367.515 231.561C365.848 235.153 365.624 238.956 365.951 242.539C366.275 246.091 367.201 250.019 368.404 254.243C370.303 260.95 373.349 267.466 379.734 271.037C385.964 274.521 393.287 274.004 400.541 272.378C409.974 270.291 419.615 267.812 429.075 265.379C435.557 263.713 441.953 262.068 448.14 260.586C454.772 259.004 456.369 259.776 456.648 259.95C457.012 260.176 458.426 261.392 460.163 268.081L460.17 268.107L460.177 268.134C460.7 270.093 461.118 271.957 461.568 273.96C461.8 274.992 462.04 276.062 462.307 277.201C463.941 284.459 463.246 286.102 463.075 286.389C462.945 286.605 461.917 288.005 454.701 289.828L454.679 289.833L454.658 289.838C447.524 291.682 440.366 293.384 433.131 295.104C432.625 295.224 432.119 295.344 431.613 295.464C423.896 297.3 416.096 299.167 408.327 301.224C401.546 302.986 394.337 305.438 390.551 311.637C386.744 317.871 387.928 325.378 389.476 332.072L389.48 332.09L389.484 332.107C391.775 341.813 394.394 351.482 396.972 361.004C397.821 364.138 398.666 367.257 399.493 370.355C401.225 376.937 402.276 381.359 402.647 384.598C402.827 386.16 402.807 387.149 402.727 387.762C402.69 388.052 402.642 388.229 402.611 388.323C402.581 388.412 402.559 388.449 402.551 388.463C402.542 388.477 402.518 388.516 402.45 388.585C402.378 388.659 402.239 388.785 401.994 388.955C401.477 389.314 400.599 389.791 399.124 390.357C396.064 391.53 391.654 392.648 385.029 394.177C379.078 395.547 377.337 394.881 376.861 394.602C376.404 394.334 374.953 393.153 373.277 387.221L373.275 387.213L373.272 387.204C371.355 380.476 369.464 373.464 367.555 366.381C364.969 356.795 362.35 347.08 359.584 337.768L359.581 337.76C357.567 331.004 354.45 324.389 347.82 321.044C341.487 317.848 334.151 318.816 327.105 320.596C319.948 322.356 312.78 324.835 308.588 330.419C303.951 336.595 304.647 344.014 306.388 350.74C313.501 378.496 320.983 406.16 328.836 433.734L328.84 433.749L328.844 433.763C331.143 441.723 335.281 448.437 342.067 452.366C348.811 456.27 356.731 456.587 364.862 454.818C390.613 449.275 416.202 443.183 441.671 436.729C449.661 434.761 456.801 431.358 461.059 424.809C465.34 418.225 465.507 410.318 463.95 402.216L463.948 402.209L463.947 402.202C461.425 389.206 458.069 376.405 454.79 363.897C454.247 361.825 453.706 359.762 453.172 357.708C452.159 353.728 451.607 351.181 451.426 349.378C451.376 348.883 451.364 348.527 451.367 348.281C451.519 348.194 451.724 348.085 451.995 347.958C453.45 347.275 455.741 346.53 459.556 345.495L459.568 345.491L459.581 345.488C464.593 344.11 469.974 342.772 475.472 341.404C483.694 339.36 492.178 337.25 500.081 334.844C503.83 333.732 507.161 332.085 510.194 330.462C511.274 329.884 512.288 329.326 513.286 328.776C515.281 327.678 517.215 326.613 519.493 325.49ZM450.983 348.535C450.983 348.535 450.988 348.53 451 348.52C450.99 348.53 450.984 348.535 450.983 348.535Z" stroke="white" stroke-opacity="0.1" stroke-width="16"/>
<path d="M186.729 267.505L190.812 265.438L191.099 260.87C191.172 259.718 191.316 258.768 191.502 257.55C191.589 256.977 191.685 256.345 191.787 255.604C192.053 253.671 192.379 250.815 191.763 247.807L191.758 247.78L191.752 247.754C187.949 229.802 183.78 211.962 179.433 194.201C178.662 191.041 178.316 189.034 178.251 187.676C178.233 187.289 178.241 187.019 178.255 186.842C178.393 186.751 178.604 186.626 178.913 186.472C180.094 185.885 182.01 185.217 185.185 184.389C192.42 182.522 199.691 180.77 207.025 179.002C207.629 178.857 208.232 178.711 208.836 178.566C216.763 176.654 224.757 174.715 232.702 172.614L232.712 172.612C239.999 170.674 247.406 167.906 251.298 161.394C255.224 154.824 254.067 147.003 252.155 139.65C246.224 116.508 239.954 93.3776 233.713 70.3518C232.469 65.7637 231.227 61.1799 229.988 56.6009L229.985 56.5868L229.981 56.5726C228.1 49.7175 225.258 42.9223 219.1 39.1363C212.862 35.3011 205.525 35.9427 198.508 37.6124C170.146 44.1906 141.939 51.024 113.823 58.227C106.242 60.1507 99.6916 63.9468 96.1979 70.8025C92.828 77.4155 93.253 85.0721 95.2636 92.6049C97.0818 99.4168 100.241 105.806 106.445 109.513C112.587 113.181 119.833 113.091 127.123 111.523C134.612 109.978 142.303 108.174 149.895 106.393C154.851 105.23 159.765 104.077 164.553 103.012L164.653 102.99L164.752 102.966C171.894 101.185 176.627 100.05 180.106 99.6197C182.956 99.2673 183.879 99.5524 184.037 99.6173C184.157 99.7201 184.85 100.419 185.862 103.245C187.061 106.59 188.2 111.363 189.869 118.56C190.941 123.218 190.332 124.881 190.053 125.362C189.864 125.688 188.962 126.971 184.476 127.996C167.616 131.745 150.941 136.041 134.393 140.5L134.371 140.505L134.35 140.511C127.891 142.29 120.933 144.792 117.305 150.92C113.664 157.071 114.858 164.363 116.441 170.837L116.445 170.851L116.448 170.864C120.377 186.693 124.605 202.535 128.812 218.297L128.821 218.329C129.792 221.97 130.254 224.309 130.363 225.914C130.408 226.571 130.382 226.959 130.354 227.16C130.187 227.292 129.839 227.527 129.188 227.843C127.706 228.564 125.421 229.344 121.789 230.334C120.126 230.743 118.801 231.106 117.586 231.439C115.981 231.878 114.57 232.264 112.831 232.636L112.793 232.644L112.756 232.653C106.194 234.122 104.379 233.454 103.886 233.164C103.433 232.899 101.962 231.694 100.142 225.23L100.138 225.218L100.135 225.205C98.2189 218.486 96.3425 211.454 94.4497 204.36C91.9718 195.074 89.4659 185.683 86.8069 176.752L86.805 176.746C84.8016 170.037 81.7162 163.604 75.442 160.176C69.277 156.807 62.2092 157.554 55.5579 159.186C48.1375 160.957 41.4357 164.3 37.1934 170.057C32.7471 176.091 31.9922 183.409 33.9052 190.825C40.7123 217.434 47.7237 244.075 55.4846 270.564C57.911 278.982 62.4023 286.016 69.3521 290.27C76.3376 294.546 84.6457 295.302 93.2659 293.42C117.377 288.21 141.279 282.239 165.105 276.287C167.5 275.689 169.894 275.091 172.288 274.494C175.578 273.683 178.4 272.228 180.644 270.962C181.626 270.408 182.441 269.927 183.189 269.486C184.405 268.768 185.443 268.156 186.729 267.505ZM178.295 186.561C178.295 186.561 178.294 186.568 178.289 186.582C178.293 186.568 178.295 186.561 178.295 186.561ZM178.047 186.995C178.035 187.007 178.028 187.013 178.028 187.013C178.027 187.013 178.033 187.007 178.047 186.995ZM184.063 99.6296C184.062 99.6299 184.056 99.6272 184.045 99.6207C184.058 99.6262 184.063 99.6294 184.063 99.6296ZM184.029 99.6109C184.022 99.606 184.018 99.6031 184.018 99.6028C184.018 99.6026 184.022 99.6051 184.029 99.6109ZM130.318 227.338C130.317 227.337 130.32 227.326 130.328 227.306C130.322 227.328 130.318 227.338 130.318 227.338ZM130.469 227.062C130.48 227.048 130.487 227.041 130.488 227.042C130.488 227.042 130.482 227.049 130.469 227.062Z" stroke="white" stroke-opacity="0.1" stroke-width="16"/>
<path d="M313.775 256.141L313.801 256.157L317.85 249.257L317.866 249.231C336.234 217.936 354.653 186.823 373.081 155.694C375.091 152.297 377.753 147.458 378.377 142.134C379.097 135.994 377.052 129.925 371.31 125.078L371.309 125.077C358.686 114.429 342.862 106.424 323.463 110.953L323.456 110.955C321.608 111.388 319.573 111.802 317.423 112.239C310.899 113.567 303.313 115.111 296.678 118.054L296.655 118.064L296.632 118.074C292.356 120.003 288.695 122.702 285.577 125.225C284.095 126.425 282.858 127.473 281.696 128.458C280.105 129.807 278.656 131.036 276.911 132.369L268.428 138.847L277.026 145.171C278.573 146.309 279.87 147.376 281.324 148.573C282.351 149.417 283.455 150.326 284.781 151.369C287.616 153.6 291.006 156.042 294.954 157.77L294.961 157.774L294.968 157.777C298.966 159.517 301.466 160.708 303.076 161.717C303.252 161.828 303.404 161.928 303.535 162.018C303.515 162.074 303.494 162.132 303.471 162.194C302.878 163.79 301.666 166.099 299.491 169.773C286.352 191.968 273.183 214.147 260.011 236.331L260.011 236.331L260.007 236.338C246.837 258.518 233.664 280.704 220.52 302.908C217.153 308.595 214.962 312.274 213.081 314.772C212.182 315.966 211.546 316.623 211.115 316.985C210.913 317.155 210.781 317.238 210.715 317.276C210.681 317.295 210.66 317.304 210.65 317.309C210.64 317.313 210.634 317.315 210.631 317.316C210.628 317.317 210.621 317.319 210.606 317.322C210.591 317.325 210.562 317.329 210.516 317.333C210.424 317.341 210.249 317.346 209.962 317.318C209.355 317.258 208.408 317.066 206.938 316.585C203.874 315.583 199.852 313.786 193.708 311.023L193.671 311.006L193.634 310.99C193.543 310.95 193.429 310.899 193.297 310.84C192.459 310.466 190.872 309.757 189.44 309.324L189.299 309.281L189.156 309.243C184.982 308.145 180.983 307.957 177.209 308.872C173.404 309.794 170.378 311.704 167.98 313.957C164.243 317.469 161.578 322.419 159.705 325.898C159.411 326.445 159.136 326.956 158.879 327.419L158.875 327.426L158.871 327.434C156.028 332.594 154.79 338.352 156.824 344.084C158.756 349.528 163.081 353.307 167.642 356.008L167.657 356.017L167.672 356.026C193.986 371.448 220.219 386.978 246.309 402.731L246.339 402.749L246.369 402.767C251.68 405.911 257.562 407.837 263.674 406.358C269.695 404.901 273.958 400.606 277.162 395.975L277.167 395.967L277.172 395.96C281.923 389.059 285.494 381.544 283.901 373.583C282.31 365.635 276.125 360.015 268.975 355.375L268.959 355.365L268.944 355.355C265.078 352.871 262.664 351.201 261.123 349.842C260.436 349.236 260.095 348.839 259.938 348.629C259.983 348.378 260.103 347.893 260.422 347.092C261.166 345.218 262.549 342.674 264.874 338.746L264.978 338.571L265.082 338.396L265.185 338.221L265.289 338.046L265.392 337.871L265.496 337.696L265.6 337.521L265.703 337.346L265.807 337.171L265.91 336.996L266.014 336.821L266.118 336.646L266.221 336.471L266.325 336.296L266.428 336.121L266.532 335.946L266.635 335.771L266.739 335.596L266.843 335.422L266.946 335.247L267.05 335.072L267.153 334.897L267.257 334.722L267.36 334.547L267.464 334.372L267.568 334.197L267.671 334.022L267.775 333.847L267.878 333.672L267.982 333.497L268.085 333.322L268.189 333.147L268.292 332.972L268.396 332.797L268.5 332.622L268.603 332.448L268.707 332.273L268.81 332.098L268.914 331.923L269.017 331.748L269.121 331.573L269.224 331.398L269.328 331.223L269.431 331.048L269.535 330.873L269.639 330.698L269.742 330.524L269.846 330.349L269.949 330.174L270.053 329.999L270.156 329.824L270.26 329.649L270.363 329.474L270.467 329.299L270.57 329.125L270.674 328.95L270.777 328.775L270.881 328.6L270.984 328.425L271.088 328.25L271.191 328.075L271.295 327.9L271.399 327.726L271.502 327.551L271.606 327.376L271.709 327.201L271.813 327.026L271.916 326.851L272.02 326.676L272.123 326.502L272.227 326.327L272.33 326.152L272.434 325.977L272.537 325.802L272.641 325.627L272.744 325.452L272.848 325.278L272.951 325.103L273.055 324.928L273.158 324.753L273.262 324.578L273.365 324.404L273.469 324.229L273.572 324.054L273.676 323.879L273.779 323.704L273.883 323.529L273.986 323.355L274.09 323.18L274.193 323.005L274.296 322.83L274.4 322.655L274.503 322.481L274.607 322.306L274.71 322.131L274.814 321.956L274.917 321.781L275.021 321.607L275.124 321.432L275.228 321.257L275.331 321.082L275.435 320.907L275.538 320.733L275.642 320.558L275.745 320.383L275.849 320.208L275.952 320.033L276.056 319.859L276.159 319.684L276.263 319.509L276.366 319.334L276.469 319.159L276.573 318.985L276.676 318.81L276.78 318.635L276.883 318.46L276.987 318.286L277.09 318.111L277.194 317.936L277.297 317.761L277.401 317.587L277.504 317.412L277.608 317.237L277.711 317.062L277.814 316.887L277.918 316.713L278.021 316.538L278.125 316.363L278.228 316.188L278.332 316.014L278.435 315.839L278.539 315.664L278.642 315.489L278.745 315.315L278.849 315.14L278.952 314.965L279.056 314.79L279.159 314.616L279.263 314.441L279.366 314.266L279.47 314.092L279.573 313.917L279.676 313.742L279.78 313.567L279.883 313.393L279.987 313.218L280.09 313.043L280.194 312.868L280.297 312.694L280.401 312.519L280.504 312.344L280.607 312.169L280.711 311.995L280.814 311.82L280.918 311.645L281.021 311.471L281.125 311.296L281.228 311.121L281.331 310.946L281.435 310.772L281.538 310.597L281.642 310.422L281.745 310.248L281.849 310.073L281.952 309.898L282.055 309.723L282.159 309.549L282.262 309.374L282.366 309.199L282.469 309.025L282.573 308.85L282.676 308.675L282.779 308.5L282.883 308.326L282.986 308.151L283.09 307.976L283.193 307.802L283.297 307.627L283.4 307.452L283.503 307.277L283.607 307.103L283.71 306.928L283.814 306.753L283.917 306.579L284.02 306.404L284.124 306.229L284.227 306.055L284.331 305.88L284.434 305.705L284.538 305.531L284.641 305.356L284.744 305.181L284.848 305.006L284.951 304.832L285.055 304.657L285.158 304.482L285.261 304.308L285.365 304.133L285.468 303.958L285.572 303.784L285.675 303.609L285.779 303.434L285.882 303.26L285.985 303.085L286.089 302.91L286.192 302.735L286.296 302.561L286.399 302.386L286.502 302.211L286.606 302.037L286.709 301.862L286.813 301.687L286.916 301.513L287.019 301.338L287.123 301.163L287.226 300.989L287.33 300.814L287.433 300.639L287.536 300.465L287.64 300.29L287.743 300.115L287.847 299.941L287.95 299.766L288.054 299.591L288.157 299.417L288.26 299.242L288.364 299.067L288.467 298.893L288.571 298.718L288.674 298.543L288.777 298.369L288.881 298.194L288.984 298.019L289.088 297.845L289.191 297.67L289.294 297.495L289.398 297.32L289.501 297.146L289.605 296.971L289.708 296.796L289.811 296.622L289.915 296.447L290.018 296.272L290.122 296.098L290.225 295.923L290.328 295.748L290.432 295.574L290.535 295.399L290.639 295.224L290.742 295.05L290.845 294.875L290.949 294.7L291.052 294.526L291.156 294.351L291.259 294.176L291.362 294.002L291.466 293.827L291.569 293.652L291.673 293.478L291.776 293.303L291.879 293.128L291.983 292.954L292.086 292.779L292.19 292.604L292.293 292.43L292.396 292.255L292.5 292.08L292.603 291.906L292.707 291.731L292.81 291.556L292.913 291.382L293.017 291.207L293.12 291.032L293.224 290.858L293.327 290.683L293.43 290.508L293.534 290.334L293.637 290.159L293.741 289.984L293.844 289.81L293.947 289.635L294.051 289.46L294.154 289.286L294.258 289.111L294.361 288.936L294.465 288.762L294.568 288.587L294.671 288.412L294.775 288.237L294.878 288.063L294.982 287.888L295.085 287.713L295.188 287.539L295.292 287.364L295.395 287.189L295.499 287.015L295.602 286.84L295.705 286.665L295.809 286.491L295.912 286.316L296.016 286.141L296.119 285.967L296.222 285.792L296.326 285.617L296.429 285.443L296.533 285.268L296.636 285.093L296.739 284.919L296.843 284.744L296.946 284.569L297.05 284.395L297.153 284.22L297.257 284.045L297.36 283.87L297.463 283.696L297.567 283.521L297.67 283.346L297.774 283.172L297.877 282.997L297.98 282.822L298.084 282.648L298.187 282.473L298.291 282.298L298.394 282.124L298.498 281.949L298.601 281.774L298.704 281.599L298.808 281.425L298.911 281.25L299.015 281.075L299.118 280.901L299.221 280.726L299.325 280.551L299.428 280.377L299.532 280.202L299.635 280.027L299.739 279.852L299.842 279.678L299.945 279.503L300.049 279.328L300.152 279.154L300.256 278.979L300.359 278.804L300.463 278.629L300.566 278.455L300.669 278.28L300.773 278.105L300.876 277.931L300.98 277.756L301.083 277.581L301.187 277.406L301.29 277.232L301.393 277.057L301.497 276.882L301.6 276.708L301.704 276.533L301.807 276.358L301.911 276.183L302.014 276.009L302.117 275.834L302.221 275.659L302.324 275.485L302.428 275.31L302.531 275.135L302.635 274.96L302.738 274.786L302.841 274.611L302.945 274.436L303.048 274.261L303.152 274.087L303.255 273.912L303.359 273.737L303.462 273.562L303.566 273.388L303.669 273.213L303.772 273.038L303.876 272.863L303.979 272.689L304.083 272.514L304.186 272.339L304.29 272.164L304.393 271.99L304.497 271.815L304.6 271.64L304.703 271.465L304.807 271.291L304.91 271.116L305.014 270.941L305.117 270.766L305.221 270.592L305.324 270.417L305.428 270.242L305.531 270.067L305.635 269.893L305.738 269.718L305.842 269.543L305.945 269.368L306.048 269.193L306.152 269.019L306.255 268.844L306.359 268.669L306.462 268.494L306.566 268.32L306.669 268.145L306.773 267.97L306.876 267.795L306.98 267.62L307.083 267.446L307.187 267.271L307.29 267.096L307.394 266.921L307.497 266.746L307.6 266.572L307.704 266.397L307.807 266.222L307.911 266.047L308.014 265.872L308.118 265.698L308.221 265.523L308.325 265.348L308.428 265.173L308.532 264.998L308.635 264.824L308.739 264.649L308.842 264.474L308.946 264.299L309.049 264.124L309.153 263.95L309.256 263.775L309.36 263.6L309.463 263.425L309.567 263.25L309.67 263.075L309.774 262.901L309.877 262.726L309.981 262.551L310.084 262.376L310.188 262.201L310.291 262.026L310.395 261.852L310.498 261.677L310.602 261.502L310.705 261.327L310.809 261.152L310.912 260.977L311.016 260.802L311.119 260.628L311.223 260.453L311.326 260.278L311.43 260.103L311.533 259.928L311.637 259.753L311.74 259.578L311.844 259.404L311.947 259.229L312.051 259.054L312.154 258.879L312.258 258.704L312.362 258.529L312.465 258.354L312.569 258.179L312.672 258.004L312.776 257.83L312.879 257.655L312.983 257.48L313.086 257.305L313.19 257.13L313.293 256.955L313.397 256.78L313.5 256.605L313.604 256.43L313.707 256.256L313.775 256.141ZM303.781 161.129C303.781 161.129 303.781 161.134 303.779 161.146C303.78 161.135 303.781 161.129 303.781 161.129ZM259.819 348.447C259.82 348.447 259.823 348.454 259.829 348.466C259.821 348.453 259.818 348.447 259.819 348.447ZM259.914 348.821C259.914 348.838 259.914 348.848 259.913 348.848C259.913 348.848 259.913 348.84 259.914 348.821Z" stroke="white" stroke-opacity="0.1" stroke-width="16"/>
</svg>
