<svg width="753" height="571" viewBox="0 0 753 571" fill="none" xmlns="http://www.w3.org/2000/svg">
<g filter="url(#filter0_d_925_531)">
<g filter="url(#filter1_d_925_531)">
<path d="M126.02 340.119C136.93 338.359 148.544 335.632 158.927 329.209C159.983 328.505 160.511 326.305 160.511 324.721C160.599 310.908 160.599 297.182 160.599 283.368C160.599 270.522 167.637 263.483 180.483 263.483C189.018 263.483 197.465 263.395 205.999 263.483C216.47 263.571 224.037 270.434 224.301 280.904C224.652 297.006 224.388 313.195 224.388 329.297C224.388 329.737 224.125 330.089 223.861 331.056C219.725 331.056 215.502 331.056 211.367 331.056C196.321 330.88 181.715 334.224 167.285 337.831C146.081 343.198 125.052 349.093 103.935 354.461C92.7613 357.276 81.499 359.388 70.0608 355.78C63.2859 353.669 57.3028 350.061 52.9035 344.342C51.7597 343.022 51.1438 341.439 50 339.239C54.1353 339.239 57.3908 339.239 60.9983 339.239C60.9983 274.921 60.9983 211.043 60.9983 146.989C68.1251 144.526 74.1962 140.918 78.4195 134.847C81.411 130.536 83.6987 126.049 81.1471 120.506C80.7072 119.538 81.675 117.514 82.4669 116.282C93.2012 98.421 103.76 80.5599 114.846 62.9626C120.301 54.34 119.861 45.5414 117.749 36.3908C116.957 32.9594 115.814 29.7039 115.022 26.2724C114.142 21.9611 116.166 20.2894 120.125 22.1371C124.348 24.0728 128.396 26.3604 132.267 29C145.201 37.8866 159.103 43.0778 174.94 41.67C185.499 40.7021 196.057 39.2944 206.615 38.5905C225.356 37.2707 243.745 38.6785 259.319 50.9085C270.405 59.6192 274.805 72.0252 275.508 85.5751C275.948 93.4058 274.717 101.325 273.485 109.067C272.693 114.083 271.021 113.995 266.006 113.027C252.544 110.299 242.69 101.149 231.339 94.6376C223.861 90.3263 221.749 80.4719 225.268 72.9051C229.404 63.8425 224.301 54.7799 214.358 53.1082C202.92 51.1725 192.186 54.6919 181.275 57.1556C178.724 57.7715 176.26 58.5633 173.796 59.5312C170.805 60.675 170.101 62.8747 171.773 65.5142C175.38 71.0574 174.94 77.0404 172.389 82.3196C168.517 90.1503 164.558 98.2451 159.015 104.932C150.744 114.962 141.242 123.937 131.827 133C129.275 135.463 128.132 137.663 128.132 141.27C128.22 204.796 128.22 268.234 128.132 331.76C128.132 334.312 126.812 336.951 126.02 340.119Z" fill="white"/>
</g>
<g filter="url(#filter2_d_925_531)">
<path d="M187.346 339.238C205.911 333.607 223.948 337.214 242.337 343.725C242.337 341.525 242.337 339.854 242.337 338.094C242.337 291.021 242.337 243.949 242.425 196.876C242.425 194.325 243.393 191.421 244.713 189.221C253.951 174.44 263.542 159.834 272.692 145.052C282.987 128.511 287.298 110.298 285.362 90.9409C284.131 78.8868 281.315 67.1847 275.86 56.1864C275.244 55.0426 274.452 53.8988 274.188 52.667C273.924 51.6111 273.836 50.0274 274.364 49.4115C274.892 48.7956 276.652 48.7956 277.532 49.2355C281.755 51.1712 286.066 53.0189 290.026 55.5705C298.648 61.2016 307.711 63.4893 318.181 62.9614C331.379 62.2575 344.577 62.7854 357.775 62.7854C368.949 62.7854 376.34 69.8243 376.692 80.9105C376.868 89.7091 376.956 98.5077 376.692 107.306C376.34 119.096 369.125 125.871 357.335 125.959C352.496 125.959 347.656 125.871 342.817 125.959C338.242 126.135 333.931 125.519 329.707 123.232C325.748 121.12 322.668 122.528 321.877 127.015C320.909 132.03 320.733 137.134 320.205 142.237C318.973 154.555 314.222 165.641 308.679 176.463C302.608 188.342 309.295 203.915 324.78 204.179C330.939 204.267 337.098 204.179 343.257 204.179C353.904 204.267 361.294 210.866 361.646 221.336C361.998 231.103 361.998 240.957 361.646 250.812C361.206 262.25 354.079 268.673 342.553 268.673C336.658 268.673 330.851 268.585 324.956 268.673C314.046 268.761 306.743 276.064 306.655 286.974C306.567 304.307 306.567 321.553 306.655 338.886C306.655 349.708 314.046 357.099 324.868 357.187C337.362 357.275 349.768 357.187 362.262 357.275C370.093 357.363 376.428 361.586 378.804 368.713C379.507 370.913 379.068 373.816 378.276 376.104C377.484 378.392 375.812 380.503 374.14 382.263C360.063 397.045 342.817 406.899 322.492 408.131C302.872 409.275 284.043 403.996 268.293 391.238C257.383 382.351 247.264 372.584 236.53 363.434C224.388 353.14 211.014 345.045 195.089 341.877C192.449 341.349 189.809 340.909 187.258 340.382C187.258 340.118 187.258 339.678 187.346 339.238Z" fill="white"/>
</g>
<g filter="url(#filter3_d_925_531)">
<path d="M434.231 337.416C423.409 333.984 420.945 325.186 420.241 315.595C419.449 304.597 422.881 294.567 426.84 284.448C430.536 274.946 434.143 265.267 436.959 255.501C439.158 247.758 437.838 239.839 435.815 232.009C434.935 228.665 434.407 225.146 434.319 221.714C434.143 201.213 434.231 180.625 434.231 160.124C434.231 147.806 427.192 140.855 414.874 140.679C410.475 140.679 405.987 140.767 401.764 139.887C393.669 138.215 388.478 131.44 388.39 123.082C388.302 113.843 388.302 104.605 388.39 95.3661C388.478 84.8077 395.869 77.5049 406.515 77.5049C446.285 77.5049 485.967 77.5049 525.737 77.5049C536.823 77.5049 544.126 84.8077 544.302 95.982C544.39 104.605 544.39 113.315 544.302 121.938C544.126 133.64 536.911 140.679 525.121 140.767C522.041 140.767 518.962 140.679 515.882 140.767C506.38 140.943 499.253 147.718 498.461 157.22C498.285 158.98 498.373 160.74 498.373 162.499C498.373 246.79 498.373 331.081 498.373 415.372C498.373 430.593 492.038 436.928 476.728 437.016C468.81 437.016 460.891 437.104 452.972 437.016C441.358 436.928 434.143 429.625 434.143 418.011C434.143 392.759 434.143 367.595 434.143 342.343C434.231 340.759 434.231 339.088 434.231 337.416Z" fill="white"/>
</g>
<path d="M347.305 425.201C352.584 423.441 357.863 421.417 363.23 420.097C369.917 418.338 376.868 417.722 383.555 420.097C386.722 421.241 389.802 423.265 392.354 425.552C395.081 428.016 395.521 431.008 392.882 434.527C391.122 436.815 390.154 439.982 389.45 442.886C388.834 445.349 387.954 446.669 385.403 446.317C382.851 445.965 379.86 446.229 377.748 444.997C367.542 439.366 357.511 433.295 347.481 427.312C347.393 426.608 347.393 425.904 347.305 425.201Z" fill="white"/>
<path d="M392.176 34.3662C379.77 35.9499 365.516 29.175 361.469 20.2004C366.66 17.0329 374.139 23.1039 392.176 34.3662Z" fill="white"/>
<g filter="url(#filter4_d_925_531)">
<path d="M723.008 134.495C722.216 138.102 721.688 141.798 720.72 145.405C715.353 165.994 709.986 186.583 704.619 207.171C704.179 209.019 703.827 210.867 703.475 212.715C702.947 215.618 703.475 217.73 706.378 219.578C717.729 226.88 727.847 235.503 734.006 247.821C741.573 262.955 740.253 278.352 733.214 292.782C725.559 308.532 716.497 323.753 707.258 338.623C701.715 347.597 691.773 349.005 682.622 343.462C678.223 340.822 673.736 338.271 669.512 335.455C668.632 334.839 667.84 332.904 668.104 331.848C671.712 316.538 675.847 301.405 679.015 286.095C681.39 274.833 682.27 263.219 684.206 251.868C686.494 238.055 688.869 224.329 691.597 210.691C693.708 200.309 696.524 190.014 698.9 179.632C699.076 178.664 698.9 177.696 698.9 177.168C687.725 177.168 676.727 177.432 665.817 177.08C656.314 176.816 649.363 169.161 649.187 159.395C649.099 150.596 649.187 141.798 649.187 132.999C649.187 130.975 649.099 128.864 648.924 126.84C648.044 115.49 638.365 109.947 628.071 114.874C623.847 116.81 622.352 120.769 621.824 124.904C619.272 146.549 622 166.61 637.661 183.503C651.035 197.933 663.793 212.891 676.903 227.408C679.807 230.576 680.862 233.391 679.895 237.967C677.607 249.141 676.639 260.579 674.351 271.753C671.096 287.591 667.401 303.34 663.441 319.002C659.394 335.103 656.05 351.293 656.754 368.01C657.282 381.912 661.593 394.494 669.424 405.844C673.736 412.091 678.047 418.338 682.358 424.673C685.174 428.721 684.734 430.92 680.335 433.032C675.847 435.144 671.184 436.903 666.609 438.839C657.634 442.71 653.235 449.397 653.851 459.252C654.027 462.067 654.027 464.795 653.851 467.61C653.411 472.626 651.475 475.089 646.636 474.561C634.758 473.329 628.159 478.697 622.968 488.991C616.721 501.397 608.098 512.483 597.804 522.074C583.726 535.184 567.536 543.014 547.915 542.311C544.132 542.223 540.437 541.431 536.477 540.991C534.542 521.546 539.557 504.389 550.555 488.903C561.905 472.978 577.743 462.155 593.668 451.509C601.147 446.494 608.714 441.479 615.841 435.935C618.656 433.736 620.416 430.128 622.352 427.577C612.233 425.465 602.555 424.321 593.492 421.242C571.496 413.763 559.266 397.397 554.954 375.049C553.459 367.306 553.019 359.387 552.843 351.469C552.491 336.687 552.667 321.817 552.755 307.036C552.843 294.366 559.706 287.415 572.288 287.415C580.47 287.415 588.741 287.415 596.924 287.415C608.362 287.503 615.753 294.542 615.841 305.98C616.017 318.298 615.665 330.616 616.017 342.934C616.105 347.685 616.721 352.613 618.04 357.188C619.536 362.555 623.671 365.898 629.303 366.25C633.086 366.514 633.878 368.362 634.054 371.53C634.142 373.201 634.67 374.873 634.934 376.545C635.374 376.545 635.726 376.633 636.166 376.633C636.869 372.761 637.573 368.89 638.365 365.019C641.269 350.061 644.612 335.191 646.812 320.146C647.604 314.779 646.284 308.795 644.612 303.516C641.533 293.134 634.142 285.303 627.103 277.472C612.409 260.931 597.276 244.742 582.846 227.936C566.92 209.371 558.474 187.375 556.714 163.002C555.482 145.493 554.602 127.808 558.122 110.387C563.577 83.463 580.118 66.8336 606.778 61.1145C627.367 56.6272 648.308 57.2431 668.808 61.6424C691.421 66.4817 704.707 81.2633 708.578 103.876C710.25 113.466 710.338 123.409 711.042 133.175C711.306 136.343 711.042 139.51 711.042 143.206C714.737 139.598 717.905 136.519 721.072 133.439C721.776 133.703 722.392 134.055 723.008 134.495Z" fill="white"/>
</g>
</g>
<defs>
<filter id="filter0_d_925_531" x="50" y="19.3643" width="702.201" height="536.075" filterUnits="userSpaceOnUse" color-interpolation-filters="sRGB">
<feFlood flood-opacity="0" result="BackgroundImageFix"/>
<feColorMatrix in="SourceAlpha" type="matrix" values="0 0 0 0 0 0 0 0 0 0 0 0 0 0 0 0 0 0 127 0" result="hardAlpha"/>
<feOffset dx="13.0848" dy="13.0848"/>
<feComposite in2="hardAlpha" operator="out"/>
<feColorMatrix type="matrix" values="0 0 0 0 0 0 0 0 0 0 0 0 0 0 0 0 0 0 0.25 0"/>
<feBlend mode="normal" in2="BackgroundImageFix" result="effect1_dropShadow_925_531"/>
<feBlend mode="normal" in="SourceGraphic" in2="effect1_dropShadow_925_531" result="shape"/>
</filter>
<filter id="filter1_d_925_531" x="0.932053" y="0.130007" width="274.668" height="385.366" filterUnits="userSpaceOnUse" color-interpolation-filters="sRGB">
<feFlood flood-opacity="0" result="BackgroundImageFix"/>
<feColorMatrix in="SourceAlpha" type="matrix" values="0 0 0 0 0 0 0 0 0 0 0 0 0 0 0 0 0 0 127 0" result="hardAlpha"/>
<feOffset dx="-24.534" dy="3.2712"/>
<feGaussianBlur stdDeviation="12.267"/>
<feComposite in2="hardAlpha" operator="out"/>
<feColorMatrix type="matrix" values="0 0 0 0 0 0 0 0 0 0 0 0 0 0 0 0 0 0 0.6 0"/>
<feBlend mode="normal" in2="BackgroundImageFix" result="effect1_dropShadow_925_531"/>
<feBlend mode="normal" in="SourceGraphic" in2="effect1_dropShadow_925_531" result="shape"/>
</filter>
<filter id="filter2_d_925_531" x="138.19" y="27.662" width="240.966" height="408.426" filterUnits="userSpaceOnUse" color-interpolation-filters="sRGB">
<feFlood flood-opacity="0" result="BackgroundImageFix"/>
<feColorMatrix in="SourceAlpha" type="matrix" values="0 0 0 0 0 0 0 0 0 0 0 0 0 0 0 0 0 0 127 0" result="hardAlpha"/>
<feOffset dx="-24.534" dy="3.2712"/>
<feGaussianBlur stdDeviation="12.267"/>
<feComposite in2="hardAlpha" operator="out"/>
<feColorMatrix type="matrix" values="0 0 0 0 0 0 0 0 0 0 0 0 0 0 0 0 0 0 0.6 0"/>
<feBlend mode="normal" in2="BackgroundImageFix" result="effect1_dropShadow_925_531"/>
<feBlend mode="normal" in="SourceGraphic" in2="effect1_dropShadow_925_531" result="shape"/>
</filter>
<filter id="filter3_d_925_531" x="339.256" y="56.2421" width="205.111" height="408.618" filterUnits="userSpaceOnUse" color-interpolation-filters="sRGB">
<feFlood flood-opacity="0" result="BackgroundImageFix"/>
<feColorMatrix in="SourceAlpha" type="matrix" values="0 0 0 0 0 0 0 0 0 0 0 0 0 0 0 0 0 0 127 0" result="hardAlpha"/>
<feOffset dx="-24.534" dy="3.2712"/>
<feGaussianBlur stdDeviation="12.267"/>
<feComposite in2="hardAlpha" operator="out"/>
<feColorMatrix type="matrix" values="0 0 0 0 0 0 0 0 0 0 0 0 0 0 0 0 0 0 0.6 0"/>
<feBlend mode="normal" in2="BackgroundImageFix" result="effect1_dropShadow_925_531"/>
<feBlend mode="normal" in="SourceGraphic" in2="effect1_dropShadow_925_531" result="shape"/>
</filter>
<filter id="filter4_d_925_531" x="487.002" y="36.7694" width="252.114" height="533.39" filterUnits="userSpaceOnUse" color-interpolation-filters="sRGB">
<feFlood flood-opacity="0" result="BackgroundImageFix"/>
<feColorMatrix in="SourceAlpha" type="matrix" values="0 0 0 0 0 0 0 0 0 0 0 0 0 0 0 0 0 0 127 0" result="hardAlpha"/>
<feOffset dx="-24.534" dy="3.2712"/>
<feGaussianBlur stdDeviation="12.267"/>
<feComposite in2="hardAlpha" operator="out"/>
<feColorMatrix type="matrix" values="0 0 0 0 0 0 0 0 0 0 0 0 0 0 0 0 0 0 0.6 0"/>
<feBlend mode="normal" in2="BackgroundImageFix" result="effect1_dropShadow_925_531"/>
<feBlend mode="normal" in="SourceGraphic" in2="effect1_dropShadow_925_531" result="shape"/>
</filter>
</defs>
</svg>
