<svg width="727" height="430" viewBox="0 0 727 430" fill="none" xmlns="http://www.w3.org/2000/svg">
<g filter="url(#filter0_d_925_440)">
<path d="M123.766 146.717C124.221 160.626 125.23 174.489 125.036 188.366C124.771 205.736 123.676 223.175 122.766 240.599C121.842 257.588 120.732 274.593 119.347 291.621C118.694 299.957 120.879 307.358 124.258 314.484C126.643 319.514 128.938 324.639 131.505 329.566C134.472 335.419 140.007 337.744 147.841 336.825C154.198 336.03 159.07 332.221 160.998 326.131C163.014 319.86 164.014 313.674 157.765 309.317C151.986 305.182 152.453 299.651 153.076 293.235C154.75 276.531 155.406 259.826 156.527 243.169C156.779 239.574 156.937 235.899 157.281 232.296C158.185 223.154 165.711 215.636 175.32 215.265C186.225 214.872 197.143 214.914 207.981 215.312C218.08 215.771 224.434 223.345 223.937 233.586C223.372 244.617 222.995 255.72 221.69 266.726C220.677 275.354 222.23 283.244 225.894 290.607C228.57 296.049 229.493 301.638 229.505 307.652C229.496 321.513 229.02 335.239 224.374 348.792C215.347 375.441 196.169 391.609 167.479 396.982C149.824 400.295 131.93 401.972 114.183 399.626C89.6542 396.455 73.0501 383.815 65.0218 361.824C56.3973 338.575 50.0623 314.612 51.6309 289.025C52.74 272.021 53.9413 255.008 54.9582 238.011C55.2631 233.191 55.1989 228.402 55.0425 223.62C53.9449 190.064 53.124 156.484 51.6545 122.871C50.9268 106.282 55.4115 90.6504 60.9082 74.8464C65.1347 62.6359 74.5141 55.2232 85.2137 48.5714C95.0971 42.4239 105.983 38.6332 117.401 36.9771C133.331 34.6805 149.279 32.9056 165.239 34.355C194.655 37.0283 213.291 52.3751 219.463 79.8395C221.517 88.9073 222.288 98.3444 222.872 107.71C223.639 119.85 223.761 132.044 224.156 144.128C224.676 160.037 215.968 168.178 199.117 167.762C191.338 167.544 183.47 167.42 175.697 167.375C162.097 167.384 157.716 163.567 157.295 150.701C156.906 138.791 156.519 126.968 156.129 115.058C156.053 112.71 155.976 110.363 155.625 108.126C153.39 96.3711 142.866 91.4142 130.821 96.5228C125.529 98.7977 123.172 103.093 122.503 108.118C122.052 111.294 121.973 114.526 122.075 117.656C122.301 127.4 122.709 137.042 123.028 146.779C123.212 146.763 123.489 146.74 123.766 146.717Z" fill="white"/>
</g>
<g filter="url(#filter1_d_925_440)">
<path d="M314.738 385.585C297.588 387.021 280.438 388.457 263.289 389.892C249.94 391.01 242.39 384.743 241.982 372.291C241.31 351.826 240.735 331.441 239.878 310.993C239.617 305.862 238.979 300.589 237.518 295.734C233.04 281.09 232.361 266.04 233.715 250.645C235.063 235.077 236.041 219.539 236.737 203.937C237.042 196.228 236.049 188.626 235.798 180.963C234.575 143.692 233.259 106.429 232.222 69.1418C232.136 66.5294 232.783 63.5936 234.007 61.2208C239.078 51.4529 244.528 41.9152 249.883 32.2982C253.571 25.7023 259.592 22.2293 267.028 22.2181C291.845 22.149 316.671 22.3411 341.404 22.541C348.935 22.6091 356.391 23.2074 363.937 23.7109C372.88 24.2721 381.205 31.5215 383.19 41.0479C384.624 47.9136 385.6 54.9923 386.202 62.0149C387.418 76.4085 379.147 84.9598 363.567 86.0894C350.583 87.0017 337.599 87.914 324.618 88.9133C317.663 89.4083 311.436 92.2872 306.952 97.2906C304.353 100.215 301.605 104.287 301.533 107.786C301.437 121.853 301.807 135.968 302.916 149.934C303.57 158.524 309.753 162.809 319.987 163.088C328.454 163.339 336.899 162.894 345.45 162.877C354.375 162.916 360.46 167.035 363.026 174.417C363.442 175.779 363.862 177.228 363.815 178.629C363.233 189.244 362.84 199.93 361.607 210.512C360.447 220.476 352.657 226.717 342.066 226.905C336.029 227.061 330.077 226.948 324.031 226.843C310.824 226.639 302.681 233.433 301.786 245.82C300.306 265.853 302.811 285.553 305.96 305.024C307.575 314.582 317.175 321.026 327.56 320.244C340.263 319.267 352.868 318.125 365.568 317.062C377.712 316.045 385.449 322.383 386.006 333.688C386.393 342.65 386.687 351.62 386.892 360.684C387.098 372.63 379.812 380.051 367.114 381.201C349.597 382.755 332.166 384.126 314.738 385.585Z" fill="white"/>
</g>
<g filter="url(#filter2_d_925_440)">
<path d="M501.015 278.922C501.841 304.14 502.663 329.272 503.488 354.49C503.932 368.055 497.042 375.348 482.638 376.557C473.866 377.293 465.098 378.116 456.323 378.765C444.409 379.678 436.51 373.104 436.142 361.886C435.644 346.668 435.239 331.443 434.651 316.319C433.86 297.812 434.273 279.292 430.346 261.135C426.853 244.948 429.732 228.226 430.671 211.667C432.549 181.339 434.611 150.995 436.578 120.572C436.825 116.802 437.164 113.024 437.227 109.269C437.529 98.6926 430.449 91.7006 419.239 91.5078C415.719 91.4545 412.205 91.575 408.682 91.4347C398.301 91.0852 390.754 83.958 391.727 74.1101C392.71 64.523 390.939 55.6902 387.969 46.9581C387.254 44.9253 386.814 42.7823 386.835 40.6006C386.775 33.1066 391.347 28.5373 399.38 27.8631C423.577 26.0067 447.568 26.3475 471.604 28.0797C489.795 29.4305 508.386 28.8294 526.727 29.1212C532.656 29.2339 538.762 29.0703 544.445 30.1629C552.177 31.6067 557.03 38.4369 556.721 45.9619C556.269 54.8067 555.726 63.6594 555.09 72.5198C554.112 85.0712 545.819 91.9583 532.481 91.7698C529.61 91.7491 526.644 91.6493 523.779 91.8026C513.143 92.172 505.327 99.4551 504.638 109.541C502.768 137.252 500.435 165.003 499.306 192.739C498.565 209.718 499.582 226.636 499.857 243.53C500.157 255.538 500.634 267.27 501.015 278.922Z" fill="white"/>
</g>
<g filter="url(#filter3_d_925_440)">
<path d="M551.46 288.225C551.167 279.267 550.781 270.318 550.577 261.265C550.288 249.604 557.634 242.011 569.917 240.98C578.691 240.244 587.464 239.508 596.238 238.771C608.432 237.835 616.328 244.236 616.891 255.788C617.469 267.774 617.584 279.798 618.162 291.784C618.405 296.386 618.928 301.051 620.548 305.276C623.298 312.893 634.814 316.723 642.747 312.918C644.753 311.965 646.811 309.787 647.672 307.796C649.47 303.285 651.443 298.497 651.569 293.865C651.787 283.556 651.359 273.301 650.469 263.086C649.61 253.827 643.922 246.979 636.791 241.298C625.949 232.615 614.931 224.209 604 215.621C598.582 211.366 593.612 206.638 588.107 202.565C571.787 190.592 563.65 174.008 559.973 155.044C555.499 131.525 556.757 107.7 562.187 84.0469C568.827 54.886 592.732 35.4388 624.115 32.2819C642.021 30.4305 659.81 30.6819 677.22 33.494C685.972 34.9397 694.213 37.7364 701.319 42.6341C702.075 43.0939 702.744 43.7354 703.584 43.9265C710.215 45.6374 712.594 50.4086 712.6 56.2509C712.773 64.3466 712.206 72.5043 712.009 80.6311C711.854 84.3939 711.148 88.2903 711.73 91.9041C713.995 104.533 708.706 115.529 701.634 125.803C696.418 133.391 689.881 140.219 683.91 147.347C683.286 148.097 682.2 148.886 681.28 149.051C665.874 150.867 653.302 145.904 654.79 129.123C655.552 121.298 655.85 113.424 656.336 105.622C656.449 103.432 656.563 101.243 656.492 99.0685C655.943 87.9522 646.791 82.7901 635.64 87.3013C630.615 89.3799 628.898 93.5354 628.117 97.9613C623.934 120.114 626.635 140.381 642.653 157.263C652.051 167.113 660.548 177.737 669.583 187.793C670.736 189.091 672.62 190.067 674.485 190.433C681.286 191.694 688.258 192.504 695.155 193.844C697.02 194.211 699.184 195.25 700.248 196.643C713.666 213.307 721.879 232.24 722.496 253.902C722.758 261.903 720.803 270.09 719.587 278.215C717.214 293.414 714.56 308.549 712.092 323.668C710.153 335.168 706.999 346.333 701.139 356.854C688.462 379.806 668.223 392.406 641.918 395.136C629.736 396.42 617.399 395.798 605.081 395.786C603.878 395.799 602.271 394.801 601.59 393.811C597.086 386.341 592.853 378.673 588.441 371.195C587.659 369.952 586.774 368.369 585.458 367.782C566.637 358.635 556.964 343.226 553.83 323.868C551.968 312.251 551.763 300.321 550.729 288.548C551.09 288.256 551.275 288.241 551.46 288.225Z" fill="white"/>
</g>
<defs>
<filter id="filter0_d_925_440" x="0.343418" y="11.7094" width="229.161" height="417.938" filterUnits="userSpaceOnUse" color-interpolation-filters="sRGB">
<feFlood flood-opacity="0" result="BackgroundImageFix"/>
<feColorMatrix in="SourceAlpha" type="matrix" values="0 0 0 0 0 0 0 0 0 0 0 0 0 0 0 0 0 0 127 0" result="hardAlpha"/>
<feOffset dx="-25.5241" dy="3.40321"/>
<feGaussianBlur stdDeviation="12.762"/>
<feComposite in2="hardAlpha" operator="out"/>
<feColorMatrix type="matrix" values="0 0 0 0 0 0 0 0 0 0 0 0 0 0 0 0 0 0 0.6 0"/>
<feBlend mode="normal" in2="BackgroundImageFix" result="effect1_dropShadow_925_440"/>
<feBlend mode="normal" in="SourceGraphic" in2="effect1_dropShadow_925_440" result="shape"/>
</filter>
<filter id="filter1_d_925_440" x="181.166" y="0.0828559" width="205.73" height="418.864" filterUnits="userSpaceOnUse" color-interpolation-filters="sRGB">
<feFlood flood-opacity="0" result="BackgroundImageFix"/>
<feColorMatrix in="SourceAlpha" type="matrix" values="0 0 0 0 0 0 0 0 0 0 0 0 0 0 0 0 0 0 127 0" result="hardAlpha"/>
<feOffset dx="-25.5241" dy="3.40321"/>
<feGaussianBlur stdDeviation="12.762"/>
<feComposite in2="hardAlpha" operator="out"/>
<feColorMatrix type="matrix" values="0 0 0 0 0 0 0 0 0 0 0 0 0 0 0 0 0 0 0.6 0"/>
<feBlend mode="normal" in2="BackgroundImageFix" result="effect1_dropShadow_925_440"/>
<feBlend mode="normal" in="SourceGraphic" in2="effect1_dropShadow_925_440" result="shape"/>
</filter>
<filter id="filter2_d_925_440" x="335.786" y="4.49674" width="220.949" height="403.28" filterUnits="userSpaceOnUse" color-interpolation-filters="sRGB">
<feFlood flood-opacity="0" result="BackgroundImageFix"/>
<feColorMatrix in="SourceAlpha" type="matrix" values="0 0 0 0 0 0 0 0 0 0 0 0 0 0 0 0 0 0 127 0" result="hardAlpha"/>
<feOffset dx="-25.5241" dy="3.40321"/>
<feGaussianBlur stdDeviation="12.762"/>
<feComposite in2="hardAlpha" operator="out"/>
<feColorMatrix type="matrix" values="0 0 0 0 0 0 0 0 0 0 0 0 0 0 0 0 0 0 0.6 0"/>
<feBlend mode="normal" in2="BackgroundImageFix" result="effect1_dropShadow_925_440"/>
<feBlend mode="normal" in="SourceGraphic" in2="effect1_dropShadow_925_440" result="shape"/>
</filter>
<filter id="filter3_d_925_440" x="499.521" y="8.97501" width="222.998" height="415.899" filterUnits="userSpaceOnUse" color-interpolation-filters="sRGB">
<feFlood flood-opacity="0" result="BackgroundImageFix"/>
<feColorMatrix in="SourceAlpha" type="matrix" values="0 0 0 0 0 0 0 0 0 0 0 0 0 0 0 0 0 0 127 0" result="hardAlpha"/>
<feOffset dx="-25.5241" dy="3.40321"/>
<feGaussianBlur stdDeviation="12.762"/>
<feComposite in2="hardAlpha" operator="out"/>
<feColorMatrix type="matrix" values="0 0 0 0 0 0 0 0 0 0 0 0 0 0 0 0 0 0 0.6 0"/>
<feBlend mode="normal" in2="BackgroundImageFix" result="effect1_dropShadow_925_440"/>
<feBlend mode="normal" in="SourceGraphic" in2="effect1_dropShadow_925_440" result="shape"/>
</filter>
</defs>
</svg>
