<svg width="103" height="57" viewBox="0 0 103 57" fill="none" xmlns="http://www.w3.org/2000/svg">
<path d="M11.4554 19.0658C11.5199 21.0387 11.663 23.0049 11.6355 24.9732C11.598 27.4368 11.4427 29.9103 11.3136 32.3816C11.1825 34.7913 11.0251 37.2031 10.8286 39.6183C10.736 40.8006 11.0459 41.8503 11.5252 42.861C11.8634 43.5745 12.189 44.3013 12.5531 45.0003C12.9739 45.8304 13.7589 46.1601 14.87 46.0298C15.7718 45.9169 16.4627 45.3767 16.7362 44.513C17.0221 43.6235 17.164 42.7461 16.2777 42.1281C15.458 41.5416 15.5242 40.7571 15.6126 39.8471C15.85 37.478 15.9431 35.1086 16.102 32.7461C16.1378 32.2362 16.1602 31.715 16.209 31.204C16.3372 29.9073 17.4046 28.8409 18.7676 28.7883C20.3142 28.7326 21.8628 28.7386 23.4 28.795C24.8324 28.8602 25.7337 29.9344 25.6631 31.3869C25.583 32.9515 25.5296 34.5263 25.3444 36.0873C25.2007 37.3111 25.4211 38.4301 25.9407 39.4745C26.3203 40.2463 26.4512 41.039 26.4529 41.892C26.4515 43.858 26.384 45.8048 25.7252 47.7271C24.4447 51.5068 21.7247 53.8 17.6555 54.5621C15.1514 55.032 12.6134 55.2698 10.0962 54.9371C6.61718 54.4874 4.26214 52.6945 3.12345 49.5755C1.9002 46.278 1.00168 42.8791 1.22416 39.2501C1.38146 36.8383 1.55186 34.4253 1.69608 32.0145C1.73933 31.3309 1.73023 30.6516 1.70805 29.9735C1.55236 25.214 1.43594 20.4512 1.2275 15.6837C1.1243 13.3308 1.76038 11.1137 2.54 8.87214C3.13947 7.14028 4.46979 6.0889 5.98736 5.14544C7.38917 4.27352 8.93313 3.73586 10.5526 3.50097C12.8121 3.17524 15.074 2.92349 17.3378 3.12907C21.5099 3.50823 24.1531 5.68494 25.0285 9.58034C25.3199 10.8665 25.4293 12.205 25.5121 13.5334C25.6209 15.2552 25.6381 16.9847 25.6942 18.6987C25.768 20.9551 24.5329 22.1098 22.1427 22.0508C21.0394 22.0198 19.9235 22.0022 18.821 21.9959C16.8921 21.9971 16.2707 21.4558 16.211 19.6309C16.1558 17.9417 16.1009 16.2648 16.0457 14.5755C16.0348 14.2426 16.0239 13.9097 15.9741 13.5924C15.6572 11.9251 14.1645 11.222 12.456 11.9466C11.7055 12.2693 11.3711 12.8785 11.2763 13.5912C11.2123 14.0417 11.2011 14.5001 11.2156 14.944C11.2477 16.3261 11.3055 17.6936 11.3507 19.0746C11.3769 19.0724 11.4161 19.0691 11.4554 19.0658Z" fill="white"/>
<path d="M78.1171 39.3898C78.0755 38.1193 78.0209 36.8499 77.992 35.566C77.951 33.912 78.9928 32.8351 80.735 32.6889C81.9794 32.5844 83.2238 32.48 84.4682 32.3756C86.1977 32.2428 87.3177 33.1507 87.3976 34.7891C87.4795 36.4891 87.4959 38.1946 87.5778 39.8947C87.6123 40.5473 87.6865 41.209 87.9163 41.8082C88.3063 42.8886 89.9397 43.4319 91.0648 42.8922C91.3493 42.757 91.6413 42.448 91.7634 42.1656C92.0183 41.5258 92.2982 40.8468 92.3161 40.1897C92.347 38.7276 92.2863 37.2731 92.1601 35.8242C92.0383 34.511 91.2315 33.5397 90.22 32.734C88.6823 31.5025 87.1196 30.3101 85.5692 29.092C84.8007 28.4886 84.0958 27.818 83.315 27.2403C81.0002 25.5421 79.8461 23.1899 79.3247 20.5002C78.6901 17.1644 78.8684 13.7851 79.6387 10.4303C80.5804 6.29429 83.9709 3.53599 88.4222 3.08825C90.9618 2.82565 93.4849 2.8613 95.9542 3.26016C97.1956 3.46521 98.3645 3.86188 99.3724 4.55654C99.4796 4.62175 99.5745 4.71274 99.6936 4.73985C100.634 4.98252 100.972 5.65923 100.972 6.48787C100.997 7.63613 100.917 8.79317 100.889 9.94582C100.867 10.4795 100.766 11.0322 100.849 11.5447C101.17 13.336 100.42 14.8956 99.417 16.3527C98.6772 17.429 97.7501 18.3974 96.9031 19.4085C96.8146 19.5149 96.6607 19.6267 96.5301 19.6501C94.345 19.9077 92.5618 19.2038 92.7729 16.8237C92.881 15.7138 92.9233 14.597 92.9922 13.4904C93.0083 13.1798 93.0244 12.8693 93.0143 12.5609C92.9364 10.9842 91.6383 10.2521 90.0568 10.8919C89.344 11.1867 89.1006 11.7761 88.9898 12.4039C88.3965 15.5459 88.7795 18.4204 91.0515 20.8148C92.3844 22.212 93.5896 23.7188 94.871 25.145C95.0347 25.3292 95.3019 25.4676 95.5663 25.5196C96.531 25.6984 97.5199 25.8133 98.4981 26.0033C98.7625 26.0553 99.0695 26.2028 99.2204 26.4004C101.124 28.7639 102.289 31.4491 102.376 34.5217C102.413 35.6565 102.136 36.8177 101.963 37.9701C101.627 40.1258 101.25 42.2724 100.9 44.4169C100.625 46.0479 100.178 47.6316 99.3468 49.1237C97.5488 52.3792 94.6781 54.1662 90.9473 54.5535C89.2194 54.7356 87.4696 54.6474 85.7225 54.6456C85.5519 54.6476 85.3239 54.5059 85.2274 54.3656C84.5885 53.306 83.9881 52.2185 83.3623 51.1578C83.2514 50.9815 83.1259 50.7571 82.9393 50.6738C80.2698 49.3764 78.8979 47.1909 78.4533 44.4452C78.1893 42.7976 78.1601 41.1055 78.0135 39.4356C78.0647 39.3942 78.0909 39.392 78.1171 39.3898Z" fill="white"/>
<path d="M40.542 52.9451C38.1096 53.1487 35.6772 53.3523 33.2447 53.5559C31.3514 53.7144 30.2807 52.8256 30.2227 51.0594C30.1275 48.1569 30.0458 45.2656 29.9243 42.3652C29.8872 41.6376 29.7968 40.8897 29.5896 40.201C28.9545 38.124 28.8581 35.9894 29.0502 33.8059C29.2414 31.5977 29.38 29.3939 29.4788 27.1811C29.5221 26.0876 29.3812 25.0095 29.3456 23.9226C29.1721 18.6362 28.9855 13.351 28.8384 8.06242C28.8262 7.69188 28.918 7.27548 29.0916 6.93894C29.8108 5.55351 30.5839 4.20074 31.3434 2.83671C31.8664 1.90119 32.7204 1.4086 33.7751 1.40701C37.295 1.3972 40.8162 1.42445 44.3241 1.45281C45.3924 1.46246 46.4499 1.54733 47.5202 1.61874C48.7885 1.69834 49.9693 2.72655 50.2509 4.07773C50.4543 5.05152 50.5927 6.05552 50.6781 7.05157C50.8506 9.09308 49.6774 10.306 47.4677 10.4662C45.6261 10.5956 43.7845 10.725 41.9434 10.8667C40.9569 10.9369 40.0737 11.3452 39.4378 12.0549C39.069 12.4697 38.6793 13.0473 38.6692 13.5435C38.6555 15.5387 38.708 17.5407 38.8653 19.5215C38.958 20.7399 39.835 21.3477 41.2865 21.3872C42.4875 21.4229 43.6852 21.3598 44.8981 21.3573C46.164 21.3628 47.0269 21.947 47.3909 22.994C47.45 23.1872 47.5095 23.3928 47.5028 23.5915C47.4203 25.097 47.3646 26.6127 47.1897 28.1136C47.0251 29.5269 45.9203 30.412 44.4182 30.4387C43.5619 30.4608 42.7176 30.4448 41.8601 30.4299C39.987 30.4009 38.832 31.3646 38.7051 33.1215C38.495 35.9629 38.8504 38.757 39.297 41.5187C39.526 42.8742 40.8876 43.7882 42.3607 43.6773C44.1624 43.5389 45.9501 43.3768 47.7515 43.226C49.4739 43.0818 50.5713 43.9808 50.6503 45.5843C50.7052 46.8553 50.7469 48.1275 50.7759 49.4131C50.8051 51.1075 49.7717 52.16 47.9708 52.3232C45.4862 52.5435 43.0139 52.7381 40.542 52.9451Z" fill="white"/>
<path d="M68.9618 37.8161C69.0788 41.3929 69.1955 44.9574 69.3125 48.5342C69.3755 50.4583 68.3982 51.4927 66.3552 51.6641C65.1111 51.7685 63.8674 51.8853 62.6229 51.9774C60.9331 52.1068 59.8126 51.1743 59.7605 49.5833C59.6899 47.4249 59.6324 45.2653 59.549 43.1203C59.4369 40.4954 59.4954 37.8686 58.9383 35.2934C58.443 32.9974 58.8513 30.6257 58.9845 28.277C59.2508 23.9754 59.5433 19.6716 59.8223 15.3566C59.8574 14.8218 59.9055 14.286 59.9143 13.7534C59.9572 12.2534 58.953 11.2616 57.3631 11.2343C56.8638 11.2267 56.3654 11.2438 55.8657 11.2239C54.3933 11.1744 53.3228 10.1635 53.461 8.7667C53.6003 7.40692 53.3492 6.15412 52.9278 4.91561C52.8265 4.62729 52.764 4.32334 52.767 4.0139C52.7585 2.95099 53.407 2.30291 54.5464 2.20728C57.9783 1.94398 61.3811 1.99232 64.7903 2.238C67.3704 2.42959 70.0071 2.34433 72.6086 2.38572C73.4495 2.40171 74.3155 2.3785 75.1216 2.53347C76.2183 2.73825 76.9066 3.707 76.8627 4.77431C76.7987 6.02882 76.7216 7.28443 76.6314 8.54114C76.4927 10.3214 75.3165 11.2982 73.4246 11.2715C73.0175 11.2685 72.5968 11.2544 72.1904 11.2761C70.6819 11.3285 69.5733 12.3615 69.4756 13.792C69.2103 17.7224 68.8795 21.6584 68.7193 25.5924C68.6143 28.0006 68.7585 30.4002 68.7975 32.7962C68.8401 34.4994 68.9077 36.1634 68.9618 37.8161Z" fill="white"/>
</svg>
