<svg width="251" height="1076" viewBox="0 0 251 1076" fill="none" xmlns="http://www.w3.org/2000/svg">
<g filter="url(#filter0_d_983_114)">
<path d="M111.6 114.28C111.964 125.405 112.77 136.493 112.615 147.593C112.404 161.486 111.528 175.434 110.8 189.371C110.061 202.959 109.173 216.56 108.065 230.18C107.543 236.848 109.291 242.767 111.993 248.467C113.901 252.49 115.737 256.589 117.79 260.53C120.163 265.212 124.59 267.071 130.856 266.336C135.941 265.7 139.837 262.653 141.38 257.783C142.992 252.766 143.792 247.819 138.794 244.334C134.172 241.026 134.545 236.602 135.043 231.471C136.382 218.111 136.907 204.749 137.803 191.426C138.005 188.551 138.131 185.612 138.407 182.73C139.13 175.418 145.149 169.404 152.835 169.107C161.557 168.793 170.29 168.827 178.958 169.145C187.036 169.513 192.118 175.57 191.72 183.761C191.269 192.585 190.967 201.465 189.923 210.268C189.113 217.169 190.355 223.479 193.286 229.369C195.426 233.722 196.165 238.192 196.174 243.002C196.167 254.089 195.786 265.067 192.07 275.908C184.85 297.222 169.511 310.154 146.563 314.452C132.442 317.102 118.13 318.443 103.935 316.567C84.3159 314.031 71.0352 303.92 64.6139 286.331C57.7157 267.736 52.6487 248.569 53.9033 228.104C54.7904 214.503 55.7513 200.896 56.5646 187.301C56.8085 183.445 56.7572 179.615 56.6321 175.791C55.7542 148.951 55.0976 122.092 53.9222 95.2074C53.3402 81.9389 56.9272 69.4359 61.3237 56.7952C64.7042 47.0288 72.2062 41.0998 80.7641 35.7794C88.6693 30.8625 97.376 27.8305 106.509 26.5059C119.251 24.669 132.006 23.2493 144.772 24.4086C168.3 26.5468 183.205 38.8218 188.142 60.7889C189.785 68.0417 190.402 75.5899 190.869 83.0809C191.483 92.7908 191.58 102.544 191.896 112.209C192.312 124.934 185.347 131.445 171.868 131.113C165.646 130.938 159.353 130.839 153.136 130.803C142.258 130.81 138.755 127.758 138.418 117.467C138.106 107.94 137.797 98.4839 137.485 88.9578C137.424 87.0804 137.363 85.203 137.082 83.4137C135.294 74.0116 126.877 70.0468 117.243 74.1328C113.01 75.9524 111.124 79.3878 110.59 83.407C110.229 85.9474 110.166 88.5325 110.247 91.0357C110.428 98.8297 110.755 106.542 111.009 114.329C111.157 114.317 111.378 114.298 111.6 114.28Z" fill="white"/>
</g>
<g filter="url(#filter1_d_983_114)">
<path d="M184.62 572.572C170.903 573.72 157.186 574.868 143.469 576.016C132.791 576.91 126.753 571.898 126.427 561.938C125.89 545.57 125.429 529.265 124.744 512.909C124.535 508.806 124.025 504.588 122.856 500.705C119.275 488.992 118.731 476.954 119.814 464.641C120.893 452.189 121.675 439.761 122.232 427.282C122.475 421.116 121.681 415.036 121.48 408.907C120.502 379.096 119.45 349.291 118.62 319.468C118.551 317.378 119.069 315.03 120.048 313.132C124.104 305.319 128.463 297.691 132.746 289.999C135.696 284.723 140.512 281.945 146.459 281.936C166.309 281.881 186.166 282.034 205.948 282.194C211.972 282.249 217.936 282.727 223.971 283.13C231.124 283.579 237.782 289.377 239.371 296.997C240.517 302.488 241.298 308.15 241.78 313.767C242.752 325.28 236.136 332.119 223.675 333.023C213.29 333.753 202.905 334.482 192.522 335.282C186.959 335.677 181.979 337.98 178.393 341.982C176.313 344.321 174.115 347.578 174.058 350.377C173.981 361.628 174.277 372.918 175.164 384.088C175.687 390.959 180.632 394.386 188.818 394.609C195.591 394.81 202.345 394.454 209.185 394.441C216.323 394.472 221.19 397.766 223.242 403.67C223.575 404.76 223.911 405.919 223.873 407.04C223.408 415.53 223.094 424.077 222.107 432.541C221.179 440.511 214.949 445.502 206.478 445.653C201.649 445.778 196.888 445.687 192.053 445.603C181.49 445.44 174.976 450.874 174.26 460.782C173.076 476.805 175.08 492.562 177.599 508.135C178.89 515.78 186.569 520.934 194.875 520.308C205.036 519.528 215.117 518.614 225.275 517.764C234.989 516.95 241.177 522.02 241.623 531.062C241.932 538.23 242.167 545.404 242.331 552.654C242.496 562.209 236.668 568.145 226.512 569.065C212.501 570.307 198.559 571.405 184.62 572.572Z" fill="white"/>
</g>
<g filter="url(#filter2_d_983_114)">
<path d="M123.642 728.303C124.302 748.474 124.96 768.575 125.62 788.745C125.975 799.596 120.464 805.429 108.943 806.395C101.927 806.984 94.9138 807.643 87.8957 808.162C78.3666 808.892 72.048 803.634 71.7544 794.661C71.3561 782.489 71.0316 770.311 70.5617 758.215C69.9292 743.413 70.259 728.599 67.1178 714.077C64.3244 701.13 66.6267 687.755 67.3781 674.51C68.88 650.252 70.5295 625.982 72.1029 601.649C72.3005 598.633 72.5718 595.611 72.6217 592.608C72.8632 584.149 67.2002 578.556 58.2346 578.402C55.4192 578.359 52.6083 578.456 49.7906 578.344C41.4874 578.064 35.4506 572.363 36.2296 564.487C37.0154 556.819 35.5993 549.754 33.2232 542.769C32.6516 541.144 32.2993 539.429 32.3162 537.684C32.2682 531.69 35.9253 528.036 42.3504 527.497C61.7039 526.012 80.8928 526.284 100.118 527.67C114.668 528.75 129.537 528.269 144.208 528.503C148.95 528.593 153.833 528.462 158.379 529.336C164.563 530.491 168.445 535.954 168.198 541.973C167.837 549.047 167.402 556.128 166.893 563.215C166.111 573.254 159.478 578.762 148.81 578.612C146.513 578.595 144.141 578.515 141.849 578.638C133.343 578.933 127.091 584.759 126.54 592.825C125.044 614.99 123.178 637.186 122.275 659.371C121.683 672.951 122.496 686.483 122.716 699.995C122.956 709.6 123.337 718.983 123.642 728.303Z" fill="white"/>
</g>
<g filter="url(#filter3_d_983_114)">
<path d="M110.115 958.848C109.88 951.683 109.572 944.524 109.409 937.284C109.178 927.957 115.053 921.884 124.878 921.059C131.895 920.47 138.913 919.882 145.93 919.293C155.683 918.544 161.999 923.664 162.449 932.903C162.911 942.49 163.004 952.108 163.466 961.695C163.66 965.375 164.079 969.106 165.374 972.485C167.574 978.578 176.785 981.642 183.13 978.598C184.734 977.836 186.381 976.093 187.069 974.501C188.507 970.893 190.085 967.064 190.186 963.358C190.361 955.113 190.018 946.911 189.306 938.74C188.619 931.335 184.07 925.857 178.366 921.314C169.694 914.369 160.882 907.645 152.139 900.776C147.805 897.373 143.83 893.591 139.427 890.334C126.373 880.757 119.865 867.493 116.924 852.324C113.346 833.513 114.352 814.456 118.695 795.538C124.006 772.214 143.126 756.659 168.228 754.134C182.549 752.653 196.777 752.854 210.703 755.104C217.703 756.26 224.295 758.497 229.978 762.414C230.583 762.782 231.118 763.295 231.79 763.448C237.094 764.817 238.996 768.633 239.001 773.306C239.139 779.781 238.686 786.306 238.528 792.806C238.405 795.815 237.84 798.932 238.305 801.822C240.117 811.924 235.887 820.719 230.23 828.936C226.058 835.005 220.83 840.466 216.053 846.168C215.555 846.768 214.686 847.399 213.95 847.53C201.627 848.983 191.572 845.014 192.762 831.592C193.372 825.333 193.61 819.035 193.999 812.795C194.09 811.043 194.18 809.292 194.123 807.553C193.684 798.661 186.364 794.533 177.445 798.141C173.426 799.803 172.053 803.127 171.428 806.667C168.083 824.386 170.243 840.596 183.055 854.099C190.572 861.978 197.368 870.475 204.594 878.518C205.517 879.556 207.024 880.337 208.515 880.63C213.955 881.638 219.532 882.286 225.048 883.358C226.539 883.651 228.27 884.483 229.121 885.597C239.854 898.925 246.423 914.068 246.916 931.395C247.126 937.794 245.562 944.343 244.59 950.841C242.691 962.998 240.569 975.103 238.595 987.196C237.044 996.394 234.521 1005.32 229.834 1013.74C219.694 1032.1 203.506 1042.18 182.467 1044.36C172.723 1045.39 162.855 1044.89 153.004 1044.88C152.041 1044.89 150.756 1044.09 150.211 1043.3C146.608 1037.32 143.222 1031.19 139.693 1025.21C139.068 1024.22 138.36 1022.95 137.308 1022.48C122.254 1015.16 114.518 1002.84 112.011 987.356C110.522 978.065 110.357 968.523 109.531 959.106C109.819 958.872 109.967 958.86 110.115 958.848Z" fill="white"/>
</g>
<defs>
<filter id="filter0_d_983_114" x="0.43536" y="0.901992" width="195.738" height="346.731" filterUnits="userSpaceOnUse" color-interpolation-filters="sRGB">
<feFlood flood-opacity="0" result="BackgroundImageFix"/>
<feColorMatrix in="SourceAlpha" type="matrix" values="0 0 0 0 0 0 0 0 0 0 0 0 0 0 0 0 0 0 127 0" result="hardAlpha"/>
<feOffset dx="-26.6388" dy="3.55184"/>
<feGaussianBlur stdDeviation="13.3194"/>
<feComposite in2="hardAlpha" operator="out"/>
<feColorMatrix type="matrix" values="0 0 0 0 0 0 0 0 0 0 0 0 0 0 0 0 0 0 0.6 0"/>
<feBlend mode="normal" in2="BackgroundImageFix" result="effect1_dropShadow_983_114"/>
<feBlend mode="normal" in="SourceGraphic" in2="effect1_dropShadow_983_114" result="shape"/>
</filter>
<filter id="filter1_d_983_114" x="65.3358" y="258.838" width="176.998" height="347.471" filterUnits="userSpaceOnUse" color-interpolation-filters="sRGB">
<feFlood flood-opacity="0" result="BackgroundImageFix"/>
<feColorMatrix in="SourceAlpha" type="matrix" values="0 0 0 0 0 0 0 0 0 0 0 0 0 0 0 0 0 0 127 0" result="hardAlpha"/>
<feOffset dx="-26.6388" dy="3.55184"/>
<feGaussianBlur stdDeviation="13.3194"/>
<feComposite in2="hardAlpha" operator="out"/>
<feColorMatrix type="matrix" values="0 0 0 0 0 0 0 0 0 0 0 0 0 0 0 0 0 0 0.6 0"/>
<feBlend mode="normal" in2="BackgroundImageFix" result="effect1_dropShadow_983_114"/>
<feBlend mode="normal" in="SourceGraphic" in2="effect1_dropShadow_983_114" result="shape"/>
</filter>
<filter id="filter2_d_983_114" x="31.6776" y="503.413" width="189.17" height="335.006" filterUnits="userSpaceOnUse" color-interpolation-filters="sRGB">
<feFlood flood-opacity="0" result="BackgroundImageFix"/>
<feColorMatrix in="SourceAlpha" type="matrix" values="0 0 0 0 0 0 0 0 0 0 0 0 0 0 0 0 0 0 127 0" result="hardAlpha"/>
<feOffset dx="26" dy="3.55184"/>
<feGaussianBlur stdDeviation="13.3194"/>
<feComposite in2="hardAlpha" operator="out"/>
<feColorMatrix type="matrix" values="0 0 0 0 0 0 0 0 0 0 0 0 0 0 0 0 0 0 0.6 0"/>
<feBlend mode="normal" in2="BackgroundImageFix" result="effect1_dropShadow_983_114"/>
<feBlend mode="normal" in="SourceGraphic" in2="effect1_dropShadow_983_114" result="shape"/>
</filter>
<filter id="filter3_d_983_114" x="56.1248" y="730.099" width="190.811" height="345.1" filterUnits="userSpaceOnUse" color-interpolation-filters="sRGB">
<feFlood flood-opacity="0" result="BackgroundImageFix"/>
<feColorMatrix in="SourceAlpha" type="matrix" values="0 0 0 0 0 0 0 0 0 0 0 0 0 0 0 0 0 0 127 0" result="hardAlpha"/>
<feOffset dx="-26.6388" dy="3.55184"/>
<feGaussianBlur stdDeviation="13.3194"/>
<feComposite in2="hardAlpha" operator="out"/>
<feColorMatrix type="matrix" values="0 0 0 0 0 0 0 0 0 0 0 0 0 0 0 0 0 0 0.6 0"/>
<feBlend mode="normal" in2="BackgroundImageFix" result="effect1_dropShadow_983_114"/>
<feBlend mode="normal" in="SourceGraphic" in2="effect1_dropShadow_983_114" result="shape"/>
</filter>
</defs>
</svg>
