<svg width="25" height="27" viewBox="0 0 25 27" fill="none" xmlns="http://www.w3.org/2000/svg">
<path d="M10.5091 25.2815C8.45684 23.4573 5.10911 23.1471 2.85944 21.3474C0.0980669 19.1383 1.26986 13.8413 2.54374 11.2936C3.23721 9.90662 4.72908 7.72388 6.13785 7.01949C6.88596 6.64543 7.26396 10.973 7.42493 11.5364C7.91549 13.2534 11.6773 9.49205 12.2576 8.47656C13.0251 7.13328 14.509 6.01711 15.2203 4.73675C15.7075 3.85976 16.1916 2.95099 16.1916 1.94402C16.1916 0.937623 17.0659 3.82748 17.0659 4.83388C17.0659 5.68096 16.491 10.3892 17.3087 10.8564C19.0051 11.8258 20.1369 10.8655 21.6314 10.225C22.4249 9.88496 23.1856 14.4654 23.1856 15.2277C23.1856 24.8581 14.8502 25.2815 7.01209 25.2815" stroke="white" stroke-width="2" stroke-linecap="round"/>
</svg>
