<svg width="25" height="27" viewBox="0 0 25 27" fill="none" xmlns="http://www.w3.org/2000/svg">
<path d="M13.8347 25.2815C15.8869 23.4573 19.2346 23.1471 21.4843 21.3474C24.2457 19.1383 23.0739 13.8413 21.8 11.2936C21.1065 9.90662 19.6147 7.72388 18.2059 7.01949C17.4578 6.64543 17.0798 10.973 16.9188 11.5364C16.4283 13.2534 12.6665 9.49205 12.0862 8.47656C11.3186 7.13328 9.8348 6.01711 9.12349 4.73675C8.63627 3.85976 8.1521 2.95099 8.1521 1.94402C8.1521 0.937623 7.27786 3.82748 7.27786 4.83388C7.27786 5.68096 7.85278 10.3892 7.03502 10.8564C5.33866 11.8258 4.20684 10.8655 2.71237 10.225C1.91883 9.88496 1.15816 14.4654 1.15816 15.2277C1.15816 24.8581 9.49357 25.2815 17.3317 25.2815" stroke="white" stroke-width="2" stroke-linecap="round"/>
</svg>
