<svg width="111" height="124" viewBox="0 0 111 124" fill="none" xmlns="http://www.w3.org/2000/svg">
<path d="M94.0085 101.399C92.3278 103.098 89.6133 105.38 86.7047 107.317C79.2439 112.621 70.9244 115.471 61.904 116.636C58.1809 117.156 54.4162 117.1 50.6884 116.775C49.6124 116.704 49.0759 116.938 48.5047 117.824C47.7807 118.866 46.9794 119.83 45.87 120.643C42.1593 123.391 38.2062 123.989 33.9715 122.323C32.5857 121.793 31.6188 120.607 30.5759 119.576C29.9193 118.927 29.6056 117.776 28.6447 117.666C27.7597 117.402 26.9576 118.213 26.0765 118.641C24.3894 119.188 22.8572 119.965 21.0131 119.898C18.5921 119.72 17.0471 118.192 17.111 115.887C17.0956 113.121 18.196 110.695 19.3351 108.307C19.6771 107.652 19.9801 106.882 20.3608 106.266C20.7793 105.533 20.6608 104.958 19.9664 104.424C18.2686 103.051 16.6472 101.6 15.1786 99.9949C12.3195 97.0147 9.91912 93.6478 7.78658 90.0874C6.08149 87.408 4.8751 84.6106 3.70648 81.6978C2.73271 79.2833 1.91172 76.7142 1.39802 74.1435C0.56803 69.9612 -0.0319262 65.7008 0.0208957 61.3983C0.0595807 54.5607 1.36647 47.8312 3.86603 41.4408C7.50122 32.048 13.4501 24.2555 21.4049 17.9883C26.7207 13.7717 32.5798 10.5508 39.0994 8.67066C40.0577 8.3196 40.7856 7.96983 41.3182 7.04496C42.8435 5.03901 44.6006 3.26224 46.6276 1.67603C49.1902 -0.297292 51.3811 -0.0406215 53.3879 1.63833C54.121 2.21042 54.5476 2.93787 54.9364 3.78077C55.5973 5.19834 55.5973 5.19834 57.0543 4.72926C59.6234 3.90827 62.1933 3.24093 64.9598 3.37915C70.6854 3.76974 75.5367 5.81694 79.2877 10.2903C80.5254 11.8198 82.0301 13.0022 83.7635 13.876C84.8038 14.4464 85.9596 15.0546 86.9244 15.8559C87.5037 16.4288 88.1192 16.579 89.0398 16.3434C93.795 14.934 97.6074 16.6413 100.548 20.4662C102.018 22.3786 102.684 24.6412 102.505 27.0622C102.512 28.2145 102.435 28.2917 103.59 28.5926C107.475 29.6849 109.258 32.4406 109.855 36.2401C110.214 38.6581 110.036 41.0791 109.242 43.3498C108.789 44.812 108.758 46.0798 109.189 47.6523C110.803 54.7496 111.226 61.5846 110.381 68.6187C109.756 73.6542 108.438 78.3863 106.62 83.0059C103.967 89.3972 99.9672 95.3734 94.0085 101.399ZM106.593 50.5861C105.902 50.6668 105.79 51.2436 105.638 51.5517C103.735 54.6353 101.406 57.1451 98.2662 59.0064C97.4624 59.5103 97.2349 60.0493 97.4705 60.9699C97.7443 61.8519 97.6349 62.8896 97.7169 63.811C97.9323 67.9968 97.3018 72.0336 95.1327 75.6948C93.3829 78.7776 90.7053 80.79 86.9389 80.4269C85.7857 80.2796 85.2501 80.6668 84.8325 81.5526C84.2629 82.7465 83.732 83.9787 82.8544 85.0207C81.0999 87.2584 79.1527 89.382 76.8965 91.1999C73.6082 93.9071 69.9683 95.5792 66.0573 96.8302C64.1783 97.4168 62.1822 97.6584 60.1861 97.9C59.6488 97.9799 59.1111 97.9829 59.3076 98.7884C59.505 99.7476 59.0093 100.403 58.0887 100.639C57.2068 100.913 56.551 100.417 56.048 99.7669C55.0807 98.5047 54.573 97.0095 54.2567 95.3979C54.0975 94.4001 54.0151 93.4018 54.394 92.4778C54.7352 91.6693 55.4627 91.2427 56.1545 91.3156C56.885 91.4268 57.4266 92.1152 57.6231 92.9207C57.624 93.0744 57.6249 93.228 57.6257 93.3817C57.4382 94.1894 57.8622 94.4559 58.6686 94.413C60.82 94.4778 63.0466 94.2349 65.1174 93.6088C70.4864 92.0423 75.079 89.0206 78.8579 84.7357C80.0793 83.346 80.9922 81.7276 81.9055 80.1861C82.6278 78.8376 82.5111 78.5694 81.5055 77.3458C80.1923 76.0471 79.1477 74.7085 78.3318 73.0613C76.2723 68.809 75.556 64.3572 75.8371 59.6693C75.9063 58.2861 76.4766 57.2458 77.5097 56.5102C78.1599 56.0072 78.7727 55.6965 79.5397 55.4617C80.9967 54.9927 82.2199 53.9103 83.1739 52.791C84.3181 51.3249 85.231 49.7065 85.9134 48.0894C87.6542 43.3934 88.3186 38.5497 87.292 33.5619C86.7002 30.7611 85.802 28.1156 83.6012 26.0921C81.4004 24.0685 78.7498 24.0449 76.4168 25.8633C73.7014 27.9911 72.1422 30.8039 71.1611 33.9592C69.9151 37.8458 69.5919 41.8808 70.1138 45.9112C70.1936 46.4486 70.2739 47.0627 70.2773 47.6773C70.2829 48.676 69.8254 49.2931 69.0576 49.3742C68.252 49.5708 67.6735 49.1515 67.2842 48.2318C66.934 47.427 66.8143 46.6211 66.695 45.8919C66.4984 45.0863 66.6851 44.125 66.3358 43.4739C65.8319 42.6701 64.7217 43.3293 63.7994 43.2576C62.6462 43.1104 61.6084 43.0009 60.4939 42.8919C59.9557 42.8181 59.496 43.0511 59.3063 43.4747C59.0789 44.0138 59.2355 44.5507 59.6218 44.9326C60.1239 45.4292 60.8166 45.6558 61.5097 45.9592C63.0491 46.4884 64.4371 47.4026 65.7873 48.4322C70.9172 52.2064 73.5574 57.2621 73.7844 63.522C73.9813 71.2802 70.5187 77.1766 64.1265 81.2455C59.4567 84.1909 54.1593 84.8351 48.6578 83.2909C46.6188 82.726 45.0385 81.7746 43.2279 80.8243C42.4957 80.4059 41.9966 80.4471 41.5391 81.0642C41.3099 81.296 41.2344 81.5269 40.967 81.7973C37.2653 86.1585 33.834 90.7871 30.5572 95.5685C28.8813 98.1131 27.1277 100.504 25.7599 103.201C25.1895 104.241 25.1895 104.241 26.1534 104.889C26.8864 105.461 27.6958 105.956 28.3903 106.49C29.2769 107.061 29.5078 107.136 30.0791 106.25C31.2979 104.399 32.9812 103.161 34.8189 102.075C35.3163 101.726 35.8528 101.493 36.506 101.528C37.0442 101.601 37.5828 101.752 37.778 102.327C37.9737 102.979 37.8617 103.556 37.4025 103.866C37.0197 104.098 36.675 104.292 36.3686 104.448C33.2292 106.309 31.4005 109.008 31.1901 112.62C31.1966 113.772 31.0107 114.887 31.5927 115.921C33.4548 119.214 36.3839 120.965 40.3362 120.213C44.9795 119.381 48.6828 115.327 48.1168 110.259C48.1151 109.952 47.9975 109.53 48.034 109.184C48.2224 108.53 48.5271 108.068 49.179 107.872C49.8309 107.676 50.3331 108.173 50.5283 108.748C50.8777 109.399 50.9193 109.975 50.9227 110.589C50.8498 111.281 50.8545 112.126 50.7433 112.857C50.7459 113.318 50.9399 113.662 51.4781 113.736C51.8626 113.811 52.4004 113.808 52.7076 113.806C57.6256 114.009 62.54 113.598 67.3743 112.572C74.1265 111.075 80.3332 108.197 85.9966 104.325C91.124 100.762 95.4785 96.3587 98.9836 91.1919C103.214 85.1376 106.095 78.361 107.436 70.8247C108.517 64.8647 108.56 58.949 107.567 53.0006C107.101 52.1582 106.981 51.2754 106.593 50.5861ZM38.0449 12.4409C36.8161 12.5246 36.0114 12.8748 35.2449 13.1864C31.8737 14.8185 28.4262 16.5279 25.2503 18.7351C18.6688 23.3045 13.5157 29.1335 9.59855 36.1848C7.05008 40.6933 5.19558 45.6588 4.11058 50.8505C3.02902 56.6568 2.71567 62.4588 3.5169 68.3698C4.1177 72.7839 5.25498 76.9645 6.96821 81.1035C8.68145 85.2424 10.7007 89.1492 13.4096 92.7449C15.77 95.8431 18.3601 98.7864 21.2935 101.305C22.4127 102.259 22.4891 102.182 23.2896 101.064C24.8509 98.6349 26.4891 96.2058 28.1281 93.9304C31.3294 89.3798 34.8001 84.9431 38.1559 80.5453C40.1769 77.8836 39.9893 78.6913 38.0551 76.2437C37.5521 75.5935 37.2457 75.7489 36.8263 76.3274C35.9495 77.5231 34.88 78.6046 33.4616 79.1119C32.2346 79.5028 31.12 79.3938 30.1552 78.5925C29.2677 77.8677 28.6866 76.9874 28.2193 75.8377C27.0506 72.9248 26.7262 69.8537 26.6318 66.7044C26.461 63.6323 26.7512 60.5577 27.1572 57.5977C27.5993 54.215 28.4255 50.8301 29.8285 47.5572C30.5478 45.671 31.4984 43.9371 33.0271 42.5458C34.8614 40.8454 37.0477 40.257 39.3283 42.8179C40.6424 44.2703 40.9595 46.0355 41.4303 47.7998C41.705 48.8354 41.7822 48.9118 42.6243 48.3693C42.8543 48.2912 43.0835 48.0595 43.3517 47.9427C46.1075 46.1604 48.983 45.184 52.285 44.9351C52.8996 44.9317 53.591 44.9279 54.2056 44.9244C54.5129 44.9227 55.0506 44.9197 55.0867 44.497C55.3515 43.7657 55.7695 42.9567 55.5725 42.0743C55.3768 41.4224 54.8386 41.3485 54.4533 41.1202C52.2937 39.5958 50.1345 38.1482 48.547 35.8907C47.5796 34.6285 46.6883 33.2122 46.0265 31.641C45.599 30.7599 45.4454 30.7607 44.5643 31.1882C43.8368 31.6148 43.1476 32.0028 42.3806 32.2375C40.0434 33.2877 37.3108 32.3426 36.1461 30.1212C35.5641 29.0873 35.1731 27.8603 35.0122 26.5552C34.7667 23.8677 35.2899 21.2527 35.8895 18.5605C36.3384 16.4069 37.2114 14.5199 38.0449 12.4409ZM42.3163 75.7974C48.3453 82.3707 59.0618 82.2725 65.2497 76.0152C71.896 69.2944 71.2626 59.0418 65.3902 53.0054C58.8231 46.3583 48.4169 46.9926 42.3805 52.8649C36.0003 59.0849 35.908 70.0713 42.3163 75.7974ZM99.083 53.9314C102.598 50.5316 104.691 46.9475 105.782 42.9082C106.422 40.6383 106.832 38.2928 106.243 35.953C105.574 33.2294 103.646 31.7805 100.805 32.0268C100.075 32.1461 99.3458 32.1886 98.772 32.6144C98.121 32.9637 97.545 33.0053 96.9304 33.0088C96.3159 33.0122 95.6227 32.7087 95.3116 32.0191C94.9622 31.368 95.3043 30.7131 95.7627 30.2496C96.0682 29.9406 96.5657 29.5921 96.9493 29.5131C98.4064 29.044 98.7073 27.89 98.5463 26.5849C98.4665 26.0476 98.3862 25.4334 98.3064 24.8961C97.9039 21.5949 94.2383 18.6576 90.1341 19.7176C88.4462 20.1111 87.1458 21.1171 86.2707 22.6201C85.8522 23.3522 85.8179 24.0823 86.4754 24.8853C89.2581 27.9427 90.1628 31.7405 90.4915 35.5799C90.9803 40.5708 90.3927 45.414 88.2674 50.0353C86.4846 54.0786 84.1228 57.6257 79.7521 59.1097C79.0238 59.3827 78.7191 59.8453 78.7225 60.4599C78.6542 61.9968 78.7396 63.5328 78.9787 65.0679C79.4585 68.4455 80.5515 71.5892 82.6794 74.3047C83.6467 75.5669 84.9574 76.4046 86.4196 76.8574C87.4591 77.2742 88.6105 77.1141 89.6436 76.3785C90.9058 75.4111 92.0517 74.2524 92.6195 72.7511C94.2092 68.5169 94.6079 64.2509 93.5462 59.8394C93.2316 58.5352 93.5346 57.7652 94.6457 57.2597C96.5993 56.2885 97.9736 54.7443 99.083 53.9314ZM80.6142 20.8462C80.4086 18.4274 79.5129 16.2429 78.1572 14.2146C75.5629 10.5031 72.1299 7.94863 67.6313 7.16706C62.6323 6.19623 58.1054 7.22021 54.1286 10.469C51.2604 12.7513 49.2411 15.7204 48.3008 19.2979C47.2875 23.5674 47.772 27.79 49.9835 31.7341C53.0859 37.0177 57.8639 39.6799 63.8204 40.1461C66.0877 40.3255 66.1641 40.2482 66.5358 38.0183C66.6114 37.7874 66.6096 37.4801 66.7234 37.2106C67.3539 33.1737 68.8702 29.5545 71.2719 26.2761C73.2534 23.4225 76.01 21.7938 79.4648 21.3904C79.6936 21.0819 80.1168 21.1947 80.6142 20.8462ZM33.7054 74.6163C34.7732 73.2275 35.8028 71.8773 34.9071 69.6928C34.4788 68.658 34.3188 67.5066 34.2746 66.4697C33.8639 61.7088 34.8772 57.4394 37.5055 53.4683C38.3059 52.3499 38.6068 51.1958 38.3686 49.8143C38.1313 48.5864 38.0085 47.2427 37.1193 46.2105C36.4618 45.4075 35.8464 45.2573 35.0048 45.8766C34.4309 46.3023 34.1262 46.765 33.7069 47.3435C32.5644 49.1169 31.8842 51.1181 31.3194 53.1571C30.0413 58.1578 29.5708 63.3461 29.9455 68.5297C30.1107 70.603 30.3909 72.6373 31.4385 74.5137C32.2127 75.5849 32.5586 75.6214 33.7054 74.6163ZM46.1168 6.51883C45.3911 7.25271 44.819 7.98574 44.1705 8.79601C41.3894 12.9216 39.7242 17.3868 38.7525 22.2321C38.5306 23.7699 38.4623 25.3067 38.6241 26.7655C38.8657 28.7616 40.252 29.3685 41.8597 28.3608C42.1661 28.2054 42.4335 27.935 42.6627 27.7033C43.7712 26.7368 44.4189 25.7729 44.2562 24.1605C43.9228 19.476 45.4751 15.4341 47.9893 11.6556C48.7133 10.6145 49.6682 9.64883 50.5467 8.76044C51.5017 7.79481 51.4952 6.64248 51.5274 5.52834C51.4446 4.45326 50.5197 3.92065 49.485 4.34896C48.2185 4.54808 47.1099 5.51457 46.1168 6.51883ZM22.7895 107.827C22.7131 107.904 22.4839 108.136 22.2938 108.483C21.4972 110.293 20.5458 111.873 20.211 113.834C20.1372 114.372 19.9865 114.91 19.9891 115.371C19.9191 116.601 20.3054 116.983 21.4569 116.823C23.6448 116.542 25.483 115.533 27.3215 114.601C27.628 114.445 27.9717 114.098 27.8164 113.791C27.6563 112.64 27.8812 111.64 27.8748 110.487C27.9495 110.103 27.7555 109.758 27.4473 109.606C26.1761 108.96 25.0195 108.199 23.8625 107.36C23.6311 107.208 23.2852 107.171 22.7895 107.827ZM84.6763 19.1334C84.9819 18.8244 85.0184 18.4785 84.748 18.2111C84.5162 17.982 84.0141 17.4854 83.7085 17.7944C83.3266 18.1807 83.7515 18.6008 83.9459 19.0223C84.2162 19.2897 84.4471 19.3652 84.6763 19.1334Z" fill="white"/>
</svg>
