<svg width="83" height="79" viewBox="0 0 83 79" fill="none" xmlns="http://www.w3.org/2000/svg">
<path d="M23.5377 34.3307C23.381 33.3935 23.1477 32.6163 23.0664 31.8059C22.9439 30.7337 22.9027 30.472 24.0011 30.1049C25.2435 29.5949 25.432 28.8531 25.4707 27.5706C25.4452 25.4103 25.6815 23.2088 25.8674 20.9227C25.8605 20.5261 25.9301 19.9694 26.3953 19.6927C27.0719 19.2903 27.0993 18.7588 27.1186 18.1175C27.1 16.3538 27.7136 14.7867 28.302 13.1772C28.5065 12.6548 28.8368 12.3438 29.302 12.0671C29.902 11.8247 30.0471 11.3949 30.1259 10.6611C30.3049 7.97839 30.8212 5.38136 31.5992 2.74314C31.7191 2.27105 31.9237 1.74865 32.0265 1.344C32.231 0.821609 32.6961 0.544927 33.2528 0.614564C33.8095 0.684209 34.0359 1.0648 34.1777 1.4957C34.6111 2.89812 34.9599 4.35085 35.3339 5.84587C35.8658 7.99125 36.3302 10.1195 36.4311 12.4067C36.4621 13.1325 36.9411 13.6491 37.4372 14.0982C38.8582 15.4285 38.8582 15.4285 38.1258 17.1808C37.9213 17.7032 37.7671 18.3102 37.5374 18.7903C37.1283 19.8351 37.125 20.6958 37.9653 21.6272C38.5026 22.3381 38.7359 23.1153 38.4709 24.0172C38.4024 24.287 38.2664 24.5396 38.6276 24.9545C39.7191 24.1908 40.9764 24.1871 42.2658 24.6224C42.8728 24.7766 43.1185 24.516 43.323 23.9936C43.7664 22.8139 44.1594 21.5497 44.6701 20.3872C44.7901 19.9151 44.9432 19.595 45.0631 19.1229C45.8721 17.2105 45.8721 17.2105 47.8118 17.488C48.3685 17.5576 48.7994 17.4158 49.1388 16.9277C49.5034 16.4818 49.7079 15.9594 49.9124 15.437C50.1512 14.7798 50.5158 14.3339 50.8974 13.8207C51.3477 13.0376 51.9477 12.7952 52.7147 13.026C53.6669 13.3756 54.3435 12.9731 55.1047 12.5204C57.338 11.0775 59.4112 9.55815 61.4261 7.84444C62.5267 6.90356 63.7027 6.08954 65.0217 5.41953C65.3177 5.24346 65.5714 5.09254 65.9177 5.00104C66.4332 4.80894 66.9738 4.65911 67.5123 5.0831C67.8735 5.49796 67.8462 6.02947 67.6416 6.55187C66.9526 7.99218 66.5757 9.47589 66.0467 10.9928C65.0149 13.7819 64.1936 16.7322 62.8246 19.4356C62.5858 20.0929 62.4819 20.7845 62.8341 21.3765C62.9598 21.5879 63.0605 21.7571 63.0765 21.9766C63.7775 24.0213 63.3776 24.8889 61.2985 25.7248C61.1294 25.8254 60.9522 25.8163 60.7831 25.9169C58.3074 26.7597 58.4835 27.0557 58.8483 28.7279C59.0051 29.6652 58.5468 30.3385 57.7102 30.6644C56.8141 31.0829 56.0529 31.5356 55.1569 31.9541C54.3957 32.4068 54.0311 32.8527 54.3993 33.6642C54.4999 33.8333 54.4908 34.0105 54.5411 34.0951C54.7985 35.2015 54.466 36.0862 53.5436 36.7493C52.4522 37.513 51.4453 38.2264 50.5299 39.2862C51.026 39.7353 51.306 39.3398 51.6523 39.2483C52.5484 38.8298 53.521 38.2513 54.4925 37.9597C55.304 37.5915 56.2001 37.173 57.0746 37.9695C57.3856 38.2998 57.8165 38.158 58.1971 37.9317C58.5777 37.7053 58.8737 37.5292 59.2543 37.3028C60.3961 36.6237 60.6155 36.6077 61.5907 37.5734C62.1623 38.1494 62.5589 38.1424 63.2767 38.0017C64.5946 37.6186 65.9627 37.3201 67.3309 37.0215C68.2178 36.7802 69.0453 36.6315 69.8284 37.0817C70.536 37.4051 71.1772 37.4244 72.0299 37.318C74.7308 37.1427 77.4671 36.5456 80.0434 35.872C80.2629 35.856 80.4743 35.7302 80.6938 35.7141C81.8002 35.4568 82.4072 35.611 82.6496 36.2111C82.892 36.8111 82.6372 37.2489 81.6303 37.9623C79.7433 39.3137 77.9661 40.657 76.0289 41.9238C75.318 42.4611 74.6917 42.9481 74.629 43.9014C74.5594 44.4581 74.3045 44.8959 74.0749 45.376C73.7252 46.3282 73.0909 46.7055 72.0519 46.98C69.5271 47.4513 67.1017 48.3787 64.6764 49.306C63.7048 49.5977 62.8088 50.0161 62.3232 51.221C62.0501 52.0131 61.2729 52.2464 60.3699 52.2683C59.332 52.2559 58.2096 52.2938 57.1466 52.2391C56.6654 52.2963 56.0241 52.277 55.8699 52.8839C55.47 53.7515 54.8357 54.1288 54.0745 54.5816C54.4769 55.2582 55.1273 55.1004 55.6497 55.3049C57.0488 55.7322 57.2318 56.4248 56.3164 57.4845C56.2318 57.5348 56.0204 57.6606 55.9015 57.8458C55.5712 58.1567 55.6627 58.5031 56.1348 58.623C56.7921 58.8618 57.3648 59.1509 58.0472 59.432C59.707 60.105 61.5691 60.8294 63.2712 61.4772C64.6612 62.0816 64.7527 62.428 64.41 63.7768C64.1015 64.9907 64.1358 64.8558 65.1201 65.6444C66.7525 66.8489 68.6729 67.7676 69.7545 69.586C69.8803 69.7974 70.0152 69.8317 70.1158 70.0008C70.8795 71.0923 70.4715 71.8502 69.1377 72.0138C68.5467 72.0791 67.9398 71.9249 67.4585 71.9821C66.5556 72.0039 66.4276 72.3663 66.9398 73.0349C67.4771 73.7458 68.1413 74.3812 68.8478 74.9915C69.3439 75.4406 69.8732 76.0417 70.0643 76.8441C70.3216 77.9505 69.8634 78.6238 68.7489 78.7715C68.1831 78.879 67.6608 78.6745 67.0538 78.5203C65.1826 77.973 63.2702 77.1641 61.4846 76.2796C60.5667 75.7951 59.7986 75.8513 58.8522 76.1852C58.3367 76.3773 57.7961 76.5271 57.2383 76.7444C56.4611 76.9777 55.8542 76.8234 55.5786 76.0714C54.5666 73.6963 52.6232 72.1615 50.9759 70.4507C50.4043 69.8747 49.9574 69.797 49.155 69.988C47.8371 70.3712 47.6519 70.2523 46.8128 69.034C46.2754 68.3231 45.8227 67.5619 45.235 66.7665C45.1344 66.5973 44.9584 66.3013 44.5275 66.4431C44.3583 66.5437 44.2475 66.8386 44.2384 67.0158C44.2796 67.2775 44.3459 67.5816 44.2602 67.9188C44.1632 69.007 43.7061 69.3934 42.6179 69.2964C41.4452 69.2497 41.4452 69.2497 41.1458 70.2865C40.6901 72.504 40.2012 74.5695 39.7455 76.7871C39.7021 77.0991 39.6416 77.4786 39.421 77.7815C39.2165 78.3039 38.8862 78.6149 38.245 78.5956C37.6792 78.7031 37.1659 78.3214 37.0161 77.7808C36.7737 77.1807 36.5061 76.5384 36.3906 75.8629C35.8999 73.9792 35.2492 72.0191 34.3277 70.2772C33.6828 69.0006 33.4725 68.8394 32.0952 69.3151C30.8619 69.648 30.2047 69.4092 29.9827 67.881C29.7253 66.7746 29.612 65.5253 29.7855 64.277C29.8894 63.5855 30.0437 62.9785 29.7258 62.2516C29.0342 62.1477 28.4925 62.5844 27.977 62.7765C25.474 64.1508 23.29 65.9652 21.0636 67.8046C20.4373 68.2916 19.9791 68.965 19.1961 68.5147C18.413 68.0645 18.6358 67.1878 18.7397 66.4962C19.0766 64.4639 19.5735 62.5081 20.4076 60.638C21.2005 58.5061 21.2851 58.4558 19.0424 57.9578C18.216 57.8196 17.3564 57.5294 16.5985 57.1214C14.3751 55.9822 11.9531 56.0489 9.66117 55.1794C7.39442 54.3522 5.13569 53.6347 2.95352 52.7572C2.74318 52.5961 2.55799 52.4772 2.38082 52.4681C1.98529 52.1881 1.63205 51.883 1.752 51.4109C1.82163 50.8542 2.20223 50.6279 2.70859 50.6129C3.13949 50.4711 3.78072 50.4904 4.26193 50.4332C6.02561 50.4147 7.83159 50.371 9.54497 50.2678C10.752 50.1796 10.9977 49.919 10.9095 48.7119C10.6955 47.2935 11.2373 46.8568 12.5449 46.9377C13.4982 47.0004 14.4001 47.2655 15.4219 47.0584C15.5258 46.3669 14.9692 46.2973 14.6239 46.1018C14.1781 45.7373 13.69 45.3979 13.9036 44.6983C14.2532 43.7461 13.7399 43.3644 13.0666 42.9062C10.6009 41.1669 8.56709 38.9989 6.72762 36.7725C6.19029 36.0617 5.75357 35.5199 6.19578 34.6272C6.48488 34.0545 6.12362 33.6396 5.89724 33.259C4.99865 32.1333 4.27833 30.7297 3.63346 29.4531C3.31559 28.7262 3.07318 28.1261 3.38853 27.3088C3.62732 26.6515 3.51177 25.976 3.15962 25.384C1.93624 23.1347 1.1186 20.7013 0.53756 18.1845C0.496369 17.9227 0.39576 17.7536 0.354569 17.4918C0.232102 16.4197 0.952097 15.7052 1.99688 16.1142C4.17906 16.9917 6.26753 18.0967 8.08514 19.4201C8.83392 20.0052 9.4901 20.5309 10.2389 21.116C10.8105 21.692 11.4688 21.6439 12.0529 21.182C12.222 21.0814 12.4335 20.9556 12.6026 20.855C13.7101 20.3108 14.5274 20.6261 14.8351 21.8171C15.5521 24.0813 16.6497 26.1192 17.6456 28.2748C18.0138 29.0863 18.4666 29.8474 19.4188 30.1971C20.076 30.4358 20.4282 31.0279 20.594 31.788C20.7358 32.2189 20.7508 32.7252 20.7577 33.1218C20.8995 33.5527 20.8299 34.1094 21.1911 34.5243C21.5524 34.9391 22.0941 34.5024 22.5239 34.6475C22.7113 34.1926 23.0222 34.5229 23.5377 34.3307ZM9.82417 52.2772C10.5729 52.8623 11.3148 53.0508 12.2017 52.8095C12.8521 52.6517 13.3745 52.8562 13.9724 53.1876C16.5912 54.6068 19.3724 55.5288 22.2815 56.0884C23.7148 56.3808 24.067 56.9729 23.4203 58.388C22.7655 59.6935 22.3382 61.0926 21.8687 62.5169C21.8001 62.7866 21.5453 63.2244 21.8905 63.4198C22.1512 63.6656 22.3717 63.3626 22.6677 63.1866C23.4632 62.5989 24.3855 61.9358 25.2313 61.4328C26.8382 60.4769 28.4955 59.6057 30.195 58.7093C31.3025 58.1651 31.9084 58.6062 32.0812 59.7629C32.1224 60.0246 32.0115 60.3195 32.103 60.6659C31.9798 61.9987 31.924 63.3486 31.8007 64.6814C31.6775 66.0142 31.6775 66.0142 33.1372 66.0619C34.4699 66.1852 35.3547 66.5177 35.8133 67.9624C36.1964 69.2802 37.0024 70.3465 37.3352 71.5798C37.4267 71.9261 37.493 72.2302 37.9571 72.2404C38.3811 71.702 38.4004 71.0607 38.5043 70.3692C38.6516 69.3656 38.7818 68.4294 38.9794 67.5104C39.2032 66.3468 39.5678 65.9009 40.7908 66.0322C41.567 66.0858 41.8127 65.8251 41.9166 65.1336C42.0548 64.3072 42.2947 63.363 42.4328 62.5366C42.5025 61.9799 42.707 61.4575 43.2979 61.3923C43.8889 61.327 44.4113 61.5315 44.7383 62.0813C45.3259 62.8767 45.7786 63.6379 46.3663 64.4334C46.819 65.1946 47.3061 65.8209 47.8434 66.5317C48.2458 67.2083 48.6928 67.286 49.454 66.8332C50.1648 66.2959 50.8221 66.5347 51.444 67.1953C51.6201 67.4913 51.8053 67.6101 51.9814 67.9062C53.2984 69.928 55.4784 71.3793 56.7109 73.4514C56.9876 73.9166 57.4094 73.9519 57.9248 73.7598C58.2712 73.6683 58.5249 73.5174 58.8712 73.4259C59.869 72.8897 60.6451 72.9433 61.6556 73.4872C62.2283 73.7763 62.9108 74.0574 63.4915 74.4562C64.0139 74.6607 64.494 74.8904 65.1775 74.8846C65.1615 74.6651 65.0357 74.4537 64.9854 74.3691C64.3132 73.624 63.7347 72.6513 62.7745 72.192C62.3789 71.912 62.0257 71.6069 62.1456 71.1348C62.2153 70.5781 62.6301 70.2169 63.1959 70.1093C63.5422 70.0178 63.9217 70.0784 64.1835 70.0372C64.7835 69.7948 65.6522 69.9078 66.2282 69.3362C66.0361 68.8207 65.7755 68.575 65.4303 68.3796C64.3272 67.7762 63.3177 66.9454 62.0626 66.3752C60.8829 65.9319 60.868 65.4256 61.3113 64.2459C61.7958 63.328 61.7546 63.0662 60.8367 62.5817C60.1794 62.3429 59.4467 61.9773 58.7048 61.7888C56.8336 61.2416 55.032 60.1377 53.05 59.8854C52.4933 59.8157 52.0464 59.7381 51.8714 59.1552C51.629 58.5551 51.8838 58.1173 52.3753 57.596C53.1295 56.7466 53.2061 56.5866 51.9418 56.1936C49.7757 55.5355 47.6015 54.7678 45.3909 54.7087C44.7497 54.6893 44.4387 54.359 44.3312 53.7933C44.2237 53.2275 44.6054 52.7142 45.0363 52.5724C45.5014 52.2957 46.0078 52.2808 46.489 52.2236C48.1269 51.9936 49.8826 51.8653 51.596 51.7621C52.2372 51.7815 52.8533 51.7585 53.2944 51.1526C53.7446 50.3696 54.4796 50.1615 55.2819 49.9704C56.6501 49.6719 57.984 49.5082 59.3168 49.6315C60.3546 49.6439 60.8701 49.4518 61.3546 48.5339C61.5934 47.8766 62.3112 47.7359 62.9113 47.4935C65.5561 46.5501 68.2271 45.3621 70.9212 44.7901C72.2893 44.4916 72.6196 44.1806 72.5908 42.881C72.5529 41.7586 73.1038 41.1447 73.8992 40.557C74.449 40.2301 75.0913 39.9625 75.2798 39.2206C74.5813 38.7201 74.0316 39.0471 73.4658 39.1546C71.997 39.284 70.4838 40.0124 69.0194 38.9941C68.8845 38.9599 68.7497 38.9256 68.4628 38.9245C66.5791 39.4151 64.6383 39.4246 62.9205 40.6753C62.2096 41.2127 61.6026 41.0584 61.1408 40.4744C61.0402 40.3053 60.8801 40.2287 60.7795 40.0596C60.3679 39.5601 59.8113 39.4905 59.2696 39.9272C58.9735 40.1033 58.8044 40.2039 58.5084 40.38C57.7129 40.9676 57.0203 41.1506 56.2635 40.4557C55.7422 39.9643 55.0838 40.0124 54.5341 40.3394C53.638 40.7579 52.7922 41.261 51.7441 41.7126C50.5521 42.3072 49.4103 42.9863 48.2273 43.4037C47.2467 43.8725 46.274 44.451 45.1104 44.2272C44.284 44.089 43.6416 44.3566 43.1925 44.8527C42.9468 45.1133 42.6417 45.4666 42.2611 45.693C41.9308 46.0039 41.4496 46.0611 41.0541 45.7812C40.6082 45.4166 40.551 44.9354 40.7555 44.413C40.8755 43.9409 41.3406 43.6642 41.6709 43.3533C44.9041 40.8004 48.0528 38.2978 51.2609 35.7027C52.598 34.6783 52.5981 34.6783 51.9623 33.2245C51.4523 31.9821 51.5632 31.6872 52.6295 30.8812C53.6364 30.1678 54.7781 29.4886 55.8434 28.9696C56.52 28.5671 56.7999 28.1716 56.4821 27.4447C56.466 27.2252 56.29 26.9292 56.2488 26.6674C56.076 25.5107 56.2463 25.1232 57.3115 24.6041C58.123 24.2359 58.9345 23.8678 59.8557 23.4916C60.9632 22.9473 61.082 22.7621 60.5287 21.8318C59.7992 20.6054 60.0734 19.5264 60.5922 18.4736C61.9702 15.5929 62.8762 12.5923 63.8918 9.58374C63.9604 9.31398 64.0461 8.97677 63.7854 8.73106C63.5157 8.66252 63.2196 8.83859 63.0082 8.96436C61.0013 10.7878 58.6835 12.2809 56.3908 13.8164C56.0102 14.0428 55.6799 14.3537 55.4251 14.7915C55.1018 15.4991 54.3748 15.817 53.7176 15.5782C52.3687 15.2355 51.7585 15.942 51.2648 17.0371C50.9918 17.8292 50.4409 18.4431 50.3531 19.3541C50.3749 20.2571 49.7497 20.4572 48.881 20.3442C48.5861 20.2334 48.3586 20.1397 48.1483 19.9786C47.1297 19.3249 46.9001 19.805 46.5253 20.7149C46.2019 21.4225 45.9712 22.1895 45.8078 22.9736C45.4651 24.3225 44.5155 25.5171 44.4334 27.1116C44.3798 27.8877 43.6529 28.2056 42.8607 27.9325C42.5155 27.7371 42.2377 27.5589 41.9268 27.2286C40.7664 26.144 40.3949 26.1932 39.7059 27.6336C39.5105 27.9788 39.3826 28.3411 39.1872 28.6864C37.847 32.6894 36.5914 36.6422 35.3358 40.595C34.9862 41.5472 34.5772 42.592 34.143 43.5945C33.9385 44.1169 33.4824 44.2164 33.0355 44.1387C32.5634 44.0188 32.2867 43.5536 32.3221 43.1318C32.3152 42.7352 32.426 42.4403 32.4694 42.1282C33.2623 39.9964 33.8952 37.7879 34.6881 35.6561C35.2696 33.65 35.6065 31.6176 35.3616 29.4734C35.0561 27.7086 34.953 25.9952 35.8031 24.3445C36.1265 23.6369 36.0955 22.9111 35.5239 22.3351C34.7248 21.6654 34.6527 20.6779 34.9771 19.6834C35.3268 18.7312 35.4398 17.8625 35.7894 16.9103C35.9436 16.3033 36.0133 15.7467 35.4406 15.4576C34.3878 14.9388 34.1384 13.9421 34.1508 12.9042C34.0936 12.423 34.0787 11.9167 34.0214 11.4355C33.8075 10.017 33.7204 8.5231 33.0755 7.24643C32.7292 7.33793 32.6104 7.52311 32.6264 7.74257C32.334 9.17597 32.0668 10.6517 32.1539 12.1456C32.226 13.1331 31.9369 13.7058 31.05 13.9472C30.0784 14.2388 29.8397 14.8961 29.5998 15.8402C29.2068 17.1045 29.1178 18.3024 29.366 19.586C29.4725 20.4386 29.3182 21.0456 28.5571 21.4984C28.0919 21.775 27.8462 22.0357 27.7674 22.7695C27.666 25.0053 27.4298 27.2068 27.5901 29.4014C27.6623 30.389 27.5081 30.9959 26.5274 31.4647C25.1662 32.1599 25.0896 32.3199 25.6499 33.6469C26.4355 35.6413 26.8576 37.7947 27.5586 39.8395C27.7507 40.355 27.8914 41.0728 27.7372 41.6797C27.6172 42.1518 27.5144 42.5565 27.0835 42.6983C26.5681 42.8904 26.1302 42.6356 25.9039 42.255C25.6432 42.0093 25.5769 41.7052 25.3162 41.4595C24.5022 40.2835 23.6127 38.9806 22.7564 37.8297C22.1688 37.0342 22.1688 37.0342 21.1962 37.6127C20.1893 38.3261 19.4817 38.0028 19.1146 36.9044C19.0231 36.5581 18.9568 36.254 18.9076 35.8825C18.7005 34.8607 18.6284 33.8731 18.379 32.8765C18.2875 32.5301 18.2726 32.0238 17.8256 31.9461C16.7466 31.672 16.3704 30.7507 15.9519 29.8547C15.0395 27.9357 14.1945 26.0338 13.1975 24.1651C12.779 23.2691 12.6944 23.3194 11.8487 23.8224C11.0029 24.3255 10.6566 24.417 9.8575 23.7473C9.46197 23.4673 9.18528 23.0021 8.74747 22.7473C7.32648 21.417 5.69406 20.2125 3.90852 19.3281C3.69817 19.167 3.33582 19.039 3.16667 19.1396C2.78607 19.366 3.01245 19.7466 3.10395 20.0929C3.57856 21.7571 4.32403 23.2029 5.22954 24.7253C5.63199 25.4019 5.8241 25.9174 5.45844 26.6501C5.25392 27.1725 5.10882 27.6023 5.32608 28.1601C6.19733 29.8173 6.85713 31.6003 8.64267 32.4848C9.56059 32.9693 9.7527 33.4847 9.16758 34.2335C8.46362 35.1675 8.79061 35.7172 9.32794 36.4281C11.2017 38.5195 13.2869 40.4852 15.9823 41.7444C16.9848 42.1786 17.0351 42.2632 16.8536 43.4017C16.7496 44.0932 16.976 44.4738 17.5739 44.8052C17.9191 45.0006 18.2312 45.044 18.4918 45.2897C19.7972 45.9445 21.0352 46.5821 22.2561 47.2871C22.8288 47.5762 23.1055 48.0414 22.8667 48.6987C22.5936 49.4908 21.5364 50.1197 20.8288 49.7963C18.9919 49.1142 17.1939 49.2676 15.2119 49.0153C13.2721 48.7379 13.1453 48.8133 12.5477 50.6C12.1044 51.7796 11.4439 52.4015 10.1453 52.1434C10.0024 51.9994 9.99333 52.1766 9.82417 52.2772Z" fill="white"/>
</svg>
