<svg width="113" height="91" viewBox="0 0 113 91" fill="none" xmlns="http://www.w3.org/2000/svg">
<path fill-rule="evenodd" clip-rule="evenodd" d="M84.4107 16.9607C83.6886 15.7101 82.9508 14.3824 82.213 13.0547C81.4752 11.7269 80.7373 10.3992 80.0153 9.14857C78.9198 7.2511 77.7745 5.26738 79.655 3.14666C81.5356 1.02594 85.2381 0.268281 87.5277 1.24632C90.8693 2.65202 93.6045 6.59277 92.8923 10.3389C92.4816 12.416 93.2285 13.7097 94.8015 14.6415C94.9622 14.7585 95.1265 14.8734 95.2923 14.9894C95.9446 15.4455 96.62 15.9179 97.1943 16.595C98.9433 18.2301 99.1594 19.6003 97.9786 20.7421C96.9703 21.7842 95.2284 21.7549 93.7879 20.0566C93.0677 19.2075 92.3474 18.3583 91.1462 17.6719C90.7247 17.3403 89.9947 17.0718 89.5768 17.543C89.2451 17.9645 89.4941 18.3957 89.6933 18.7407L91.2369 21.4144C91.6851 22.1907 92.0337 22.7944 92.3093 23.6702C93.0332 25.3223 92.6055 26.3742 91.2486 26.8126C90.1274 27.46 89.0755 27.0323 88.1792 25.4798L85.9384 21.5986L83.349 17.1137C84.0667 17.0706 84.2051 17.0623 84.3225 17.0083C84.3505 16.9954 84.3774 16.9799 84.4107 16.9607ZM84.9422 8.71898L86.3863 11.2202C86.5855 11.5652 87.0069 11.8968 87.5378 11.8204C87.9823 11.7937 88.314 11.3722 88.5461 10.7782C89.4512 8.76067 88.1165 5.85133 85.9398 5.26808C85.3956 5.12227 85.0506 5.32145 84.6194 5.57043C84.2744 5.76961 84.0423 6.36359 84.2913 6.79483C84.2451 7.5115 84.6932 8.28774 84.9422 8.71898ZM11.689 45.8825C12.3209 46.8333 12.9733 47.8148 13.1418 49.4817C11.8417 49.257 10.8321 48.644 9.84686 48.0458C9.08955 47.586 8.34664 47.1349 7.49726 46.8757C7.4257 46.8092 7.35389 46.7422 7.28182 46.675L7.28075 46.6741C6.35332 45.8096 5.37935 44.9018 4.31129 44.3451C3.43189 43.8179 2.30708 43.6623 1.45794 44.3826C0.608796 45.1028 0.353621 46.0551 0.728878 47.1034C0.755565 47.548 1.00454 47.9793 1.20373 48.3243C4.36396 53.3996 6.87066 58.7372 9.32757 63.9886C9.70282 65.037 10.4231 65.8861 11.0437 66.5627C12.0227 67.2625 13.2471 67.5906 14.2688 66.7707C15.39 66.1234 15.3731 65.0982 14.9978 64.0499C14.8371 63.4392 14.5738 62.9588 14.3072 62.4724L14.3072 62.4724C14.0944 62.0841 13.8795 61.6921 13.7129 61.2268C13.5069 60.7566 13.259 60.3106 13.0167 59.8747L13.0166 59.8746C12.4075 58.7788 11.8335 57.7464 12.0491 56.5524C12.7525 56.3763 13.2469 56.4359 13.4461 56.7809C14.571 58.128 16.1438 58.8888 17.641 59.6131L17.641 59.6131C18.1272 59.8483 18.6054 60.0796 19.0577 60.3259C19.1398 60.3633 19.221 60.4012 19.3015 60.4388C19.9856 60.7583 20.6233 61.0562 21.4069 60.8096C23.4804 60.4174 24.1402 58.7715 23.0678 56.5157C20.5611 51.1781 18.0313 46.1988 14.8977 41.568C14.5491 40.9643 14.35 40.6193 13.8289 40.1151C12.7503 39.2429 11.798 38.9877 10.6768 39.6351C9.56888 40.5047 9.31371 41.457 9.78855 42.6778L11.133 45.0065C11.307 45.3078 11.497 45.5936 11.6888 45.8823L11.6888 45.8823L11.6889 45.8824L11.6889 45.8824L11.6889 45.8825L11.689 45.8825ZM24.0648 84.7525C23.4384 83.7195 22.7749 82.6253 22.7576 81.0754C24.1528 81.034 24.8606 81.5967 25.2893 81.9376L25.3557 81.9903C26.7912 83.3323 28.4075 84.1825 29.9609 84.9997C30.3003 85.1782 30.6366 85.3551 30.9674 85.5353C31.3158 85.8723 31.7901 85.9825 32.2438 86.0878C32.4687 86.14 32.6885 86.191 32.8854 86.2679C34.0102 86.4235 34.886 86.1478 35.463 85.3547C36.0632 84.2032 35.7875 83.3274 35.1669 82.6507C33.8998 81.0536 33.1533 79.3499 32.4069 77.6462C32.1581 77.0783 31.9093 76.5104 31.6412 75.9464C31.1407 75.0795 30.6622 74.168 30.1805 73.2502L30.1805 73.2501L30.1804 73.2499L30.1803 73.2498L30.1802 73.2497L30.1802 73.2496L30.1801 73.2495L30.18 73.2494L30.18 73.2492L30.1799 73.2491L30.1799 73.249C29.3678 71.7018 28.5464 70.1369 27.5944 68.738C27.0466 67.7893 26.3264 66.9401 25.7057 66.2635C25.0851 65.5868 24.1327 65.3317 23.184 65.8794C22.3349 66.5997 22.0797 67.552 22.3554 68.4278C22.5246 69.2546 22.9811 69.864 23.4288 70.4614C23.6493 70.7557 23.8676 71.0471 24.0484 71.3603C24.2565 71.7206 24.4885 72.0795 24.7236 72.4433C25.5015 73.6467 26.3135 74.9029 26.4057 76.4391C25.8749 76.5156 25.3805 76.4561 25.2809 76.2836C23.1371 74.7614 20.9435 73.1529 18.9223 71.4448C18.8725 71.3586 18.7423 71.2326 18.612 71.1065C18.4817 70.9805 18.3515 70.8544 18.3017 70.7682C17.1733 69.8097 16.2076 69.3322 14.8277 70.129C13.8558 71.035 13.9723 72.2328 14.3476 73.2811C14.705 74.1715 15.057 75.0584 15.4076 75.9417L15.4087 75.9445C17.1163 80.2466 18.7902 84.4639 20.8887 88.5943C21.1875 89.1118 21.7085 89.6159 22.2296 90.1201C23.4309 90.8065 24.4063 90.7033 25.2555 89.9831C25.9321 89.3624 26.1873 88.4101 25.6395 87.4613L24.3946 85.3051C24.2885 85.1214 24.1773 84.9379 24.0648 84.7525ZM81.4942 41.1836C82.6215 43.8944 83.7313 46.5634 85.4498 48.7214C85.9806 49.7321 86.5087 50.6968 86.9947 51.5846L86.9948 51.5848L86.9949 51.5849C87.5851 52.6632 88.1132 53.628 88.5086 54.4237C89.1149 55.4739 90.2834 56.0829 91.4211 55.426C92.5589 54.7691 92.4406 53.5538 92.0598 52.49C91.8217 51.7113 91.5062 51.0198 91.1875 50.3213C90.9785 49.8633 90.7682 49.4023 90.5774 48.9117C90.4738 48.7323 90.5981 48.4758 90.7109 48.2432C90.7631 48.1354 90.8129 48.0328 90.8363 47.9454C91.3479 47.4166 91.725 47.6657 92.1527 48.0022C92.4171 48.2367 92.6435 48.5288 92.8995 48.8593L92.8995 48.8593L92.8996 48.8593L92.8996 48.8593L92.8996 48.8594C93.1065 49.1265 93.3329 49.4186 93.6144 49.7255C94.3452 50.5871 94.9615 51.0482 95.7663 51.6337C95.929 51.6952 96.0878 51.7589 96.2434 51.8214C97.3733 52.2747 98.3358 52.6609 99.3889 51.6426C100.251 50.9118 100.307 49.5954 99.0478 48.2222C98.7329 47.8789 98.3271 47.5297 97.9213 47.1806L97.9213 47.1806L97.9212 47.1805C97.5154 46.8314 97.1097 46.4822 96.7948 46.1389C95.0705 44.5672 94.4235 42.8403 94.123 40.0965C93.8883 32.4138 86.7802 29.3995 81.3676 32.7579C79.1057 34.2972 78.5941 34.8259 79.7834 37.2899C80.4043 38.5626 80.9513 39.8779 81.4942 41.1836L81.4942 41.1836ZM87.1883 42.2333L86.0767 40.3079C86.059 40.0125 85.9142 39.6126 85.751 39.1619C85.5404 38.5801 85.2991 37.9136 85.261 37.2781C84.9813 36.3894 85.7689 35.9346 86.7352 36.1935C89.2706 36.9469 90.3958 39.0978 89.5549 41.6837C89.3195 42.2864 89.0704 42.6636 88.3568 42.8423C87.6431 43.0209 87.3904 42.5833 87.1883 42.2333ZM73.8586 27.7677C73.2857 25.3442 71.8848 22.9863 70.4217 20.5236C69.4413 18.8735 68.433 17.1763 67.627 15.3808C65.6183 10.9057 66.278 9.2598 71.1515 7.94104C74.854 7.18338 77.4024 8.01203 79.3809 11.2397C79.5023 11.45 79.6301 11.6621 79.759 11.8759L79.759 11.876L79.759 11.876L79.7591 11.8761L79.7591 11.8761L79.7591 11.8762L79.7592 11.8762L79.7592 11.8763L79.7592 11.8763C80.4758 13.0655 81.2268 14.3119 81.1176 15.6419C80.9987 18.239 82.3759 19.8835 83.7911 21.5735L83.7911 21.5736C83.985 21.8051 84.1796 22.0375 84.3712 22.2733C84.5599 22.4958 84.7698 22.7139 84.982 22.9345L84.982 22.9345C85.5798 23.5558 86.196 24.1962 86.4092 25.0066C86.6849 25.8824 86.6022 26.7351 85.9256 27.3558C85.0764 28.076 84.2735 28.0796 83.4804 27.5026C83.1022 27.1851 82.7282 26.8033 82.3483 26.4155C81.8313 25.8877 81.3033 25.3487 80.739 24.9454C80.6915 24.8994 80.6432 24.8521 80.5939 24.8037C80.1021 24.3214 79.5105 23.7413 78.6449 23.5094C78.051 23.2773 77.4472 23.6259 77.6233 24.3292C77.6519 24.4434 77.6808 24.5633 77.7105 24.6865L77.7105 24.6865L77.7105 24.6866L77.7105 24.6866C77.8637 25.3223 78.0373 26.0422 78.2876 26.4757C78.3941 26.8141 78.5115 27.112 78.6264 27.4035C78.8089 27.8662 78.985 28.313 79.1012 28.8809C79.3769 29.7567 78.9723 30.4503 78.1961 30.8984C77.2473 31.4462 76.295 31.191 75.6744 30.5144C75.071 30.2924 74.71 29.5378 74.2017 28.4753L74.2016 28.475L74.2014 28.4746C74.0948 28.2518 73.9817 28.0155 73.8586 27.7677ZM73.364 16.5535L73.9117 17.5022C74.0883 17.6947 74.2311 17.9254 74.3702 18.1502C74.7202 18.7157 75.0476 19.2446 75.8333 19.0378C76.782 18.4901 77.2097 17.4382 76.9207 16.34L76.8581 16.1786C76.3971 14.9873 75.8436 13.5567 74.4345 12.8305C73.7409 12.426 73.1105 12.3299 72.4338 12.9506C71.9297 13.4717 72.0062 14.0025 72.3049 14.52C72.5673 15.1735 72.9158 15.7773 73.364 16.5535ZM47.7373 75.7389C48.0279 71.6612 47.3432 67.6866 45.2785 64.5087C43.7348 61.835 42.3174 59.7784 39.4338 58.5683C35.3222 56.2272 31.4508 57.8874 30.7556 62.6587C29.991 68.505 31.8175 73.6604 35.5548 77.9426C37.1313 79.6773 39.2485 80.7549 41.6706 80.9665C45.7483 81.2572 47.7187 79.8896 47.7373 75.7389ZM39.16 63.6713C39.8803 64.5204 40.428 65.4691 40.8762 66.2454C42.3336 68.9689 43.5056 71.3972 43.1215 73.9189C42.9829 76.0689 41.8617 76.7162 40.1891 75.6119C37.823 74.1031 34.8281 67.3223 35.4575 64.4289C35.5402 63.5762 35.6958 62.4514 36.8935 62.3349C37.9916 62.0459 38.7119 62.895 39.16 63.6713ZM97.2103 39.2756L97.2102 39.2755L97.2102 39.2754L97.2102 39.2754L97.2101 39.2753L97.2101 39.2753L97.2101 39.2753C96.1426 36.9748 95.078 34.6806 93.9036 32.4089C93.8664 32.3239 93.8287 32.2385 93.7908 32.1529C93.0927 30.5744 92.3499 28.8946 93.8191 27.2828C95.6996 25.1621 98.3769 24.4213 100.716 25.4856C103.155 26.7224 105.104 28.7026 105.795 31.2936C106.711 34.6742 107.801 37.9552 111.242 39.5334C111.514 39.6063 111.663 39.8651 111.763 40.0376C112.583 41.0592 113.452 42.1671 112.421 43.5676C111.298 44.6535 110.279 44.1185 109.191 43.5472C109.136 43.5179 109.08 43.4885 109.023 43.4592C108.439 43.2216 107.988 42.9071 107.536 42.5927C107.175 42.3412 106.814 42.0896 106.385 41.8774C105.333 41.4497 104.584 42.3425 105.009 43.477C105.147 43.915 105.371 44.3031 105.595 44.6912C105.819 45.0793 106.043 45.4674 106.181 45.9054C106.656 47.1262 106.673 48.1514 105.293 48.9481C104.171 49.5955 102.947 49.2674 102.25 48.0599C101.718 47.3287 101.271 46.653 100.844 46.0077L100.844 46.0076C100.371 45.2946 99.9238 44.6188 99.415 43.9467C98.6555 42.3902 97.9323 40.8315 97.2103 39.2756ZM101.352 32.3634C101.042 32.025 100.775 31.6618 100.508 31.2986C100.24 30.9354 99.9731 30.5722 99.6628 30.2338C99.5632 30.0613 98.9692 29.8293 98.81 30.1512C98.6376 30.2508 98.4055 30.8447 98.5549 31.1035C98.7358 31.5165 98.9114 31.9326 99.087 32.3487C99.6137 33.5971 100.14 34.8455 100.813 36.0099C101.062 36.4411 101.433 36.6865 101.864 36.4375C102.209 36.2384 102.541 35.8169 102.292 35.3856C102.231 34.8099 102.015 34.2434 101.789 33.65C101.633 33.2381 101.471 32.8133 101.352 32.3634ZM19.8922 39.2617C19.3393 42.6859 20.12 46.0301 21.8131 48.9625C23.234 51.8221 25.1689 53.5799 27.8036 54.3588C31.1318 55.5422 33.633 54.0981 34.8662 50.8562C36.6097 45.7096 34.0327 38.4576 29.3734 35.1677C24.442 31.805 20.6604 34.2183 19.8922 39.2617ZM28.3032 50.0454C27.1615 48.8646 26.4643 47.6571 25.817 46.5359C25.6768 46.2081 25.5334 45.8868 25.3923 45.5708L25.392 45.5702C24.541 43.6637 23.7756 41.9492 24.3186 40.1561C24.6466 38.9317 25.4229 38.4835 26.5379 39.2198C29.1761 40.8015 31.4374 46.5109 30.4496 49.3811C30.2309 50.1974 29.0963 50.6224 28.3032 50.0454ZM73.8992 50.1387L73.8995 50.139L73.8997 50.1394C74.8015 51.3981 75.7032 52.6568 76.5234 53.8752C76.7255 54.2253 76.8771 54.4879 77.2542 54.7369C77.3387 54.8187 77.4264 54.9046 77.5168 54.9932L77.5171 54.9935L77.5171 54.9935C78.5571 56.0129 79.952 57.3802 80.9986 56.7759C82.2326 56.0634 81.6031 54.8517 81.0165 53.7225C80.8542 53.4102 80.6952 53.1042 80.5799 52.8168C79.9282 50.9774 79.0601 49.2629 78.2238 47.6112L78.2237 47.6109L78.2235 47.6106C77.8707 46.9138 77.5236 46.2282 77.2008 45.5492C76.2642 43.5227 76.2705 42.1188 77.5462 41.4989C78.5089 40.9431 80.0274 41.35 81.1896 43.3629C83.7395 47.3752 85.4006 51.6672 86.1866 56.4645C86.8815 60.4976 83.6839 63.0438 79.6806 61.9711C77.1957 61.3053 75.0474 60.2118 73.6092 58.1249C73.1511 57.4877 72.6845 56.8509 72.2166 56.2122L72.2163 56.2119L72.2161 56.2115L72.2158 56.2111L72.2158 56.2111C70.262 53.5444 68.2843 50.845 66.7951 47.9395L66.795 47.9394C66.3403 47.1518 65.9866 46.5392 65.7069 45.6505C65.225 44.4117 65.0563 43.1088 66.6821 42.2868C67.6448 41.731 68.8133 42.34 69.8978 43.8143L70.8073 45.3896C70.9319 45.201 71.1845 45.6386 71.2756 46.4028C72.0957 47.6211 72.9974 48.8798 73.8991 50.1384L73.8992 50.1386L73.8992 50.1387ZM54.3064 56.89C54.65 57.4529 54.987 58.0049 55.2984 58.5442C56.2126 60.7111 57.414 62.6344 58.6313 64.5831C59.5225 66.0097 60.4221 67.45 61.2238 69.0094C61.527 69.5345 62.0557 70.046 62.5844 70.5576C63.1132 71.0692 64.0795 71.3281 64.8672 70.8733C65.8298 70.3175 65.8262 69.5028 65.8091 68.4625C65.6908 67.2471 65.2361 66.4595 64.5052 65.5978C63.168 63.686 63.0227 62.0195 64.7559 59.9686C67.4987 56.6347 67.3425 52.524 64.7358 49.8281C61.0446 45.658 57.5195 45.0093 53.5072 47.5592C51.1812 48.7854 50.6597 49.9033 51.8489 52.3674C52.4965 53.9256 53.4233 55.4435 54.3064 56.89L54.3064 56.89L54.3064 56.89ZM58.8731 56.2469L57.8625 54.4966C57.7988 54.185 57.5998 53.8616 57.3909 53.5221C56.9701 52.8384 56.5094 52.0896 57.0333 51.2412C57.6188 50.4364 59.491 51.4559 61.0132 52.6776C61.8451 53.7142 62.1248 54.603 61.7919 55.8454C61.6945 56.4851 61.4356 57.4514 60.3952 57.4686C59.53 57.3847 59.2268 56.8596 58.8731 56.2469ZM55.61 26.4608L55.6099 26.4607C54.6699 24.892 53.6893 23.2555 53.1636 21.2018L53.1418 21.0641C52.9326 19.7494 52.7464 18.5793 54.2243 18.0594C55.1731 17.5116 56.4971 18.0122 57.2209 19.6643C57.9925 21.6916 59.2095 23.6278 60.4146 25.545L60.4146 25.5451C60.9468 26.3917 61.4767 27.2347 61.9648 28.0802C62.9607 29.8052 64.3745 31.0589 65.8746 32.2628C66.3957 32.7669 67.0261 32.8629 67.444 32.3917C68.0477 32.0431 68.1935 31.4989 68.1037 30.7458C68.077 30.3012 67.9872 29.5481 67.7382 29.1168C67.0361 27.9007 66.5378 26.543 66.0322 25.1657L66.0322 25.1657C65.4264 23.5151 64.8102 21.8363 63.8203 20.339C63.4718 19.7353 63.173 19.2178 63.2557 18.3651C63.3116 17.0678 64.3333 16.2479 65.5577 16.576C66.7821 16.9041 67.8242 17.9124 68.2991 19.1332C68.6826 20.0781 69.0946 21.0249 69.5094 21.9781C70.5668 24.408 71.6423 26.8793 72.3104 29.4671C72.9746 31.6135 72.7497 33.8133 71.2142 35.7349C69.2607 38.1277 66.5069 38.3376 63.7691 36.5833C60.9821 34.8348 59.3301 32.2615 57.7691 29.8301C57.5123 29.43 57.258 29.0339 57.0015 28.6458C56.8387 28.1648 56.6395 27.8198 56.2181 27.4881C56.0208 27.1465 55.8164 26.8053 55.61 26.4608ZM46.3953 21.4295L43.2904 23.2222C42.8591 23.4712 42.2554 23.8197 41.6748 23.81C40.3944 24.7792 39.8938 26.1032 40.7901 27.6556C42.7442 30.8999 44.1965 34.2627 45.6731 37.6814C46.2936 39.1181 46.9183 40.5647 47.5864 42.0165L47.5864 42.0166C48.1342 42.9653 48.6819 43.914 49.3026 44.5906C50.5439 45.9439 51.7683 46.272 52.6174 45.5517C53.4666 44.8315 53.6221 43.7067 52.7258 42.1542C51.9291 40.7742 51.368 39.6032 50.7438 38.1236C50.1854 36.6566 49.9073 35.926 50.0943 35.345C50.2799 34.7686 50.9234 34.3396 52.2055 33.4848C52.4331 33.3534 52.633 33.1739 52.8217 33.0044C52.9905 32.8528 53.1505 32.7092 53.3133 32.6152C53.99 31.9945 54.1456 30.8697 53.6974 30.0935C53.2492 29.3172 52.3698 28.79 51.3215 29.1652C50.3959 29.3546 49.6926 29.5307 48.9163 29.9789C47.7088 30.676 47.0153 30.2714 46.3679 29.1502C45.9927 28.1019 45.6174 27.0536 46.9974 26.2568L48.5499 25.3605C49.6578 24.4909 50.0854 23.439 49.4381 22.3177C48.7907 21.1965 47.6659 21.0409 46.3953 21.4295Z" fill="white"/>
</svg>
