<svg width="138" height="136" viewBox="0 0 138 136" fill="none" xmlns="http://www.w3.org/2000/svg">
<path d="M72.5167 73.2104C71.508 66.5413 73.3337 59.3684 73.8253 52.1971C74.1534 47.6942 75.3203 47.3593 79.8224 47.0203C90.3279 46.6741 98.0111 56.8372 92.0212 68.0173C90.1919 72.1885 89.6953 75.1908 90.867 78.8581C91.2024 80.3585 92.0384 82.1919 92.3737 83.6923C93.0444 86.6932 91.8793 88.5289 90.0453 88.8647C87.378 89.5349 86.3752 87.7018 84.8721 85.8692C84.2033 84.3692 83.7016 83.2025 83.3659 81.3686C83.0305 79.8681 83.0291 78.7008 82.6944 77.7006C82.3599 76.8673 82.0256 76.2006 80.8586 76.5355C80.5255 76.8695 79.6921 77.204 79.6927 77.7043C79.3618 79.8725 79.3643 81.8737 78.8666 84.0421C78.5353 85.8769 77.7037 87.7123 75.5358 87.7149C73.368 87.7175 72.1984 85.8845 72.196 83.8834C72.3596 81.2151 72.3549 77.3796 72.5167 73.2104ZM80.3404 61.6946C80.3423 63.1954 80.3437 64.3627 80.3449 65.3633C80.3457 66.0303 80.3467 66.8641 81.5144 67.1962C82.6821 67.5283 83.3488 67.194 84.1817 66.526C87.5133 63.5203 87.6752 59.5178 84.6697 56.353C83.501 55.1871 82.0002 55.1889 81.6685 56.6902C80.8367 58.3588 80.8395 60.6934 80.3404 61.6946Z" fill="white"/>
<path d="M96.4174 77.8828C96.9019 70.8156 97.7152 63.9123 98.0354 56.8452C98.3605 53.8867 98.5209 50.5997 102.135 49.4449C106.57 47.9605 111.009 49.1055 113.478 52.5537C115.948 56.3306 117.104 60.7664 115.958 65.0406C114.486 70.63 113.342 76.2189 116.964 81.3091C117.293 81.6374 117.294 82.1304 117.294 82.4591C117.625 84.5951 117.957 86.8955 115.329 88.0491C112.7 88.7096 111.712 86.9031 110.559 85.0967C109.407 83.619 109.077 82.1404 108.089 80.6625C106.937 79.1848 105.13 79.8444 104.804 81.8168C104.477 83.2963 104.807 84.775 104.48 86.2544C104.154 88.3913 103.334 89.8713 100.705 89.8745C98.5683 89.8771 97.0875 88.3998 97.0847 86.099C96.7522 82.977 96.7493 80.5118 96.4174 77.8828C96.7461 77.8824 96.7461 77.8824 96.4174 77.8828ZM108.725 62.9129C108.394 61.4343 108.393 59.9552 108.062 58.4765C108.062 58.1478 107.403 57.3269 106.911 57.6562C106.582 57.6566 105.761 58.315 105.762 58.808C105.437 61.7665 104.947 64.7252 104.951 67.6834C104.952 68.5051 105.281 69.162 106.103 69.161C106.76 69.1602 107.582 68.8306 107.581 68.0089C108.236 66.529 108.234 64.7213 108.725 62.9129Z" fill="white"/>
<path d="M54.1534 58.2254C54.4928 63.061 55.1663 68.3965 55.5057 73.2322C55.5065 73.8992 55.5071 74.3995 55.8414 75.0661C56.5112 77.3999 57.3495 81.0676 59.5173 81.065C62.519 81.0614 61.8475 77.3935 62.1782 75.0585C63.0066 70.5549 63.0012 66.0524 63.3296 61.8831C63.6587 58.2139 64.8236 56.2114 67.1585 56.3754C68.9928 56.3731 70.8294 58.2053 70.834 62.0407C71.177 69.878 70.0187 77.3836 67.1929 84.8912C64.8659 91.2309 58.1968 92.2395 53.3549 87.4093C50.3496 84.4113 48.1777 81.0787 47.8392 76.9101C47.1641 70.2406 46.1552 63.4046 46.4807 56.7339C46.4789 55.233 46.4775 54.0657 46.8092 52.5645C47.1401 50.3962 47.9715 48.3941 50.9733 48.5572C52.8077 48.555 53.9772 50.3879 54.3144 53.3892C54.3158 54.5565 54.3166 55.2236 54.318 56.3909C54.6513 56.2237 54.6523 57.0575 54.1534 58.2254Z" fill="white"/>
<path d="M21.3078 62.4335C21.3034 58.7648 20.9649 54.5962 21.4605 50.7601C21.7886 46.2572 23.4548 45.0879 27.7907 45.2494C35.628 44.9064 40.1351 48.7365 41.9804 57.7393C43.4884 63.7408 40.3273 69.7479 33.6599 72.2574C29.4927 73.7633 28.3284 76.2661 28.6666 80.1011C29.0023 81.9351 29.0041 83.4359 28.1726 85.2713C27.3406 86.7731 26.675 87.9412 24.8406 87.9434C23.3398 87.9453 22.171 86.7794 21.8361 85.6124C21.5012 84.4455 21.1663 83.2786 21.165 82.2781C21.4903 75.4405 20.4821 69.1049 21.3078 62.4335ZM28.3073 58.7563C28.3091 60.2572 28.3099 60.9242 28.3113 62.0915C28.3127 63.2588 28.3139 64.2594 29.4823 65.0918C30.9841 65.9238 32.15 64.755 32.816 63.9204C34.3151 62.4178 34.6468 60.9165 34.3106 58.7491C33.1397 55.7488 31.3017 52.7494 29.8017 53.4182C27.6352 54.5882 28.8058 57.2549 28.3073 58.7563Z" fill="white"/>
</svg>
