<svg width="21" height="24" viewBox="0 0 21 24" fill="none" xmlns="http://www.w3.org/2000/svg">
<path d="M9.37839 2.17325C9.37839 3.76868 8.7258 5.22749 8.33888 6.75483C8.10452 7.67993 7.99591 8.53802 7.55924 9.41137C7.23801 10.0538 6.69211 10.3387 6.16359 10.7011C5.59154 11.0934 4.97969 10.9764 4.36369 11.346C4.05642 11.5304 1.87621 11.5467 2.00553 11.7407C2.61608 12.6565 4.10862 12.8712 5.08558 13.2229C5.90104 13.5165 6.78254 13.5585 7.56886 13.9159C8.01104 14.1169 8.53176 14.138 8.95489 14.3394C9.18285 14.448 9.35079 14.7015 9.61902 14.8207C10.4454 15.188 10.8959 16.352 11.2072 17.0634C11.5114 17.7588 11.6307 18.9035 11.6307 19.6718C11.6307 20.2728 11.506 20.8357 11.8809 21.3177C11.9769 21.441 11.9447 21.7852 11.9964 21.5006C12.0984 20.9399 12.2147 20.3595 12.4584 19.845C12.8763 18.9628 13.593 18.0829 13.883 17.1404C14.1943 16.1285 14.8791 14.8956 15.7117 14.2143C16.4889 13.5784 17.151 13.0882 18.1758 13.0882C18.3784 13.0882 19.4413 13.1932 19.1576 12.8283C18.8792 12.4704 18.4471 12.2676 18.041 12.0872C17.1541 11.693 15.9843 11.5366 15.1824 10.9129C14.3689 10.2802 13.6306 9.88576 12.9397 8.99749C12.4745 8.39933 12.3581 7.52649 11.9002 6.9377C11.6588 6.62732 10.9606 5.35809 10.9377 4.9453C10.8781 3.87294 10.8233 3.0134 10.4179 2" stroke="#EBFF3D" stroke-width="3" stroke-linecap="round"/>
</svg>
