<svg width="725" height="28" viewBox="0 0 725 28" fill="none" xmlns="http://www.w3.org/2000/svg">
<path d="M353.299 19.836C353.279 19.834 353.263 19.8173 353.262 19.7971C353.215 18.3126 353.138 16.8815 353.172 15.4444C353.174 15.2883 353.789 15.0322 354.231 14.9645C359.921 14.0971 365.647 13.2636 371.338 12.3989C374.035 11.9887 376.663 11.5026 379.367 11.1029C380.752 10.9007 382.237 10.7088 383.661 10.6964C389.702 10.6359 395.732 10.6484 401.768 10.6258C405.663 10.6111 409.565 10.572 413.46 10.5493C420.098 10.5105 426.743 10.4848 433.381 10.4406C437.667 10.4137 441.952 10.3518 446.231 10.3278C452.432 10.2919 458.634 10.2829 464.835 10.255C468.79 10.2358 472.744 10.1978 476.693 10.1761C483.278 10.1389 489.863 10.1097 496.448 10.0725C500.343 10.0498 504.245 10.0161 508.147 9.99319C514.785 9.95433 521.43 9.9287 528.067 9.88446C532.294 9.85672 536.527 9.83953 540.759 9.76589C546.262 9.66848 551.771 9.5413 557.272 9.37938C560.522 9.28543 563.768 9.05708 567.012 8.96333C575.095 8.73113 583.079 8.94596 591.022 9.32352C593.225 9.42924 595.472 9.45288 597.705 9.45274C602.476 9.45097 607.252 9.41405 612.028 9.38251C612.452 9.37996 612.929 9.365 613.311 9.28575C615.101 8.91207 617.1 8.62602 618.574 8.09814C620.559 7.3874 622.627 7.1826 625.063 7.10882C657.419 6.11469 689.775 5.09368 722.123 4.07825V4.07825C723.381 4.03877 724.433 5.02625 724.472 6.28384L724.507 7.4096C724.566 9.28894 723.091 10.8603 721.211 10.9193L645.136 13.3073C644.339 13.3323 644.033 14.266 644.801 14.4794V14.4794C645.65 14.7153 645.667 16.0864 644.786 16.0889C641.103 16.0993 637.505 16.1101 633.907 16.1269C629.786 16.1487 625.666 16.2 621.552 16.2242C615.186 16.2599 608.826 16.2793 602.459 16.3123C598.451 16.3332 594.444 16.3729 590.436 16.3964C583.904 16.4347 577.372 16.4621 570.846 16.4975C566.951 16.5202 563.049 16.5512 559.154 16.5739C552.516 16.6128 545.871 16.6411 539.233 16.6826C535.06 16.7087 530.881 16.7619 526.714 16.7851C520.4 16.8218 514.093 16.8368 507.779 16.8709C503.771 16.8918 499.764 16.9315 495.756 16.955C489.224 16.9933 482.692 17.0207 476.166 17.0561C472.271 17.0788 468.369 17.1098 464.474 17.1325C457.836 17.1714 451.191 17.1997 444.553 17.2413C440.38 17.2673 436.201 17.3205 432.034 17.3437C425.72 17.3804 419.413 17.3981 413.1 17.4295C409.257 17.4479 405.415 17.477 401.573 17.4981C394.822 17.5378 388.054 17.6561 381.327 17.5901C373.36 17.5119 365.654 18.152 358.028 19.2039C356.426 19.4235 354.811 19.6328 353.308 19.8359C353.305 19.8363 353.302 19.8364 353.299 19.836V19.836Z" fill="white"/>
<path d="M173.007 21.6075C173.016 21.6053 173.022 21.598 173.022 21.5895C173.069 20.0975 173.129 18.6592 173.137 17.2166C173.139 17.0606 172.857 16.815 172.652 16.7548C170.014 15.9832 167.36 15.2461 164.722 14.4772C163.472 14.1124 162.255 13.6706 161.001 13.3165C160.359 13.1376 159.67 12.9707 159.007 12.9821C156.192 13.0229 153.382 13.1365 150.569 13.215C148.754 13.2656 146.936 13.292 145.121 13.3346C142.028 13.407 138.931 13.4927 135.838 13.5598C133.841 13.6047 131.845 13.6147 129.85 13.6624C126.961 13.7304 124.071 13.8253 121.181 13.9014C119.338 13.9485 117.496 13.9768 115.656 14.0213C112.587 14.0945 109.519 14.1757 106.45 14.2489C104.635 14.2915 102.817 14.3232 100.999 14.3657C97.9057 14.4381 94.809 14.5238 91.716 14.5908C89.7467 14.634 87.7738 14.6877 85.8028 14.685C83.2396 14.6799 80.6742 14.6451 78.113 14.5755C76.5997 14.5361 75.0905 14.3622 73.5803 14.3229C69.8169 14.2263 66.092 14.5748 62.3836 15.0853C61.355 15.2279 60.3073 15.2892 59.2666 15.3265C57.0432 15.4047 54.8178 15.4478 52.5922 15.4963C52.3946 15.5009 52.1727 15.4939 51.9961 15.4211C51.1678 15.0776 50.2411 14.8252 49.5628 14.3223C48.6494 13.6453 47.6893 13.4752 46.5551 13.4423C31.4913 12.991 16.4283 12.5128 1.36824 12.04V12.04C0.782769 12.0217 0.293252 12.4814 0.274874 13.0668L0.201335 15.4096C0.142343 17.2889 1.61802 18.8602 3.49736 18.9192L36.7889 19.9643C37.4877 19.9862 37.759 20.8146 37.1642 21.1821V21.1821C36.4573 21.6188 36.7412 22.7623 37.5718 22.7375C39.1632 22.69 40.7228 22.6443 42.2821 22.6039C44.2023 22.5565 46.1215 22.5388 48.0385 22.494C51.0051 22.423 53.9692 22.3358 56.9359 22.2621C58.8036 22.2158 60.6707 22.1883 62.5383 22.1447C65.5821 22.0734 68.6261 21.9914 71.6669 21.9173C73.482 21.8748 75.3 21.8404 77.1151 21.7978C80.2083 21.7254 83.3048 21.6423 86.3979 21.5726C88.3426 21.5287 90.2896 21.5118 92.2313 21.4651C95.1732 21.3961 98.1127 21.3054 101.055 21.2336C102.922 21.1873 104.789 21.1598 106.657 21.1162C109.701 21.0449 112.745 20.9629 115.786 20.8888C117.601 20.8463 119.419 20.8119 121.234 20.7693C124.327 20.6969 127.424 20.6138 130.517 20.5441C132.461 20.5002 134.408 20.4833 136.35 20.4366C139.292 20.3675 142.231 20.2795 145.173 20.2051C146.964 20.1591 148.754 20.1238 150.545 20.0804C153.69 20.007 156.843 20.0118 159.979 19.8331C163.694 19.6214 167.274 20.132 170.811 21.0556C171.553 21.248 172.302 21.4299 172.998 21.6075C173.001 21.6083 173.004 21.6083 173.007 21.6075V21.6075Z" fill="white"/>
</svg>
